<?xml version="1.0" encoding="UTF-8"?>
<svg version="1.1" xmlns="http://www.w3.org/2000/svg" width="321" height="321">
<path d="M0 0 C1.26873962 -0.00571014 2.53747925 -0.01142029 3.84466553 -0.01730347 C5.24320974 -0.01854865 6.64175406 -0.01967378 8.04029846 -0.02069092 C9.51896793 -0.02532221 10.9976362 -0.03034728 12.4763031 -0.03573608 C16.48661212 -0.04882902 20.49690443 -0.05529854 24.50723147 -0.05974674 C27.01375537 -0.06268147 29.52027473 -0.06678695 32.02679634 -0.07125092 C39.87244661 -0.08491542 47.71808648 -0.09458815 55.56374782 -0.09845281 C64.61495448 -0.10293619 73.66601033 -0.12050144 82.71717113 -0.1494534 C89.7185848 -0.17107058 96.71995602 -0.18115705 103.7214027 -0.18249393 C107.90113414 -0.18354159 112.08072359 -0.18944169 116.26041985 -0.20731354 C120.19127575 -0.2237957 124.12188293 -0.22594912 128.05276108 -0.21717453 C129.49349064 -0.21640433 130.93423359 -0.22074472 132.37492943 -0.23063278 C134.34528981 -0.24336091 136.31575022 -0.23568063 138.28613281 -0.22705078 C139.38763389 -0.22851734 140.48913496 -0.2299839 141.62401485 -0.2314949 C146.72988772 0.38457494 150.66685871 2.52157022 153.95655823 6.45294189 C154.43608948 7.00594971 154.91562073 7.55895752 155.40968323 8.12872314 C158.32135273 12.64531891 158.95420388 17.12823137 158.90187073 22.41387939 C158.89220276 24.1444458 158.89220276 24.1444458 158.88233948 25.90997314 C158.85720276 27.69468018 158.85720276 27.69468018 158.83155823 29.51544189 C158.82253479 30.72844971 158.81351135 31.94145752 158.80421448 33.19122314 C158.78072411 36.17449963 158.74787504 39.15736784 158.70655823 42.14044189 C160.55700745 42.09016846 160.55700745 42.09016846 162.44483948 42.03887939 C168.0209416 42.04624707 172.08984052 43.78208366 176.24952698 47.53106689 C181.18519807 53.03122823 181.799164 58.00979714 181.70655823 65.14044189 C182.6733551 65.09403564 183.64015198 65.04762939 184.63624573 64.99981689 C193.4304274 64.7560178 201.71330063 64.63832439 208.61280823 70.85919189 C213.10775609 75.86300178 213.85512347 79.85616198 213.84700012 86.49519348 C213.85145681 87.62776601 213.85145681 87.62776601 213.85600352 88.7832188 C213.86469607 91.32100548 213.86619926 93.85874501 213.86769104 96.39654541 C213.87231897 98.21325278 213.8773436 100.02995917 213.88273621 101.84666443 C213.89586815 106.78914899 213.90230719 111.73161995 213.90674686 116.67411923 C213.90967745 119.76326191 213.91378233 122.85240087 213.91825104 125.94154167 C213.93193058 135.61006451 213.94159393 145.27857886 213.94545293 154.94711071 C213.94992926 166.10092405 213.96745552 177.25461458 213.99645352 188.40839058 C214.01809516 197.03274236 214.0281586 205.65705966 214.02949405 214.28143829 C214.03054067 219.43047202 214.03641764 224.57939037 214.05431366 229.72839546 C214.07083631 234.57685035 214.0729295 239.42510367 214.06417465 244.27357674 C214.06340641 246.04803509 214.06771876 247.82250445 214.0776329 249.59693527 C214.1497977 263.32412824 213.19918702 274.46814661 203.70655823 285.14044189 C192.49106297 295.02422714 179.44541826 294.55806895 165.35499573 294.43341064 C163.48599083 294.42780664 161.61698149 294.42354035 159.74797058 294.42054749 C154.85875513 294.40916203 149.96981238 294.37974992 145.08070374 294.34643555 C140.07972399 294.31559797 135.07869965 294.30201305 130.07765198 294.28692627 C120.2871684 294.2548735 110.49688611 294.20375442 100.70655823 294.14044189 C100.67767308 290.99462766 100.659799 287.84884721 100.64405823 284.70294189 C100.63567932 283.80510986 100.62730042 282.90727783 100.6186676 281.98223877 C100.61544495 281.12823486 100.61222229 280.27423096 100.60890198 279.39434814 C100.60366516 278.60358887 100.59842834 277.81282959 100.59303284 276.99810791 C100.70655823 275.14044189 100.70655823 275.14044189 101.70655823 274.14044189 C104.23025494 274.03134153 106.72759176 273.98621829 109.25221252 273.98272705 C110.04251358 273.97764633 110.83281464 273.97256561 111.64706421 273.96733093 C113.36968553 273.95660247 115.092321 273.94799208 116.81496239 273.9412117 C119.54296592 273.92945185 122.27080903 273.91000478 124.99874878 273.88809204 C132.75733584 273.82639143 140.51590908 273.77248635 148.27467346 273.73907471 C153.01570274 273.71810553 157.75644414 273.68277803 162.49730873 273.63831711 C164.30373044 273.62416783 166.11020314 273.61543709 167.91667747 273.61226273 C170.44940047 273.60734308 172.98136325 273.58415644 175.51393127 273.5569458 C176.62935806 273.561455 176.62935806 273.561455 177.76731873 273.5660553 C182.49962994 273.49071342 185.61018993 272.45119903 189.70655823 270.14044189 C190.36655823 270.14044189 191.02655823 270.14044189 191.70655823 270.14044189 C192.01593323 269.52169189 192.32530823 268.90294189 192.64405823 268.26544189 C193.33155823 266.89044189 194.01905823 265.51544189 194.70655823 264.14044189 C194.80185911 261.77261485 194.83674372 259.43440268 194.82681274 257.06643677 C194.82766717 256.32968849 194.82852159 255.59294022 194.82940191 254.83386624 C194.83105573 252.35253769 194.82553694 249.87127599 194.82008362 247.38995361 C194.8198017 245.61628216 194.81995957 243.84261059 194.82052612 242.06893921 C194.82081391 237.24275512 194.81492013 232.41659572 194.80795217 227.59041739 C194.80171559 222.55086993 194.80111459 217.51132196 194.79992676 212.47177124 C194.79681434 202.92368758 194.78860215 193.37561533 194.77857727 183.8275367 C194.76741336 172.95950034 194.76190498 162.09146344 194.75688183 151.22342277 C194.74641947 128.86242281 194.72882176 106.50143299 194.70655823 84.14044189 C188.27155823 83.64544189 188.27155823 83.64544189 181.70655823 83.14044189 C181.71766129 85.18758896 181.72876434 87.23473602 181.74020386 89.34391785 C181.84242865 108.63392641 181.91681094 127.92389922 181.96561909 147.214118 C181.99137999 157.13148137 182.02649009 167.04864573 182.08375549 176.96588135 C182.1336552 185.61165823 182.16586461 194.25729095 182.1770007 202.90320784 C182.18350835 207.47950151 182.19875892 212.05538284 182.23520851 216.63154411 C182.26927191 220.94326042 182.27959046 225.2543965 182.27209663 229.56623459 C182.27346658 231.14440507 182.28333762 232.72259595 182.3025856 234.30064964 C182.40230637 242.90179597 182.27766889 250.13588137 176.70655823 257.14044189 C174.70655823 259.14044189 174.70655823 259.14044189 171.65672302 259.38095093 C170.34656219 259.3765097 169.03640137 259.37206848 167.6865387 259.36749268 C166.96448242 259.36778473 166.24242615 259.36807678 165.49848938 259.36837769 C163.10678681 259.36698198 160.71539402 259.35140972 158.32374573 259.33575439 C156.66750763 259.33202511 155.01126733 259.32917774 153.35502625 259.32717896 C148.99183582 259.31953579 144.62877816 259.29988149 140.26564026 259.277771 C135.03272241 259.25373403 129.79976021 259.24453484 124.56680298 259.23286438 C116.61329568 259.21345742 108.66007977 259.17513976 100.70655823 259.14044189 C100.37655823 248.25044189 100.04655823 237.36044189 99.70655823 226.14044189 C94.75655823 226.14044189 89.80655823 226.14044189 84.70655823 226.14044189 C84.37655823 256.50044189 84.04655823 286.86044189 83.70655823 318.14044189 C75.83147383 318.14044189 75.83147383 318.14044189 72.69874573 316.27716064 C71.68360901 315.68838135 71.68360901 315.68838135 70.64796448 315.08770752 C69.62509338 314.46412354 69.62509338 314.46412354 68.58155823 313.82794189 C67.54708557 313.22176025 67.54708557 313.22176025 66.49171448 312.60333252 C63.59209624 310.89849006 60.75129837 309.17071479 57.96437073 307.28497314 C55.84381388 305.93412287 55.84381388 305.93412287 53.84742737 306.42828369 C51.48041914 307.21566686 49.39924216 308.22227714 47.19483948 309.39044189 C46.35501526 309.83387939 45.51519104 310.27731689 44.6499176 310.73419189 C43.34764221 311.43028564 43.34764221 311.43028564 42.01905823 312.14044189 C41.13927307 312.60450439 40.25948792 313.06856689 39.3530426 313.54669189 C35.28039734 315.4865561 35.28039734 315.4865561 31.70655823 318.14044189 C29.06655823 318.14044189 26.42655823 318.14044189 23.70655823 318.14044189 C23.70655823 299.66044189 23.70655823 281.18044189 23.70655823 262.14044189 C15.12655823 262.14044189 6.54655823 262.14044189 -2.29344177 262.14044189 C-8.78053998 258.43352863 -12.45741442 255.90327636 -15.29344177 249.14044189 C-16.01471118 242.93939844 -15.92862461 237.40518946 -12.29344177 232.14044189 C-8.1097683 227.54860516 -8.1097683 227.54860516 -5.29344177 226.14044189 C-14.35733496 225.84805824 -23.05215433 226.07796869 -30.29344177 232.14044189 C-36.54983044 238.46483478 -36.60003831 244.17475622 -36.60813904 252.70391846 C-36.50796594 258.24011212 -36.10561845 262.83923964 -32.29344177 267.14044189 C-26.55948726 272.39545821 -21.81996288 273.23599252 -14.12156677 273.45684814 C-13.09794037 273.48801979 -13.09794037 273.48801979 -12.05363464 273.51982117 C-9.88366821 273.58496242 -7.71358553 273.64403593 -5.54344177 273.70294189 C-4.06816956 273.74616086 -2.5929089 273.78977622 -1.11766052 273.83380127 C2.49029522 273.94135001 6.098345 274.04068541 9.70655823 274.14044189 C9.70655823 280.74044189 9.70655823 287.34044189 9.70655823 294.14044189 C4.90456853 294.20977544 0.10435508 294.2693646 -4.69773865 294.30523682 C-6.32703069 294.32020956 -7.95628322 294.34059511 -9.58543396 294.36676025 C-23.42668783 294.58329521 -34.47268491 293.78108265 -45.29344177 284.14044189 C-56.23954104 272.06269703 -55.73272128 258.0931788 -55.68162537 242.7288208 C-55.68569579 240.66949689 -55.69104031 238.61017517 -55.69755554 236.55085754 C-55.71118058 230.9825769 -55.70594991 225.41446385 -55.69641829 219.84618044 C-55.68879467 214.0026433 -55.69587497 208.15912001 -55.70057678 202.31558228 C-55.70602734 192.50229329 -55.69886198 182.68907213 -55.68455505 172.87579346 C-55.66823904 161.55421715 -55.67351232 150.23280304 -55.69003427 138.91123068 C-55.70367995 129.16819713 -55.70555347 119.42521221 -55.69771826 109.68217218 C-55.69305751 103.87310594 -55.69237259 98.06411574 -55.70232773 92.25505447 C-55.71103971 86.7900661 -55.70489854 81.32528526 -55.68764496 75.86031914 C-55.68370224 73.86297766 -55.68477583 71.8656185 -55.69143295 69.86828423 C-55.75213624 49.79348069 -52.93615427 32.27654163 -38.54881287 17.20245361 C-28.06841829 6.73628421 -14.99295859 0.04050315 0 0 Z M-31.23094177 34.70294189 C-36.11471477 42.15803001 -37.42056271 50.17139688 -37.41369629 58.97415161 C-37.41455071 59.63673009 -37.41540514 60.29930857 -37.41628546 60.98196518 C-37.41792439 63.18830188 -37.41244503 65.39456149 -37.40696716 67.60089111 C-37.40668492 69.18796283 -37.40684375 70.77503468 -37.40740967 72.36210632 C-37.4076962 76.66121218 -37.40182268 80.96029004 -37.39483571 85.2593894 C-37.38857826 89.75571901 -37.38799648 94.25204928 -37.3868103 98.74838257 C-37.38370404 107.25864587 -37.37550015 115.7688963 -37.36546081 124.27915394 C-37.35427779 133.96955435 -37.34878371 143.65995538 -37.34376538 153.35036063 C-37.33331695 173.2803949 -37.31573115 193.21041758 -37.29344177 213.14044189 C-36.55738708 212.79110596 -35.8213324 212.44177002 -35.06297302 212.08184814 C-34.08715271 211.62680908 -33.1113324 211.17177002 -32.10594177 210.70294189 C-31.14301208 210.25048096 -30.1800824 209.79802002 -29.18797302 209.33184814 C-24.46422625 207.38752592 -20.29782237 207.01467438 -15.21673584 207.00241089 C-13.99584763 206.99695755 -12.77495941 206.99150421 -11.51707458 206.98588562 C-10.17210394 206.98476598 -8.82713323 206.98371543 -7.48216248 206.98272705 C-6.05924321 206.97805537 -4.63632542 206.97291122 -3.21340942 206.96733093 C-0.15288751 206.95607164 2.90762479 206.94762693 5.96816063 206.9412117 C10.81465623 206.93050252 15.66108274 206.91024899 20.50753784 206.88809204 C34.287957 206.82626879 48.06837197 206.77220839 61.84889221 206.73907471 C69.4627331 206.72068809 77.07645797 206.6917016 84.6902135 206.65107 C88.71466478 206.6300676 92.73897028 206.61455237 96.76347923 206.61226273 C100.5532307 206.61010404 104.34267872 206.59411142 108.13233757 206.567873 C109.51653618 206.56072478 110.90077174 206.5585571 112.28498459 206.56197548 C125.0675086 206.85050901 125.0675086 206.85050901 136.38469982 201.72410011 C140.51235276 197.00220767 140.83177623 193.16381745 140.83354187 187.10476685 C140.83510186 186.38420392 140.83666185 185.663641 140.83826911 184.92124283 C140.84226588 182.5006362 140.8390946 180.08009199 140.83595276 177.65948486 C140.83730736 175.9266964 140.83908763 174.19390823 140.84126282 172.46112061 C140.84582944 167.75063038 140.84405092 163.040162 140.84088373 158.32967138 C140.83835698 153.40804325 140.84069848 148.48641702 140.8422699 143.56478882 C140.84409032 135.30110334 140.84168824 127.0374268 140.83692932 118.77374268 C140.83148335 109.20624161 140.8332523 99.63876184 140.83875573 90.07126129 C140.84328617 81.86827883 140.84393785 73.6653028 140.84131706 65.46231949 C140.83975437 60.5578623 140.83956037 55.65341514 140.84285355 50.74895859 C140.84573139 46.14107002 140.84375819 41.53320906 140.83795929 36.92532349 C140.83663138 35.22933117 140.83702633 33.53333654 140.83922195 31.83734512 C140.84193216 29.53224805 140.838554 27.22724091 140.83354187 24.92214966 C140.83316484 23.62908339 140.83278782 22.33601711 140.83239937 21.00376701 C141.03398111 18.24273878 141.03398111 18.24273878 139.70655823 17.14044189 C137.84821179 17.03299199 135.98575313 16.99632569 134.12432861 16.98654175 C132.30557976 16.97364105 132.30557976 16.97364105 130.4500885 16.96047974 C129.09376569 16.95604391 127.73744242 16.9517456 126.38111877 16.9475708 C124.96203407 16.93967249 123.54295139 16.93140371 122.12387085 16.92279053 C117.44702587 16.89651444 112.77017176 16.88124618 108.09327698 16.86700439 C106.48230801 16.86164489 104.8713391 16.85626738 103.26037025 16.85087204 C96.55294286 16.82922515 89.84551791 16.81049365 83.13806438 16.79924965 C73.53740169 16.78304983 63.93714634 16.74999009 54.3366372 16.6928488 C47.58234531 16.65402774 40.82816175 16.63460198 34.07376128 16.62932909 C30.04344191 16.62568898 26.01355642 16.61381406 21.98335838 16.58122635 C18.18209612 16.55093486 14.3815253 16.54490777 10.58016777 16.55661011 C9.1935441 16.55682917 7.80688643 16.5486641 6.42037582 16.53095627 C-9.64365024 16.33716525 -21.3858513 21.89846411 -31.23094177 34.70294189 Z " fill="#0785C5" transform="translate(90.29344177246094,2.85955810546875)"/>
<path d="M0 0 C1.36560059 0.00303635 1.36560059 0.00303635 2.75878906 0.00613403 C3.68723633 0.00517731 4.61568359 0.00422058 5.57226562 0.00323486 C7.53938871 0.00255298 9.50651403 0.00440781 11.47363281 0.00857544 C14.49581932 0.01392358 17.51785721 0.00863071 20.54003906 0.00222778 C22.44628939 0.00288856 24.35253963 0.00416972 26.25878906 0.00613403 C27.16918945 0.0041098 28.07958984 0.00208557 29.01757812 0 C35.39383938 0.02399685 35.39383938 0.02399685 36.50878906 1.13894653 C36.60777945 3.18467407 36.63511215 5.23387664 36.63577271 7.28199768 C36.6373327 7.9307258 36.63889269 8.57945392 36.64049995 9.24784046 C36.64451165 11.43739518 36.64131965 13.62688145 36.63818359 15.81643677 C36.63953757 17.37982219 36.64131749 18.9432073 36.64349365 20.5065918 C36.64806876 24.76480343 36.64627801 29.02299095 36.64311457 33.28120303 C36.64059092 37.72858164 36.64292856 42.17595811 36.64450073 46.62333679 C36.6463226 54.09444552 36.64391586 61.56554438 36.63916016 69.03665161 C36.63371949 77.68387151 36.6354787 86.33106783 36.64098656 94.97828716 C36.64551956 102.3905935 36.64616726 109.80289273 36.64354789 117.21520001 C36.6419859 121.64743725 36.64178921 126.07966341 36.64508438 130.51189995 C36.64796573 134.67900958 36.6459825 138.84608871 36.64019012 143.01319504 C36.63886387 144.54589729 36.63925438 146.07860208 36.64145279 147.61130333 C36.64416959 149.69720786 36.64077661 151.78301357 36.63577271 153.86891174 C36.63539568 155.03829001 36.63501865 156.20766829 36.6346302 157.41248226 C36.50878906 160.13894653 36.50878906 160.13894653 35.50878906 162.13894653 C21.31878906 162.13894653 7.12878906 162.13894653 -7.49121094 162.13894653 C-7.61153737 139.508665 -7.61153737 139.508665 -7.63769531 129.88894653 C-7.65565391 123.31563079 -7.67693656 116.74243998 -7.7175293 110.16921997 C-7.75003944 104.87188724 -7.76804632 99.5746884 -7.77584267 94.27726364 C-7.78140121 92.25256618 -7.79225515 90.22787634 -7.80840111 88.20323563 C-7.83006454 85.37516484 -7.83318253 82.54765285 -7.83178711 79.71951294 C-7.84257294 78.87578629 -7.85335876 78.03205963 -7.86447144 77.1627655 C-7.85197449 74.83416748 -7.85197449 74.83416748 -7.49121094 71.13894653 C-4.49121094 69.13894653 -4.49121094 69.13894653 -0.92871094 68.63894653 C2.56590826 68.48046896 2.56590826 68.48046896 4.50878906 66.13894653 C4.96690581 64.1665932 4.96690581 64.1665932 5.13378906 62.01394653 C5.25753906 60.73519653 5.38128906 59.45644653 5.50878906 58.13894653 C2.20878906 58.79894653 -1.09121094 59.45894653 -4.49121094 60.13894653 C-4.82121094 61.12894653 -5.15121094 62.11894653 -5.49121094 63.13894653 C-6.15121094 63.13894653 -6.81121094 63.13894653 -7.49121094 63.13894653 C-7.51433831 55.07242479 -7.53212803 47.00591681 -7.54302311 38.93937016 C-7.54825108 35.19411616 -7.55534715 31.44888478 -7.56665039 27.7036438 C-7.57748234 24.09212966 -7.58348842 20.48063733 -7.58608818 16.8691082 C-7.58794187 15.48834324 -7.59156143 14.10757953 -7.59694099 12.72682381 C-7.6041554 10.79918701 -7.60461903 8.87152847 -7.60473633 6.94387817 C-7.60695694 5.84467545 -7.60917755 4.74547272 -7.61146545 3.61296082 C-7.3710288 -1.33357871 -4.22108596 0.01588592 0 0 Z " fill="#0684C5" transform="translate(180.4912109375,33.861053466796875)"/>
<path d="M0 0 C14.52 0 29.04 0 44 0 C44 19.14 44 38.28 44 58 C43.01 57.67 42.02 57.34 41 57 C41 56.34 41 55.68 41 55 C40.30132812 54.93941406 39.60265625 54.87882812 38.8828125 54.81640625 C37.97273438 54.73261719 37.06265625 54.64882812 36.125 54.5625 C35.22007812 54.48128906 34.31515625 54.40007812 33.3828125 54.31640625 C31 54 31 54 29 53 C28.979375 54.299375 28.95875 55.59875 28.9375 56.9375 C28.92589844 57.66839844 28.91429687 58.39929688 28.90234375 59.15234375 C28.79438816 61.01732141 28.79438816 61.01732141 30 62 C32.16296273 62.20931897 34.3309471 62.36797069 36.5 62.5 C42.88888889 62.88888889 42.88888889 62.88888889 44 64 C44.09443335 66.30053835 44.11742128 68.60402173 44.11352539 70.90649414 C44.11367142 71.62840439 44.11381744 72.35031464 44.1139679 73.09410095 C44.11326869 75.49114947 44.10547595 77.88812123 44.09765625 80.28515625 C44.0957921 81.94282489 44.09436818 83.60049407 44.09336853 85.25816345 C44.08954312 89.62954214 44.07971265 94.00088781 44.06866455 98.37225342 C44.05665641 103.61267667 44.0520483 108.85311094 44.04621124 114.09354401 C44.0365009 122.06238566 44.01734452 130.03115482 44 138 C29.48 138 14.96 138 0 138 C0 122.82 0 107.64 0 92 C3.6249797 90.18751015 5.37259584 89.68111085 9.25 89.375 C10.58804688 89.26285156 10.58804688 89.26285156 11.953125 89.1484375 C12.62859375 89.09945312 13.3040625 89.05046875 14 89 C14.33 86.69 14.66 84.38 15 82 C13.75283203 82.2165625 13.75283203 82.2165625 12.48046875 82.4375 C11.39378906 82.623125 10.30710938 82.80875 9.1875 83 C8.10855469 83.185625 7.02960938 83.37125 5.91796875 83.5625 C3 84 3 84 0 84 C0 56.28 0 28.56 0 0 Z " fill="#0484C5" transform="translate(120,58)"/>
<path d="M0 0 C0 23.43 0 46.86 0 71 C-0.99 70.67 -1.98 70.34 -3 70 C-3 69.34 -3 68.68 -3 68 C-5.97 67.34 -8.94 66.68 -12 66 C-12 68.64 -12 71.28 -12 74 C-11.07767578 74.29003906 -11.07767578 74.29003906 -10.13671875 74.5859375 C-9.32847656 74.84632813 -8.52023438 75.10671875 -7.6875 75.375 C-6.88699219 75.63023437 -6.08648437 75.88546875 -5.26171875 76.1484375 C-3 77 -3 77 0 79 C0.34057617 81.70556641 0.34057617 81.70556641 0.29296875 85.1015625 C0.28172974 86.73859131 0.28172974 86.73859131 0.27026367 88.40869141 C0.24295166 89.80007324 0.21563965 91.19145508 0.1875 92.625 C0.125625 97.03875 0.06375 101.4525 0 106 C-14.52 106 -29.04 106 -44 106 C-44.12032643 84.85820095 -44.12032643 84.85820095 -44.14648438 75.8203125 C-44.16439176 69.66235564 -44.18553706 63.50453309 -44.22631836 57.34667969 C-44.25900372 52.37999503 -44.2768724 47.41345448 -44.28463173 42.44667053 C-44.29015878 40.55532057 -44.3009517 38.66397815 -44.31719017 36.77268982 C-44.33908652 34.11586696 -44.34196185 31.45963349 -44.34057617 28.80273438 C-44.351362 28.02733307 -44.36214783 27.25193176 -44.3732605 26.45303345 C-44.32947961 18.65426293 -41.9918228 12.32691141 -36.6796875 6.5390625 C-26.17160558 -3.08927303 -14.31424814 0 0 0 Z " fill="#0A86C6" transform="translate(111,90)"/>
<path d="M0 0 C1 2 1 2 0.2578125 4.2421875 C-0.11601563 5.11101563 -0.48984375 5.97984375 -0.875 6.875 C-2.17253136 9.91467137 -3.21397315 12.7959414 -4 16 C-6.66666667 21.66666667 -6.66666667 21.66666667 -8 23 C-8.10235082 25.80370823 -8.13885559 28.58293112 -8.13371277 31.38723755 C-8.13597833 32.27745098 -8.13824388 33.16766441 -8.14057809 34.08485401 C-8.14694885 37.09190124 -8.14608675 40.09890376 -8.14526367 43.10595703 C-8.14825335 45.25235554 -8.15165543 47.39875351 -8.15544128 49.54515076 C-8.16430743 55.39455142 -8.16662056 61.24393748 -8.16725707 67.09334421 C-8.16820445 71.9714355 -8.17188097 76.84952336 -8.17542917 81.72761333 C-8.18358452 93.23768148 -8.18601251 104.7477418 -8.18530273 116.2578125 C-8.18470243 128.13707571 -8.19524239 140.01629343 -8.2110464 151.89554513 C-8.22412004 162.08497683 -8.22948667 172.27439367 -8.22884732 182.46383369 C-8.22859218 188.55342127 -8.23145211 194.64296851 -8.24202538 200.73254776 C-8.25170275 206.46326505 -8.25178795 212.19390342 -8.24450874 217.92462349 C-8.24346229 220.02768506 -8.2458294 222.13075154 -8.2518692 224.2338047 C-8.25958376 227.10624959 -8.25494766 229.97842161 -8.24723816 232.8508606 C-8.2549535 234.0974291 -8.2549535 234.0974291 -8.26282471 235.3691808 C-8.23381528 240.26538961 -7.46068383 244.28482494 -6 249 C-6 250.32 -6 251.64 -6 253 C-5.34 253 -4.68 253 -4 253 C-4 253.66 -4 254.32 -4 255 C-3.38125 255.28875 -2.7625 255.5775 -2.125 255.875 C-0 257 -0 257 2 259 C2 259.99 2 260.98 2 262 C3.65 262.33 5.3 262.66 7 263 C7.495 264.98 7.495 264.98 8 267 C-0.06282082 264.23560429 -5.08605558 258.4105251 -9 251 C-13.07024296 240.90295058 -12.42369443 230.26635938 -12.38818359 219.58837891 C-12.39225402 217.529055 -12.39759853 215.46973327 -12.40411377 213.41041565 C-12.41773881 207.84213501 -12.41250814 202.27402195 -12.40297651 196.70573854 C-12.3953529 190.86220141 -12.4024332 185.01867811 -12.40713501 179.17514038 C-12.41258557 169.36185139 -12.40542021 159.54863024 -12.39111328 149.73535156 C-12.37479727 138.41377526 -12.38007055 127.09236115 -12.3965925 115.77078879 C-12.41023818 106.02775524 -12.4121117 96.28477031 -12.40427649 86.54173028 C-12.39961573 80.73266404 -12.39893081 74.92367384 -12.40888596 69.11461258 C-12.41759794 63.64962421 -12.41145677 58.18484337 -12.39420319 52.71987724 C-12.39026047 50.72253576 -12.39133406 48.72517661 -12.39799118 46.72784233 C-12.439239 33.08703379 -11.95010282 20.6484669 -5.4375 8.3125 C-4.83808594 7.15363281 -4.23867188 5.99476562 -3.62109375 4.80078125 C-2 2 -2 2 0 0 Z " fill="#6DB8DE" transform="translate(47,26)"/>
<path d="M0 0 C1.20023804 -0.00281982 2.40047607 -0.00563965 3.63708496 -0.00854492 C5.59947113 -0.00550858 5.59947113 -0.00550858 7.60150146 -0.00241089 C8.99961391 -0.00376657 10.39772599 -0.00554744 11.7958374 -0.00772095 C15.58475275 -0.01227375 19.37364083 -0.01051502 23.16255665 -0.00734186 C27.12590928 -0.00480916 31.08925958 -0.00715816 35.0526123 -0.00872803 C41.70367858 -0.0105462 48.35473375 -0.00815173 55.00579834 -0.00338745 C62.7045004 0.00206344 70.40317602 0.00028511 78.10187745 -0.00521386 C84.70831093 -0.00974434 91.31473642 -0.01039613 97.92117095 -0.00777519 C101.86873925 -0.0062132 105.8162951 -0.00601669 109.76386261 -0.00931168 C113.47056831 -0.01218974 117.17723968 -0.01021592 120.88394165 -0.00441742 C122.90069531 -0.00245426 124.91745187 -0.00544365 126.9342041 -0.00854492 C128.12316284 -0.0057251 129.31212158 -0.00290527 130.53710938 0 C132.09672079 0.00056554 132.09672079 0.00056554 133.68783951 0.0011425 C136.0145874 0.12698364 136.0145874 0.12698364 137.0145874 1.12698364 C137.11221841 3.47985657 137.14456185 5.80333051 137.13484192 8.15666199 C137.13612356 9.27275342 137.13612356 9.27275342 137.13743109 10.41139215 C137.13908811 12.92346544 137.13356091 15.43547307 137.12811279 17.94754028 C137.12783094 19.74076842 137.12798861 21.53399667 137.1285553 23.32722473 C137.12884336 28.21131729 137.12294526 33.09538552 137.11598134 37.9794724 C137.10974921 43.07774944 137.10914412 48.17602699 137.10795593 53.27430725 C137.1048422 62.93575524 137.09662825 72.59719197 137.08660644 82.25863498 C137.07544661 93.25481987 137.06993518 104.25100528 137.06491101 115.24719441 C137.05444567 137.87379707 137.03684541 160.50038973 137.0145874 183.12698364 C135.6945874 183.45698364 134.3745874 183.78698364 133.0145874 184.12698364 C133.17710715 183.45219373 133.3396269 182.77740381 133.5070715 182.08216572 C134.10168413 178.61983363 134.13734689 175.35854745 134.13484192 171.84407043 C134.13569634 171.12109309 134.13655077 170.39811576 134.13743109 169.65323001 C134.13907505 167.23649684 134.13358229 164.81983344 134.12811279 162.40310669 C134.12783066 160.6684011 134.12798916 158.93369539 134.1285553 157.19898987 C134.12884226 152.49281401 134.12296185 147.78666363 134.11598134 143.08049369 C134.10973099 138.16108056 134.10914267 133.24166685 134.10795593 128.32225037 C134.10484759 119.00801185 134.09664087 109.69378506 134.08660644 100.37955171 C134.07334017 87.79225078 134.06794139 75.20494665 134.06210423 62.6176405 C134.05270066 42.78741275 134.03277842 22.95720978 134.0145874 3.12698364 C62.2395874 2.63198364 62.2395874 2.63198364 -10.9854126 2.12698364 C-10.9854126 1.79698364 -10.9854126 1.46698364 -10.9854126 1.12698364 C-7.2607111 0.26486424 -3.81971349 0.00138308 0 0 Z " fill="#7BBCD9" transform="translate(95.98541259765625,17.873016357421875)"/>
<path d="M0 0 C14.52 0 29.04 0 44 0 C44 19.14 44 38.28 44 58 C43.01 57.67 42.02 57.34 41 57 C41 56.34 41 55.68 41 55 C40.30132812 54.93941406 39.60265625 54.87882812 38.8828125 54.81640625 C37.97273438 54.73261719 37.06265625 54.64882812 36.125 54.5625 C35.22007812 54.48128906 34.31515625 54.40007812 33.3828125 54.31640625 C31 54 31 54 29 53 C28.979375 54.27875 28.95875 55.5575 28.9375 56.875 C28.92589844 57.59429687 28.91429687 58.31359375 28.90234375 59.0546875 C28.87350758 61.08185404 28.87350758 61.08185404 30 63 C28.35 62.67 26.7 62.34 25 62 C24.75 54.5 24.75 54.5 27 50 C31.29 50 35.58 50 40 50 C40.33 34.49 40.66 18.98 41 3 C28.46 3 15.92 3 3 3 C3 28.41 3 53.82 3 80 C5.97 80.33 8.94 80.66 12 81 C12 81.66 12 82.32 12 83 C6.06 83.495 6.06 83.495 0 84 C0 56.28 0 28.56 0 0 Z " fill="#57A9D4" transform="translate(120,58)"/>
<path d="M0 0 C1.36560059 0.00303635 1.36560059 0.00303635 2.75878906 0.00613403 C3.68723633 0.00517731 4.61568359 0.00422058 5.57226562 0.00323486 C7.53938871 0.00255298 9.50651403 0.00440781 11.47363281 0.00857544 C14.49581932 0.01392358 17.51785721 0.00863071 20.54003906 0.00222778 C22.44628939 0.00288856 24.35253963 0.00416972 26.25878906 0.00613403 C27.16918945 0.0041098 28.07958984 0.00208557 29.01757812 0 C35.39383938 0.02399685 35.39383938 0.02399685 36.50878906 1.13894653 C36.6099738 3.18461435 36.63956564 5.23383105 36.64250183 7.28199768 C36.64476739 7.9307258 36.64703294 8.57945392 36.64936715 9.24784046 C36.65573394 11.4373903 36.65487609 13.62687866 36.65405273 15.81643677 C36.65704256 17.3798226 36.66044467 18.94320769 36.66423035 20.5065918 C36.67309251 24.76479946 36.67540939 29.02298704 36.67604613 33.28120303 C36.67699338 36.83011561 36.68066954 40.37902346 36.68421823 43.92793423 C36.69237119 52.29750911 36.69480169 60.66707322 36.6940918 69.03665161 C36.69349076 77.6838895 36.70404579 86.33106505 36.71983546 94.97828716 C36.73289024 102.39059445 36.73827656 109.80288131 36.73763639 117.21520001 C36.73738079 121.64745557 36.74026563 126.07965578 36.75081444 130.51189995 C36.76046085 134.6790333 36.76059853 138.84605797 36.75329781 143.01319504 C36.75224764 144.54589941 36.75464025 146.07861042 36.76065826 147.61130333 C36.76832064 149.69730264 36.76377217 151.78292124 36.75602722 153.86891174 C36.75657199 155.03829001 36.75711676 156.20766829 36.75767803 157.41248226 C36.50878906 160.13894653 36.50878906 160.13894653 34.50878906 162.13894653 C34.50878906 109.33894653 34.50878906 56.53894653 34.50878906 2.13894653 C21.30878906 2.13894653 8.10878906 2.13894653 -5.49121094 2.13894653 C-5.49121094 20.94894653 -5.49121094 39.75894653 -5.49121094 59.13894653 C-4.50121094 59.46894653 -3.51121094 59.79894653 -2.49121094 60.13894653 C-3.15121094 60.13894653 -3.81121094 60.13894653 -4.49121094 60.13894653 C-4.82121094 61.12894653 -5.15121094 62.11894653 -5.49121094 63.13894653 C-6.15121094 63.13894653 -6.81121094 63.13894653 -7.49121094 63.13894653 C-7.51433831 55.07242479 -7.53212803 47.00591681 -7.54302311 38.93937016 C-7.54825108 35.19411616 -7.55534715 31.44888478 -7.56665039 27.7036438 C-7.57748234 24.09212966 -7.58348842 20.48063733 -7.58608818 16.8691082 C-7.58794187 15.48834324 -7.59156143 14.10757953 -7.59694099 12.72682381 C-7.6041554 10.79918701 -7.60461903 8.87152847 -7.60473633 6.94387817 C-7.60695694 5.84467545 -7.60917755 4.74547272 -7.61146545 3.61296082 C-7.3710288 -1.33357871 -4.22108596 0.01588592 0 0 Z " fill="#7CBDDE" transform="translate(180.4912109375,33.861053466796875)"/>
<path d="M0 0 C1.37478516 0.01740234 1.37478516 0.01740234 2.77734375 0.03515625 C3.69644531 0.04417969 4.61554688 0.05320312 5.5625 0.0625 C6.27277344 0.07410156 6.98304688 0.08570312 7.71484375 0.09765625 C7.71484375 0.42765625 7.71484375 0.75765625 7.71484375 1.09765625 C9.36484375 1.42765625 11.01484375 1.75765625 12.71484375 2.09765625 C12.71484375 2.42765625 12.71484375 2.75765625 12.71484375 3.09765625 C8.42484375 3.09765625 4.13484375 3.09765625 -0.28515625 3.09765625 C-0.27849442 5.15812698 -0.27183258 7.21859772 -0.26496887 9.34150696 C-0.20373657 28.72171903 -0.1590523 48.10191838 -0.12971973 67.48220539 C-0.11423791 77.4467532 -0.09312332 87.41123011 -0.05883789 97.37573242 C-0.02897573 106.05880647 -0.00959082 114.74182919 -0.00289077 123.42495316 C0.00102691 128.02441299 0.01026115 132.62372596 0.03203392 137.22313881 C0.05234885 141.54951243 0.05868772 145.87567824 0.05416679 150.20209503 C0.05499424 151.79244045 0.06098962 153.38279259 0.07246017 154.97309685 C0.08732664 157.13994057 0.08381942 159.30599364 0.0756073 161.47285461 C0.07837268 162.68685597 0.08113806 163.90085733 0.08398724 165.15164661 C-0.28515625 168.09765625 -0.28515625 168.09765625 -1.80770397 170.01170635 C-2.29526322 170.37006982 -2.78282248 170.72843328 -3.28515625 171.09765625 C-4.731994 168.20398075 -4.39248816 165.71992511 -4.37417603 162.48594666 C-4.37165246 161.79890657 -4.3691289 161.11186649 -4.36652887 160.40400702 C-4.35676953 158.09082034 -4.3397404 155.77774369 -4.32275391 153.46459961 C-4.31425093 151.81077787 -4.30617906 150.15695386 -4.29850769 148.50312805 C-4.27627145 144.00328685 -4.24760822 139.50350737 -4.21755266 135.00371242 C-4.18695461 130.30364491 -4.16129264 125.60355005 -4.13485718 120.90345764 C-4.08963568 113.01040149 -4.04015114 105.1173803 -3.98828125 97.22436523 C-3.92828931 88.08578897 -3.87552272 78.94719203 -3.82651293 69.80855078 C-3.78431711 61.97499028 -3.73826331 54.14145947 -3.68894804 46.30794054 C-3.65946087 41.62369257 -3.63132739 36.93944682 -3.60664749 32.25517082 C-3.58323748 27.8532831 -3.55500061 23.45145277 -3.52295876 19.04961967 C-3.51196617 17.42942879 -3.50268575 15.8092253 -3.49519539 14.18901443 C-3.48474131 11.98674336 -3.46823458 9.78460143 -3.45010376 7.5823822 C-3.44235239 6.34701186 -3.43460102 5.11164152 -3.42661476 3.83883572 C-3.23564743 0.13827553 -3.23564743 0.13827553 0 0 Z " fill="#3A9ACB" transform="translate(272.28515625,82.90234375)"/>
<path d="M0 0 C2.40231327 3.60346991 2.28290267 6.19382018 2.26069641 10.35475159 C2.26452196 11.10979994 2.26834751 11.8648483 2.27228898 12.64277691 C2.28263279 15.18062264 2.27862415 17.71824271 2.2746582 20.25610352 C2.27900413 22.07281199 2.28418688 23.88951863 2.29014587 25.70622253 C2.30356554 30.64872802 2.30411084 35.59115717 2.30158257 40.53367734 C2.30051405 44.66102177 2.30539363 48.78835068 2.310188 52.91569179 C2.3212952 62.65873141 2.32171494 72.4017325 2.31567383 82.14477539 C2.30964331 92.18588796 2.32191882 102.22686008 2.3432439 112.26794869 C2.36088474 120.892307 2.36685701 129.51662072 2.36360615 138.1409964 C2.36179581 143.29002091 2.36440392 148.43894542 2.37832069 153.58795357 C2.39093339 158.43642096 2.38892239 163.28467064 2.37590981 168.13313484 C2.37355129 169.90758845 2.37625259 171.68205752 2.38453293 173.45649338 C2.46389442 191.79392254 2.46389442 191.79392254 -1 199 C-1.99 199.99 -1.99 199.99 -3 201 C-3.9765625 194.9453125 -3.9765625 194.9453125 -4 193 C-3.01 192.01 -3.01 192.01 -2 191 C-0.61252991 187.2754104 -0.84713799 183.34050416 -0.84178162 179.41973877 C-0.83684364 178.65269678 -0.83190566 177.88565479 -0.82681805 177.0953691 C-0.81145228 174.52354251 -0.80308492 171.95174087 -0.79467773 169.37988281 C-0.78509849 167.53694947 -0.77508838 165.69401832 -0.76467896 163.85108948 C-0.73762889 158.84530168 -0.71661985 153.83950445 -0.69667697 148.83368397 C-0.67481808 143.6032775 -0.64742891 138.37290011 -0.62062073 133.14251709 C-0.57069255 123.23682015 -0.52575417 113.33110707 -0.48259836 103.42537856 C-0.43322707 92.14857669 -0.37830853 80.87180398 -0.32291877 69.59503031 C-0.2090968 46.39671408 -0.10225821 23.19836988 0 0 Z " fill="#65B2DA" transform="translate(302,79)"/>
<path d="M0 0 C0.33 0.99 0.66 1.98 1 3 C1.66 3.33 2.32 3.66 3 4 C2.49339844 4.88751953 2.49339844 4.88751953 1.9765625 5.79296875 C-2.82534125 14.30038782 -5.127926 20.97545511 -5.12025452 30.87167358 C-5.12110894 31.53833562 -5.12196337 32.20499765 -5.12284368 32.89186156 C-5.12448275 35.11201761 -5.11900304 37.33209707 -5.11352539 39.55224609 C-5.11324315 41.1491699 -5.11340197 42.74609384 -5.1139679 44.34301758 C-5.11425444 48.66898201 -5.10838074 52.99491862 -5.10139394 57.3208766 C-5.09513667 61.84523343 -5.09455472 66.36959092 -5.09336853 70.89395142 C-5.09026221 79.45733863 -5.08205825 88.02071306 -5.07201904 96.58409464 C-5.06083619 106.3349534 -5.05534198 116.08581278 -5.05032361 125.83667636 C-5.03987506 145.89112471 -5.02228915 165.94556155 -5 186 C-5.99 186 -6.98 186 -8 186 C-8.02336578 164.21641773 -8.04099727 142.43283753 -8.05181217 120.64924526 C-8.0569673 110.53463255 -8.06399511 100.42002763 -8.07543945 90.30541992 C-8.08541018 81.48899854 -8.09185913 72.6725828 -8.09408849 63.85615593 C-8.09539153 59.18843866 -8.09845172 54.52073753 -8.10573006 49.85302544 C-8.11252794 45.45774305 -8.11460928 41.06248342 -8.11310768 36.66719627 C-8.11338231 35.05596544 -8.11536505 33.44473382 -8.11920547 31.83350754 C-8.12420161 29.62888108 -8.12297654 27.42433985 -8.12025452 25.2197113 C-8.12117631 23.98727408 -8.1220981 22.75483686 -8.12304783 21.48505306 C-7.78040279 11.78040279 -7.78040279 11.78040279 -5 9 C-4.01 9 -3.02 9 -2 9 C-2.33 7.68 -2.66 6.36 -3 5 C-2.01 5 -1.02 5 0 5 C0 3.35 0 1.7 0 0 Z " fill="#3D98C6" transform="translate(59,31)"/>
<path d="M0 0 C0.99 0.33 1.98 0.66 3 1 C3.0467264 24.08741304 3.081992 47.17481828 3.10362434 70.26226902 C3.1139357 80.98223514 3.1279934 91.70217188 3.15087891 102.42211914 C3.17081703 111.7659178 3.18371746 121.10969518 3.18817699 130.45351452 C3.19078364 135.40070826 3.19690758 140.34784111 3.21146011 145.29501534 C3.22505065 149.95296263 3.22921964 154.61082405 3.22621536 159.26878929 C3.22676486 160.97677706 3.23073353 162.68476774 3.23841095 164.39273834 C3.24839527 166.72881368 3.24595626 169.06456687 3.24050903 171.40065002 C3.24235262 172.70683068 3.24419621 174.01301134 3.24609566 175.35877323 C2.98742997 179.185986 2.29454334 182.39253668 1 186 C-1.125 187.4375 -1.125 187.4375 -3 188 C-2.38722388 185.03824877 -1.74627478 183.61941217 0 181 C0.18860239 178.5507409 0.26102001 176.21656376 0.24050903 173.76777649 C0.24221788 173.02609024 0.24392673 172.28440399 0.24568737 171.52024239 C0.24898886 169.02812731 0.23796783 166.53627984 0.22705078 164.04418945 C0.22648681 162.26051846 0.22680295 160.476847 0.22793579 158.69317627 C0.22851085 153.84429454 0.21673174 148.99551126 0.20278788 144.14665246 C0.19030605 139.08175671 0.18911203 134.01685883 0.18673706 128.95195007 C0.18051479 119.35784261 0.16409387 109.7637806 0.14403808 100.16969317 C0.12170231 89.24843509 0.1106915 78.32717487 0.10064721 67.40589964 C0.07972829 44.93724121 0.0445378 22.46862315 0 0 Z " fill="#A0D1EB" transform="translate(285,86)"/>
<path d="M0 0 C2.14576637 -0.02685938 4.29162645 -0.04633088 6.4375 -0.0625 C7.63246094 -0.07410156 8.82742187 -0.08570312 10.05859375 -0.09765625 C13 0 13 0 14 1 C14.09443335 3.30053835 14.11742128 5.60402173 14.11352539 7.90649414 C14.11367142 8.62840439 14.11381744 9.35031464 14.1139679 10.09410095 C14.11326869 12.49114947 14.10547595 14.88812123 14.09765625 17.28515625 C14.0957921 18.94282489 14.09436818 20.60049407 14.09336853 22.25816345 C14.08954312 26.62954214 14.07971265 31.00088781 14.06866455 35.37225342 C14.05665641 40.61267667 14.0520483 45.85311094 14.04621124 51.09354401 C14.0365009 59.06238566 14.01734452 67.03115482 14 75 C-0.52 75 -15.04 75 -30 75 C-30 59.82 -30 44.64 -30 29 C-28.02 29 -26.04 29 -24 29 C-24.99 29.33 -25.98 29.66 -27 30 C-27 44.52 -27 59.04 -27 74 C-14.13 74 -1.26 74 12 74 C12 50.24 12 26.48 12 2 C8.37 2 4.74 2 1 2 C0.67 1.34 0.34 0.68 0 0 Z " fill="#429AC7" transform="translate(150,121)"/>
<path d="M0 0 C0.99 0.495 0.99 0.495 2 1 C1.67 1.99 1.34 2.98 1 4 C-27.05 4 -55.1 4 -84 4 C-84 9.61 -84 15.22 -84 21 C-56.94 21 -29.88 21 -2 21 C-2 21.33 -2 21.66 -2 22 C-29.72 22 -57.44 22 -86 22 C-86 3 -86 3 -85 2 C-82.46071262 1.8802794 -79.94738462 1.82456375 -77.40673828 1.81054688 C-76.21405838 1.79810692 -76.21405838 1.79810692 -74.99728394 1.78541565 C-73.26484323 1.76797532 -71.53237841 1.75281952 -69.79990005 1.73963928 C-67.06012962 1.71867207 -64.32047986 1.69164338 -61.58078003 1.66296387 C-55.76223275 1.60315837 -49.9436296 1.55107419 -44.125 1.5 C-37.3914839 1.44081735 -30.65802682 1.37851026 -23.92461777 1.30812073 C-21.22190986 1.28151186 -18.51919619 1.26071523 -15.81643677 1.2401123 C-14.16163857 1.22350914 -12.50684304 1.20663729 -10.85205078 1.18945312 C-10.09764709 1.18526871 -9.34324341 1.18108429 -8.565979 1.17677307 C-5.4466791 1.13919743 -2.98187142 0.99395714 0 0 Z " fill="#82BEDD" transform="translate(277,275)"/>
<path d="M0 0 C1.24153433 3.724603 0.47452539 4.47752269 -1 8 C-1.89113582 12.33614169 -2.1236817 16.4506064 -2.12025452 20.87167358 C-2.12110894 21.53833562 -2.12196337 22.20499765 -2.12284368 22.89186156 C-2.12448275 25.11201761 -2.11900304 27.33209707 -2.11352539 29.55224609 C-2.11324315 31.1491699 -2.11340197 32.74609384 -2.1139679 34.34301758 C-2.11425444 38.66898201 -2.10838074 42.99491862 -2.10139394 47.3208766 C-2.09513667 51.84523343 -2.09455472 56.36959092 -2.09336853 60.89395142 C-2.09026221 69.45733863 -2.08205825 78.02071306 -2.07201904 86.58409464 C-2.06083619 96.3349534 -2.05534198 106.08581278 -2.05032361 115.83667636 C-2.03987506 135.89112471 -2.02228915 155.94556155 -2 176 C-2.66 176 -3.32 176 -4 176 C-4.02337328 154.62483993 -4.04100094 133.24968198 -4.05181217 111.87451172 C-4.05696571 101.94937716 -4.06399048 92.02425055 -4.07543945 82.09912109 C-4.08541505 73.44712919 -4.09186028 64.79514305 -4.09408849 56.14314556 C-4.09539071 51.5631457 -4.09844564 46.9831623 -4.10573006 42.40316772 C-4.11253564 38.08913891 -4.11460773 33.77513329 -4.11310768 29.46109962 C-4.11338197 27.88092739 -4.1153601 26.30075435 -4.11920547 24.72058678 C-4.15323481 10.01101644 -4.15323481 10.01101644 -3 3 C-2.01 2.67 -1.02 2.34 0 2 C0 1.34 0 0.68 0 0 Z " fill="#B3DEF3" transform="translate(56,41)"/>
<path d="M0 0 C0.83805176 0.15847412 1.67610352 0.31694824 2.53955078 0.48022461 C6.17675708 1.02654973 9.69123534 1.21007706 13.3671875 1.31640625 C14.04677521 1.33718735 14.72636292 1.35796844 15.42654419 1.37937927 C17.57593666 1.4442363 19.7254407 1.50345941 21.875 1.5625 C23.3411569 1.60574612 24.80730294 1.64936225 26.2734375 1.69335938 C29.84884622 1.80054074 33.42435142 1.90008592 37 2 C37 8.6 37 15.2 37 22 C25.45 22 13.9 22 2 22 C2 21.34 2 20.68 2 20 C2.93384521 19.97494385 3.86769043 19.9498877 4.82983398 19.92407227 C8.28325189 19.82913072 11.7364896 19.72988742 15.18969727 19.62768555 C16.68639269 19.58428187 18.18313939 19.54261087 19.67993164 19.50268555 C21.82714312 19.44511384 23.97409521 19.38138284 26.12109375 19.31640625 C27.4145874 19.27974854 28.70808105 19.24309082 30.04077148 19.20532227 C32.88555008 19.3332722 32.88555008 19.3332722 34 18 C34 13.71 34 9.42 34 5 C19.15 4.505 19.15 4.505 4 4 C4 3.34 4 2.68 4 2 C3.01 2.33 2.02 2.66 1 3 C0.67 2.01 0.34 1.02 0 0 Z " fill="#64AFD4" transform="translate(63,275)"/>
<path d="M0 0 C0.33 0 0.66 0 1 0 C1 18.15 1 36.3 1 55 C-11 53 -11 53 -13 52 C-13.020625 53.27875 -13.04125 54.5575 -13.0625 55.875 C-13.07410156 56.59429687 -13.08570313 57.31359375 -13.09765625 58.0546875 C-13.12649242 60.08185404 -13.12649242 60.08185404 -12 62 C-13.65 61.67 -15.3 61.34 -17 61 C-17.25 53.5 -17.25 53.5 -15 49 C-10.71 49 -6.42 49 -2 49 C-1.97494385 47.62223389 -1.9498877 46.24446777 -1.92407227 44.82495117 C-1.83000406 39.72036197 -1.72978183 34.61590904 -1.62768555 29.51147461 C-1.58433448 27.30089502 -1.54265954 25.09028191 -1.50268555 22.87963867 C-1.44498734 19.70481251 -1.38129138 16.53015514 -1.31640625 13.35546875 C-1.29969376 12.36475876 -1.28298126 11.37404877 -1.26576233 10.35331726 C-1.2358445 8.97222527 -1.2358445 8.97222527 -1.20532227 7.56323242 C-1.18977798 6.7527092 -1.1742337 5.94218597 -1.15821838 5.10710144 C-1 3 -1 3 0 0 Z " fill="#3391C2" transform="translate(162,59)"/>
<path d="M0 0 C7.92 0 15.84 0 24 0 C24 23.43 24 46.86 24 71 C22.515 70.505 22.515 70.505 21 70 C21 69.34 21 68.68 21 68 C17.535 67.505 17.535 67.505 14 67 C14 66.67 14 66.34 14 66 C16.64 66 19.28 66 22 66 C22 44.55 22 23.1 22 1 C14.74 1 7.48 1 0 1 C0 0.67 0 0.34 0 0 Z " fill="#3996C3" transform="translate(87,90)"/>
<path d="M0 0 C2.14576637 -0.02685938 4.29162645 -0.04633088 6.4375 -0.0625 C7.63246094 -0.07410156 8.82742187 -0.08570312 10.05859375 -0.09765625 C13 0 13 0 14 1 C14.09443335 3.30053835 14.11742128 5.60402173 14.11352539 7.90649414 C14.11367142 8.62840439 14.11381744 9.35031464 14.1139679 10.09410095 C14.11326869 12.49114947 14.10547595 14.88812123 14.09765625 17.28515625 C14.0957921 18.94282489 14.09436818 20.60049407 14.09336853 22.25816345 C14.08954312 26.62954214 14.07971265 31.00088781 14.06866455 35.37225342 C14.05845092 39.82954461 14.05387101 44.28684111 14.04882812 48.74414062 C14.0380904 57.49610893 14.02101371 66.24805036 14 75 C13.34 75 12.68 75 12 75 C12 50.91 12 26.82 12 2 C8.37 2 4.74 2 1 2 C0.67 1.34 0.34 0.68 0 0 Z " fill="#79BBDF" transform="translate(150,121)"/>
<path d="M0 0 C3.01111938 4.51667907 3.10067926 7.6639991 3 13 C3.96679688 12.95359375 4.93359375 12.9071875 5.9296875 12.859375 C14.62472012 12.61832459 22.61708062 12.68143059 29.71875 18.37890625 C31.125 19.75 31.125 19.75 33 22 C32.67 22.66 32.34 23.32 32 24 C30.02 24 28.04 24 26 24 C25.67 23.01 25.34 22.02 25 21 C25.66 21 26.32 21 27 21 C26.67 19.68 26.34 18.36 26 17 C25.2479126 16.97494385 24.4958252 16.9498877 23.72094727 16.92407227 C20.33460804 16.80849486 16.94857387 16.68559655 13.5625 16.5625 C12.37849609 16.52318359 11.19449219 16.48386719 9.97460938 16.44335938 C8.84990234 16.40146484 7.72519531 16.35957031 6.56640625 16.31640625 C5.52427979 16.27974854 4.48215332 16.24309082 3.40844727 16.20532227 C1 16 1 16 0 15 C-0.07313567 12.46950598 -0.09247527 9.96695163 -0.0625 7.4375 C-0.05798828 6.72658203 -0.05347656 6.01566406 -0.04882812 5.28320312 C-0.03700864 3.52209987 -0.01907263 1.76103964 0 0 Z " fill="#57A9CD" transform="translate(269,55)"/>
<path d="M0 0 C0.33 0 0.66 0 1 0 C1 23.43 1 46.86 1 71 C0.01 70.67 -0.98 70.34 -2 70 C-2 69.34 -2 68.68 -2 68 C-4.31 67.67 -6.62 67.34 -9 67 C-9 66.67 -9 66.34 -9 66 C-6.36 66 -3.72 66 -1 66 C-0.67 44.22 -0.34 22.44 0 0 Z " fill="#A2D2EC" transform="translate(110,90)"/>
<path d="M0 0 C1.24153433 3.724603 0.47452539 4.47752269 -1 8 C-1.83647855 12.15581137 -2.1448362 16.13853425 -2.20532227 20.37255859 C-2.22526749 21.61339203 -2.24521271 22.85422546 -2.26576233 24.13265991 C-2.28274121 25.47125121 -2.29962021 26.80984377 -2.31640625 28.1484375 C-2.33700178 29.52992335 -2.3579989 30.91140327 -2.37937927 32.2928772 C-2.43433178 35.91281298 -2.48385824 39.53280308 -2.53222656 43.15283203 C-2.58263861 46.85323875 -2.63822138 50.55356747 -2.69335938 54.25390625 C-2.80061241 61.50253795 -2.902129 68.75123491 -3 76 C-3.33 76 -3.66 76 -4 76 C-4.02324087 67.66322177 -4.04097471 59.32645723 -4.05181217 50.98965454 C-4.0570154 47.11792857 -4.06406623 43.24622487 -4.07543945 39.37451172 C-4.08635973 35.6332884 -4.09229609 31.89208642 -4.09487724 28.15084839 C-4.09671509 26.72842066 -4.10030377 25.30599401 -4.10573006 23.88357544 C-4.13152352 16.83758416 -4.12337839 9.96572346 -3 3 C-2.01 2.67 -1.02 2.34 0 2 C0 1.34 0 0.68 0 0 Z " fill="#B6DFF2" transform="translate(56,41)"/>
<path d="M0 0 C4.3223257 3.7460156 5.80559235 7.37319729 6.22705078 13.06787109 C6.21657715 14.12570801 6.20610352 15.18354492 6.1953125 16.2734375 C6.18564453 18.00400391 6.18564453 18.00400391 6.17578125 19.76953125 C6.15902344 20.95933594 6.14226562 22.14914063 6.125 23.375 C6.11597656 24.58800781 6.10695312 25.80101563 6.09765625 27.05078125 C6.07416588 30.03405773 6.04131682 33.01692594 6 36 C8.64 36 11.28 36 14 36 C14 36.33 14 36.66 14 37 C10.7 37 7.4 37 4 37 C4 27.43 4 17.86 4 8 C3.34 8 2.68 8 2 8 C0.23537317 4.91190305 0 3.76687864 0 0 Z " fill="#89CAE3" transform="translate(243,9)"/>
<path d="M0 0 C0.99 0.33 1.98 0.66 3 1 C3 3.97 3 6.94 3 10 C3.61488281 10.19335938 4.22976562 10.38671875 4.86328125 10.5859375 C5.67152344 10.84632813 6.47976562 11.10671875 7.3125 11.375 C8.11300781 11.63023437 8.91351563 11.88546875 9.73828125 12.1484375 C12 13 12 13 15 15 C15.34057617 17.70556641 15.34057617 17.70556641 15.29296875 21.1015625 C15.28330078 22.31328125 15.27363281 23.525 15.26367188 24.7734375 C15.23853516 26.04445312 15.21339844 27.31546875 15.1875 28.625 C15.17396484 29.90375 15.16042969 31.1825 15.14648438 32.5 C15.11103196 35.66708282 15.06161441 38.83333541 15 42 C14.67 42 14.34 42 14 42 C13.67 33.09 13.34 24.18 13 15 C10.03 15 7.06 15 4 15 C1 13 1 13 0 10 C-0.06802967 8.27204648 -0.08495645 6.54164635 -0.0625 4.8125 C-0.05347656 3.91144531 -0.04445313 3.01039063 -0.03515625 2.08203125 C-0.02355469 1.39496094 -0.01195313 0.70789063 0 0 Z " fill="#75B8DA" transform="translate(96,154)"/>
<path d="M0 0 C0.33 0 0.66 0 1 0 C1.07636198 6.68937834 1.12873047 13.37864333 1.16479492 20.06835938 C1.17983716 22.34183961 1.20027603 24.61529104 1.22631836 26.88867188 C1.26290221 30.16543711 1.27977248 33.44181706 1.29296875 36.71875 C1.30845261 37.72740112 1.32393646 38.73605225 1.33988953 39.77526855 C1.34133479 45.90088643 0.51756666 50.40153574 -2 56 C-2.33 56 -2.66 56 -3 56 C-3.9765625 49.9453125 -3.9765625 49.9453125 -4 48 C-3.34 47.34 -2.68 46.68 -2 46 C-1.08098686 43.21421208 -0.85625841 40.61111319 -0.79467773 37.69042969 C-0.77473251 36.84986023 -0.75478729 36.00929077 -0.73423767 35.14324951 C-0.71752518 34.24519592 -0.70081268 33.34714233 -0.68359375 32.421875 C-0.66281265 31.4953009 -0.64203156 30.56872681 -0.62062073 29.61407471 C-0.55533039 26.65945728 -0.49633569 23.70475232 -0.4375 20.75 C-0.39429527 18.74478268 -0.35068035 16.73957415 -0.30664062 14.734375 C-0.19967001 9.82300596 -0.09834482 4.91154903 0 0 Z " fill="#2F8EC0" transform="translate(302,224)"/>
<path d="M0 0 C0.66 0.33 1.32 0.66 2 1 C1.67 1.66 1.34 2.32 1 3 C0.34 3 -0.32 3 -1 3 C-1 3.66 -1 4.32 -1 5 C-1.66 5 -2.32 5 -3 5 C-3.144375 6.134375 -3.28875 7.26875 -3.4375 8.4375 C-4 12 -4 12 -5 13 C-5.07258946 15.18639453 -5.08373783 17.37500389 -5.0625 19.5625 C-5.05347656 20.76003906 -5.04445313 21.95757812 -5.03515625 23.19140625 C-5.02355469 24.11824219 -5.01195313 25.04507813 -5 26 C-8.57358224 21.97262954 -8.44421566 18.88805115 -8.28515625 13.6875 C-7.62941236 7.50733839 -4.44156851 4.08144134 0 0 Z " fill="#72B6DC" transform="translate(83,230)"/>
<path d="M0 0 C0.66 0.33 1.32 0.66 2 1 C1.443125 1.226875 0.88625 1.45375 0.3125 1.6875 C-2.20943818 2.97730663 -2.20943818 2.97730663 -4.5 5.5625 C-6.99237287 7.99256355 -7.79846075 8.31395588 -11 9 C-11.33 9.99 -11.66 10.98 -12 12 C-13.63064764 13.05771739 -15.30280873 14.05273046 -17 15 C-18.34631825 15.98244845 -19.68441297 16.97676564 -21 18 C-17.4858715 10.22477848 -10.21587522 5.16730778 -3 1 C-2.01 0.67 -1.02 0.34 0 0 Z " fill="#73B9DB" transform="translate(69,8)"/>
<path d="M0 0 C0.99 0.33 1.98 0.66 3 1 C3 1.66 3 2.32 3 3 C3.61875 3.28875 4.2375 3.5775 4.875 3.875 C7 5 7 5 9 7 C9 7.99 9 8.98 9 10 C10.65 10.33 12.3 10.66 14 11 C14.33 12.32 14.66 13.64 15 15 C8.07907244 12.62711055 3.61824001 8.251087 0 2 C0 1.34 0 0.68 0 0 Z " fill="#58A8D0" transform="translate(40,278)"/>
<path d="M0 0 C0.33 0.99 0.66 1.98 1 3 C1.66 3.33 2.32 3.66 3 4 C1.7260411 6.03833424 0.38938077 8.03852126 -1 10 C-1.66 10 -2.32 10 -3 10 C-3 10.66 -3 11.32 -3 12 C-3.99 12.495 -3.99 12.495 -5 13 C-5.69093896 15.57951874 -5.69093896 15.57951874 -6.125 18.5625 C-6.29257812 19.57441406 -6.46015625 20.58632813 -6.6328125 21.62890625 C-6.75398438 22.41136719 -6.87515625 23.19382812 -7 24 C-7.33 24 -7.66 24 -8 24 C-7.88623383 21.87436897 -7.75864369 19.7494739 -7.625 17.625 C-7.55539063 16.44164063 -7.48578125 15.25828125 -7.4140625 14.0390625 C-7 11 -7 11 -5 9 C-4.01 9 -3.02 9 -2 9 C-2.33 7.68 -2.66 6.36 -3 5 C-2.01 5 -1.02 5 0 5 C0 3.35 0 1.7 0 0 Z " fill="#1185BE" transform="translate(59,31)"/>
<path d="M0 0 C-3.88063626 2.58709084 -8.00411177 4.51181949 -12.1875 6.5625 C-15.09706984 7.98147784 -15.09706984 7.98147784 -18 10 C-18 8.35 -18 6.7 -18 5 C-16.68 5 -15.36 5 -14 5 C-13.67 4.01 -13.34 3.02 -13 2 C-8.56204759 0.5946484 -4.67869431 -0.29241839 0 0 Z " fill="#4DA3CB" transform="translate(84,20)"/>
<path d="M0 0 C1.01006104 0.32145996 2.02012207 0.64291992 3.06079102 0.97412109 C6.74091729 2.02221995 10.19210211 2.31178939 14.02734375 2.4140625 C15.31318359 2.45273437 16.59902344 2.49140625 17.92382812 2.53125 C19.26171418 2.56269499 20.59960489 2.59394259 21.9375 2.625 C23.30275756 2.66324342 24.66799264 2.7022987 26.03320312 2.7421875 C29.3553354 2.83609937 32.67746741 2.92177787 36 3 C36 3.33 36 3.66 36 4 C25.44 4 14.88 4 4 4 C4 3.34 4 2.68 4 2 C3.01 2.33 2.02 2.66 1 3 C0.67 2.01 0.34 1.02 0 0 Z " fill="#2483B4" transform="translate(63,275)"/>
<path d="M0 0 C0.33 0 0.66 0 1 0 C1 7.92 1 15.84 1 24 C0.01 23.67 -0.98 23.34 -2 23 C-2 22.34 -2 21.68 -2 21 C-4.31 20.67 -6.62 20.34 -9 20 C-9 19.67 -9 19.34 -9 19 C-6.36 19 -3.72 19 -1 19 C-0.67 12.73 -0.34 6.46 0 0 Z " fill="#9ACBE5" transform="translate(110,137)"/>
<path d="M0 0 C0.99 0 1.98 0 3 0 C3.05391993 1.79133978 3.09275571 3.58313899 3.125 5.375 C3.14820313 6.37273437 3.17140625 7.37046875 3.1953125 8.3984375 C3 11 3 11 1 13 C-1.3828125 13.1953125 -1.3828125 13.1953125 -4.125 13.125 C-5.49011719 13.09792969 -5.49011719 13.09792969 -6.8828125 13.0703125 C-7.58148438 13.04710938 -8.28015625 13.02390625 -9 13 C-9 12.67 -9 12.34 -9 12 C-7.329375 11.814375 -7.329375 11.814375 -5.625 11.625 C-1.96896323 11.3534187 -1.96896323 11.3534187 0 9 C0.24253813 6.78927023 0.24253813 6.78927023 0.125 4.375 C0.10695312 3.55773437 0.08890625 2.74046875 0.0703125 1.8984375 C0.04710937 1.27195312 0.02390625 0.64546875 0 0 Z " fill="#75BBDB" transform="translate(185,91)"/>
<path d="M0 0 C0.66 0 1.32 0 2 0 C1.91231752 1.5843317 1.80412671 3.16753567 1.6875 4.75 C1.62949219 5.63171875 1.57148438 6.5134375 1.51171875 7.421875 C0.9358819 10.32303774 -0.07596148 11.79225607 -2 14 C-2.9765625 7.9453125 -2.9765625 7.9453125 -3 6 C-2.34 5.34 -1.68 4.68 -1 4 C-0.3574765 1.93125966 -0.3574765 1.93125966 0 0 Z " fill="#4DA2CD" transform="translate(301,266)"/>
<path d="M0 0 C1 2 1 2 0.36328125 4.3125 C0.01652344 5.199375 -0.33023438 6.08625 -0.6875 7 C-1.02136719 7.886875 -1.35523438 8.77375 -1.69921875 9.6875 C-3.17189511 12.3055913 -4.22805571 12.97292169 -7 14 C-6.44010697 10.00987629 -5.24330232 7.4744948 -2.9375 4.1875 C-2.38964844 3.39730469 -1.84179688 2.60710938 -1.27734375 1.79296875 C-0.64505859 0.90544922 -0.64505859 0.90544922 0 0 Z " fill="#67B3D8" transform="translate(47,26)"/>
<path d="M0 0 C1.32 0.33 2.64 0.66 4 1 C2.03030303 7.81818182 2.03030303 7.81818182 -1 10 C-1.99 10 -2.98 10 -4 10 C-3.67 9.01 -3.34 8.02 -3 7 C-2.34 7 -1.68 7 -1 7 C-0.67 4.69 -0.34 2.38 0 0 Z " fill="#4CA1CB" transform="translate(266,252)"/>
<path d="M0 0 C0.99 0.33 1.98 0.66 3 1 C2.98839844 1.62648438 2.97679687 2.25296875 2.96484375 2.8984375 C2.95582031 3.71570313 2.94679687 4.53296875 2.9375 5.375 C2.92589844 6.18710938 2.91429687 6.99921875 2.90234375 7.8359375 C2.85533666 10.04937142 2.85533666 10.04937142 4 12 C2.35 11.67 0.7 11.34 -1 11 C-1.125 3.375 -1.125 3.375 0 0 Z " fill="#45A2CF" transform="translate(146,109)"/>
<path d="M0 0 C4.99275057 1.27721526 7.57611908 3.17330957 11 7 C10.67 7.66 10.34 8.32 10 9 C9.01 8.34 8.02 7.68 7 7 C4.37468476 6.83286431 4.37468476 6.83286431 2 7 C2.33 5.35 2.66 3.7 3 2 C2.01 2 1.02 2 0 2 C0 1.34 0 0.68 0 0 Z " fill="#4CA5CC" transform="translate(258,46)"/>
<path d="M0 0 C3.36591866 1.44253657 5.51047079 3.33264727 8 6 C7.67 6.66 7.34 7.32 7 8 C5.02 8 3.04 8 1 8 C0.67 7.01 0.34 6.02 0 5 C0.66 5 1.32 5 2 5 C1.34 3.35 0.68 1.7 0 0 Z " fill="#409DCE" transform="translate(294,71)"/>
<path d="M0 0 C4.62 0 9.24 0 14 0 C14 0.99 14 1.98 14 3 C10.04 3 6.08 3 2 3 C2 2.34 2 1.68 2 1 C1.34 0.67 0.68 0.34 0 0 Z " fill="#1B87BB" transform="translate(147,108)"/>
<path d="M0 0 C2.00240549 0.31856451 4.00211562 0.65421232 6 1 C7.11375 1.1546875 7.11375 1.1546875 8.25 1.3125 C10 2 10 2 11.25 4.0625 C11.4975 4.701875 11.745 5.34125 12 6 C7.24518354 5.42365861 4.02951788 3.44931479 0 1 C0 0.67 0 0.34 0 0 Z " fill="#55A9D1" transform="translate(159,315)"/>
<path d="M0 0 C1.98 0 3.96 0 6 0 C2.76478258 2.48862878 -0.59260295 4.75421558 -4 7 C-4 5.02 -4 3.04 -4 1 C-2.68 1.33 -1.36 1.66 0 2 C0 1.34 0 0.68 0 0 Z " fill="#54A9D1" transform="translate(62,229)"/>
<path d="M0 0 C1.24752897 3.74258691 0.5279335 4.46162767 -1 8 C-1.68679942 10.32748694 -2.35761043 12.65986656 -3 15 C-4.53166168 10.91556885 -3.63081652 7.20544343 -3 3 C-2.01 2.67 -1.02 2.34 0 2 C0 1.34 0 0.68 0 0 Z " fill="#7CBEDE" transform="translate(56,41)"/>
<path d="M0 0 C6.625 -0.25 6.625 -0.25 10 2 C10 2.99 10 3.98 10 5 C6.08788267 3.84414715 3.1254959 2.64465038 0 0 Z " fill="#4DA7D4" transform="translate(143,307)"/>
<path d="M0 0 C0.33 0 0.66 0 1 0 C1 2.64 1 5.28 1 8 C-1.64 8 -4.28 8 -7 8 C-6.1028125 7.4121875 -6.1028125 7.4121875 -5.1875 6.8125 C-2.7481726 4.79134301 -1.55191429 2.73432518 0 0 Z " fill="#0A80B9" transform="translate(108,148)"/>
<path d="M0 0 C0.33 0.99 0.66 1.98 1 3 C1.66 3.33 2.32 3.66 3 4 C1.02 6.97 1.02 6.97 -1 10 C-3 7 -3 7 -3 5 C-2.01 5 -1.02 5 0 5 C0 3.35 0 1.7 0 0 Z " fill="#4EA8D1" transform="translate(59,31)"/>
<path d="M0 0 C3 0 3 0 6 1 C4 4 4 4 1.375 4.6875 C0.199375 4.8421875 0.199375 4.8421875 -1 5 C-0.67 3.35 -0.34 1.7 0 0 Z " fill="#2E99CF" transform="translate(71,101)"/>
<path d="M0 0 C3.86648272 1.04097612 7.49461443 2.03698408 11 4 C8.69 4 6.38 4 4 4 C4 3.34 4 2.68 4 2 C3.01 2.33 2.02 2.66 1 3 C0.67 2.01 0.34 1.02 0 0 Z " fill="#489EC9" transform="translate(63,275)"/>
<path d="M0 0 C2.31 0.66 4.62 1.32 7 2 C7.33 3.32 7.66 4.64 8 6 C4.08597051 4.73058503 2.20927127 3.48832306 0 0 Z " fill="#6EB5DB" transform="translate(47,287)"/>
<path d="M0 0 C0.66 0 1.32 0 2 0 C1.67 0.99 1.34 1.98 1 3 C-2.0625 4.1875 -2.0625 4.1875 -5 5 C-5.33 4.01 -5.66 3.02 -6 2 C-4.02 2 -2.04 2 0 2 C0 1.34 0 0.68 0 0 Z " fill="#55A5D0" transform="translate(128,314)"/>
<path d="M0 0 C0.66 0.33 1.32 0.66 2 1 C1.67 1.99 1.34 2.98 1 4 C-0.98 4 -2.96 4 -5 4 C-3 1 -3 1 0 0 Z " fill="#4BA2CA" transform="translate(277,275)"/>
</svg>
