<?xml version="1.0" encoding="UTF-8"?>
<svg version="1.1" xmlns="http://www.w3.org/2000/svg" width="500" height="500">
<path d="M0 0 C2.375 0.9375 2.375 0.9375 3.47680664 2.59521484 C4.60845019 5.5462853 4.85657623 8.19996821 5.12109375 11.3515625 C5.23477295 12.65327393 5.34845215 13.95498535 5.46557617 15.29614258 C5.58151021 16.71823788 5.69714344 18.14035774 5.8125 19.5625 C5.93720422 21.03611107 6.06262307 22.50966181 6.1887207 23.9831543 C6.38533861 26.2845272 6.58106516 28.58595185 6.77348328 30.88768005 C7.22341041 36.25578941 7.71707219 41.61846779 8.234375 46.98046875 C12.0511518 86.9090446 12.0511518 86.9090446 9.375 94.9375 C10.20298096 95.02725098 11.03096191 95.11700195 11.8840332 95.20947266 C52.44595349 99.69988721 89.70963531 109.55210669 126.625 127.125 C127.64835449 127.61186279 128.67170898 128.09872559 129.72607422 128.6003418 C159.97468092 143.25828972 176.23171229 164.89548425 187.375 195.9375 C198.40609533 229.32107796 192.55252717 262.82866243 177.375 293.9375 C161.98551334 323.66672233 135.84035801 346.08711867 104.23828125 356.83984375 C95.25116226 359.53525682 84.81291277 362.45861175 75.375 361.9375 C75.43300781 362.96230469 75.49101562 363.98710937 75.55078125 365.04296875 C75.59769957 366.40360011 75.64319752 367.76428096 75.6875 369.125 C75.7503418 370.13530273 75.7503418 370.13530273 75.81445312 371.16601562 C75.91068056 375.11134042 75.53035183 376.74259461 73.04296875 379.86328125 C68.82627672 383.14155865 65.17387958 383.10833407 60.05078125 383.140625 C58.9554306 383.15101051 58.9554306 383.15101051 57.83795166 383.16160583 C55.45441397 383.17900082 53.07109844 383.18520925 50.6875 383.1875 C49.87699188 383.18883942 49.06648376 383.19017883 48.23141479 383.19155884 C34.43072991 383.18660997 20.98860433 382.33595432 7.375 379.9375 C6.64700195 379.8147168 5.91900391 379.69193359 5.16894531 379.56542969 C-4.75023028 377.83849408 -4.75023028 377.83849408 -7.44921875 375.05859375 C-9.30175917 371.71663546 -8.65050335 369.52676171 -7.625 365.9375 C-5.0625 363.71875 -5.0625 363.71875 -2.625 361.9375 C-3.82382812 361.51791016 -3.82382812 361.51791016 -5.046875 361.08984375 C-17.81494827 356.42919728 -27.89176839 350.43250566 -37.625 340.9375 C-38.23859375 340.36257813 -38.8521875 339.78765625 -39.484375 339.1953125 C-42.87768361 335.94209461 -45.86220673 332.47128664 -48.8125 328.8125 C-54.11919998 322.23290915 -59.84520144 316.09829031 -65.625 309.9375 C-66.80108723 308.67997359 -67.97686086 307.42215384 -69.15234375 306.1640625 C-69.74587646 305.52895752 -70.33940918 304.89385254 -70.95092773 304.23950195 C-72.7294724 302.33448729 -74.50547149 300.42712421 -76.28125 298.51953125 C-78.37168416 296.27422797 -80.47496918 294.04276601 -82.59375 291.82421875 C-83.4703125 290.89222656 -84.346875 289.96023438 -85.25 289 C-86.00539063 288.20722656 -86.76078125 287.41445313 -87.5390625 286.59765625 C-92.52192339 280.24310894 -94.31790388 274.05125989 -95.3125 266.125 C-95.42916016 265.29935547 -95.54582031 264.47371094 -95.66601562 263.62304688 C-96.0174046 261.0640616 -96.32891075 258.50344528 -96.625 255.9375 C-96.72216309 255.12168457 -96.81932617 254.30586914 -96.91943359 253.46533203 C-97.83527141 244.80844492 -97.86839177 236.13303625 -97.875 227.4375 C-97.87567474 226.6379187 -97.87634949 225.8383374 -97.87704468 225.01452637 C-97.85051265 205.21022771 -95.21976572 187.34693211 -87.625 168.9375 C-88.46417969 168.751875 -88.46417969 168.751875 -89.3203125 168.5625 C-113.56794131 162.32516783 -137.13862207 141.95692197 -155.2109375 125.1640625 C-157.32586538 123.21340086 -159.4800264 121.34410346 -161.6875 119.5 C-164.625 116.9375 -164.625 116.9375 -166.625 113.9375 C-166.4212271 111.22052802 -165.93710733 109.44033958 -164.5 107.125 C-161.52289702 105.23950145 -159.07522498 105.64603432 -155.625 105.9375 C-153.02734375 107.51953125 -153.02734375 107.51953125 -150.5625 109.75 C-149.13357422 110.99136719 -149.13357422 110.99136719 -147.67578125 112.2578125 C-147.17643066 112.69899414 -146.67708008 113.14017578 -146.16259766 113.59472656 C-130.64663 127.1447142 -113.23076777 138.50884962 -94.90820312 147.85522461 C-89.55259179 150.63920537 -85.65342242 153.42460503 -81.625 157.9375 C-81.24279297 157.35371582 -80.86058594 156.76993164 -80.46679688 156.16845703 C-65.83035519 133.86593683 -65.83035519 133.86593683 -59.625 126.9375 C-58.9340625 126.16535156 -58.243125 125.39320313 -57.53125 124.59765625 C-43.48810714 109.73862656 -21.50060779 99.86238306 -1.625 95.9375 C-2.285 94.9475 -2.945 93.9575 -3.625 92.9375 C-5.86505929 81.46144884 -6.03879455 69.7147798 -6.25 58.0625 C-6.28535283 56.32397364 -6.32075402 54.58544827 -6.35620117 52.84692383 C-6.44265102 48.41703814 -6.51413028 43.98702639 -6.58209229 39.55682373 C-6.62431552 36.97928462 -6.67487683 34.40204195 -6.72802734 31.82470703 C-6.80893326 27.83740998 -6.86841806 23.85038354 -6.91009521 19.86248779 C-6.92827454 18.37822071 -6.95298937 16.89401841 -6.98443604 15.40997314 C-7.02580125 13.36085317 -7.03901832 11.31122244 -7.05078125 9.26171875 C-7.07265503 7.5305481 -7.07265503 7.5305481 -7.0949707 5.7644043 C-6.625 2.9375 -6.625 2.9375 -4.76245117 1.03833008 C-2.625 -0.0625 -2.625 -0.0625 0 0 Z M42.5 365.4375 C41.62085938 365.48519531 40.74171875 365.53289062 39.8359375 365.58203125 C37.68221296 365.6990815 35.52859515 365.81809274 33.375 365.9375 C33.375 366.2675 33.375 366.5975 33.375 366.9375 C36.60414752 366.96667228 39.83326083 366.98435663 43.0625 367 C44.43051758 367.01256836 44.43051758 367.01256836 45.82617188 367.02539062 C47.15551758 367.03022461 47.15551758 367.03022461 48.51171875 367.03515625 C49.32342529 367.04039307 50.13513184 367.04562988 50.97143555 367.05102539 C53.52364673 366.9304791 55.88526137 366.497449 58.375 365.9375 C58.375 365.6075 58.375 365.2775 58.375 364.9375 C53.06664798 364.86788227 47.79745704 365.14231038 42.5 365.4375 Z " fill="#FECF15" transform="translate(203.625,19.0625)"/>
<path d="M0 0 C2.375 0.9375 2.375 0.9375 3.47680664 2.59521484 C4.60845019 5.5462853 4.85657623 8.19996821 5.12109375 11.3515625 C5.23477295 12.65327393 5.34845215 13.95498535 5.46557617 15.29614258 C5.58151021 16.71823788 5.69714344 18.14035774 5.8125 19.5625 C5.93720422 21.03611107 6.06262307 22.50966181 6.1887207 23.9831543 C6.38533861 26.2845272 6.58106516 28.58595185 6.77348328 30.88768005 C7.22341041 36.25578941 7.71707219 41.61846779 8.234375 46.98046875 C12.0511518 86.9090446 12.0511518 86.9090446 9.375 94.9375 C10.20298096 95.02725098 11.03096191 95.11700195 11.8840332 95.20947266 C52.44595349 99.69988721 89.70963531 109.55210669 126.625 127.125 C127.64835449 127.61186279 128.67170898 128.09872559 129.72607422 128.6003418 C159.97468092 143.25828972 176.23171229 164.89548425 187.375 195.9375 C198.40609533 229.32107796 192.55252717 262.82866243 177.375 293.9375 C161.98551334 323.66672233 135.84035801 346.08711867 104.23828125 356.83984375 C95.25116226 359.53525682 84.81291277 362.45861175 75.375 361.9375 C75.43300781 362.96230469 75.49101562 363.98710937 75.55078125 365.04296875 C75.59769957 366.40360011 75.64319752 367.76428096 75.6875 369.125 C75.7503418 370.13530273 75.7503418 370.13530273 75.81445312 371.16601562 C75.91068056 375.11134042 75.53035183 376.74259461 73.04296875 379.86328125 C68.82627672 383.14155865 65.17387958 383.10833407 60.05078125 383.140625 C58.9554306 383.15101051 58.9554306 383.15101051 57.83795166 383.16160583 C55.45441397 383.17900082 53.07109844 383.18520925 50.6875 383.1875 C49.87699188 383.18883942 49.06648376 383.19017883 48.23141479 383.19155884 C34.43072991 383.18660997 20.98860433 382.33595432 7.375 379.9375 C6.64700195 379.8147168 5.91900391 379.69193359 5.16894531 379.56542969 C-4.75023028 377.83849408 -4.75023028 377.83849408 -7.44921875 375.05859375 C-9.30175917 371.71663546 -8.65050335 369.52676171 -7.625 365.9375 C-5.0625 363.71875 -5.0625 363.71875 -2.625 361.9375 C-3.82382812 361.51791016 -3.82382812 361.51791016 -5.046875 361.08984375 C-17.81494827 356.42919728 -27.89176839 350.43250566 -37.625 340.9375 C-38.23859375 340.36257813 -38.8521875 339.78765625 -39.484375 339.1953125 C-42.87768361 335.94209461 -45.86220673 332.47128664 -48.8125 328.8125 C-54.11919998 322.23290915 -59.84520144 316.09829031 -65.625 309.9375 C-66.80108723 308.67997359 -67.97686086 307.42215384 -69.15234375 306.1640625 C-69.74587646 305.52895752 -70.33940918 304.89385254 -70.95092773 304.23950195 C-72.7294724 302.33448729 -74.50547149 300.42712421 -76.28125 298.51953125 C-78.37168416 296.27422797 -80.47496918 294.04276601 -82.59375 291.82421875 C-83.4703125 290.89222656 -84.346875 289.96023438 -85.25 289 C-86.00539063 288.20722656 -86.76078125 287.41445313 -87.5390625 286.59765625 C-92.52192339 280.24310894 -94.31790388 274.05125989 -95.3125 266.125 C-95.42916016 265.29935547 -95.54582031 264.47371094 -95.66601562 263.62304688 C-96.0174046 261.0640616 -96.32891075 258.50344528 -96.625 255.9375 C-96.72216309 255.12168457 -96.81932617 254.30586914 -96.91943359 253.46533203 C-97.83527141 244.80844492 -97.86839177 236.13303625 -97.875 227.4375 C-97.87567474 226.6379187 -97.87634949 225.8383374 -97.87704468 225.01452637 C-97.85051265 205.21022771 -95.21976572 187.34693211 -87.625 168.9375 C-88.46417969 168.751875 -88.46417969 168.751875 -89.3203125 168.5625 C-113.56794131 162.32516783 -137.13862207 141.95692197 -155.2109375 125.1640625 C-157.32586538 123.21340086 -159.4800264 121.34410346 -161.6875 119.5 C-164.625 116.9375 -164.625 116.9375 -166.625 113.9375 C-166.4212271 111.22052802 -165.93710733 109.44033958 -164.5 107.125 C-161.52289702 105.23950145 -159.07522498 105.64603432 -155.625 105.9375 C-153.02734375 107.51953125 -153.02734375 107.51953125 -150.5625 109.75 C-149.13357422 110.99136719 -149.13357422 110.99136719 -147.67578125 112.2578125 C-147.17643066 112.69899414 -146.67708008 113.14017578 -146.16259766 113.59472656 C-130.64663 127.1447142 -113.23076777 138.50884962 -94.90820312 147.85522461 C-89.55259179 150.63920537 -85.65342242 153.42460503 -81.625 157.9375 C-81.24279297 157.35371582 -80.86058594 156.76993164 -80.46679688 156.16845703 C-65.83035519 133.86593683 -65.83035519 133.86593683 -59.625 126.9375 C-58.9340625 126.16535156 -58.243125 125.39320313 -57.53125 124.59765625 C-43.48810714 109.73862656 -21.50060779 99.86238306 -1.625 95.9375 C-2.285 94.9475 -2.945 93.9575 -3.625 92.9375 C-5.86505929 81.46144884 -6.03879455 69.7147798 -6.25 58.0625 C-6.28535283 56.32397364 -6.32075402 54.58544827 -6.35620117 52.84692383 C-6.44265102 48.41703814 -6.51413028 43.98702639 -6.58209229 39.55682373 C-6.62431552 36.97928462 -6.67487683 34.40204195 -6.72802734 31.82470703 C-6.80893326 27.83740998 -6.86841806 23.85038354 -6.91009521 19.86248779 C-6.92827454 18.37822071 -6.95298937 16.89401841 -6.98443604 15.40997314 C-7.02580125 13.36085317 -7.03901832 11.31122244 -7.05078125 9.26171875 C-7.07265503 7.5305481 -7.07265503 7.5305481 -7.0949707 5.7644043 C-6.625 2.9375 -6.625 2.9375 -4.76245117 1.03833008 C-2.625 -0.0625 -2.625 -0.0625 0 0 Z M-29.625 165.9375 C-31.1409375 167.0821875 -31.1409375 167.0821875 -32.6875 168.25 C-44.08628107 178.67867204 -52.52293501 192.4236712 -57.625 206.9375 C-57.9446875 207.83339844 -58.264375 208.72929687 -58.59375 209.65234375 C-63.32283054 225.26268832 -61.76173834 243.4538173 -54.9375 258.125 C-48.2140693 270.67980917 -38.15815132 279.57852413 -26.98046875 288.125 C-22.43755344 291.62070929 -18.00093761 295.23529669 -13.625 298.9375 C-12.985625 299.47761719 -12.34625 300.01773438 -11.6875 300.57421875 C-0.75158305 310.62412391 8.71307624 327.93161517 9.60546875 342.76953125 C9.59128906 344.08308594 9.57710938 345.39664063 9.5625 346.75 C9.55605469 347.44416016 9.54960937 348.13832031 9.54296875 348.85351562 C9.46265705 354.25949715 9.05817686 359.57867502 8.375 364.9375 C19.10450837 367.3665643 29.69955819 367.1679157 40.625 367.0625 C42.44921382 367.05244655 44.27343302 367.0433249 46.09765625 367.03515625 C50.52357279 367.01333828 54.94922547 366.97893984 59.375 366.9375 C59.42833496 365.72658691 59.48166992 364.51567383 59.53662109 363.26806641 C59.61523397 361.65004924 59.69419113 360.03204877 59.7734375 358.4140625 C59.80751709 357.61943604 59.84159668 356.82480957 59.87670898 356.00610352 C61.03537877 333.12530109 72.56692574 312.03204678 88.375 295.9375 C89.12652344 295.16148437 89.87804687 294.38546875 90.65234375 293.5859375 C98.82807596 285.65560641 108.37566598 279.78607016 117.87646484 273.58447266 C134.86923447 262.38325867 149.96501592 250.74895613 160.375 232.9375 C160.76558594 232.27105469 161.15617188 231.60460937 161.55859375 230.91796875 C169.07821203 217.01984158 170.40746283 202.22717135 166.4140625 187 C163.45007253 178.26402957 158.34405284 170.89031656 152.375 163.9375 C151.88902344 163.35613281 151.40304687 162.77476562 150.90234375 162.17578125 C135.24036378 144.99166512 109.88131506 137.04122015 87.3125 135.125 C85.00101712 135.0322132 82.6880818 134.97235807 80.375 134.9375 C79.64522949 134.91848633 78.91545898 134.89947266 78.16357422 134.87988281 C40.878745 133.94909723 -0.73169036 140.50005681 -29.625 165.9375 Z " fill="#080603" transform="translate(203.625,19.0625)"/>
<path d="M0 0 C2.375 0.9375 2.375 0.9375 3.47680664 2.59521484 C4.60845019 5.5462853 4.85657623 8.19996821 5.12109375 11.3515625 C5.23477295 12.65327393 5.34845215 13.95498535 5.46557617 15.29614258 C5.58151021 16.71823788 5.69714344 18.14035774 5.8125 19.5625 C5.93720422 21.03611107 6.06262307 22.50966181 6.1887207 23.9831543 C6.38533861 26.2845272 6.58106516 28.58595185 6.77348328 30.88768005 C7.22341041 36.25578941 7.71707219 41.61846779 8.234375 46.98046875 C12.0511518 86.9090446 12.0511518 86.9090446 9.375 94.9375 C10.20298096 95.02725098 11.03096191 95.11700195 11.8840332 95.20947266 C52.19530191 99.67213879 89.72230338 109.302712 126.375 126.9375 C122.40005925 128.26248025 119.8700225 126.9627991 116.0625 125.6875 C73.26600802 112.3930738 21.35592011 119.6029654 -18.25 139.55859375 C-44.51711036 153.44280151 -64.26660043 177.02890981 -73.06494141 205.33081055 C-79.17648456 225.81503501 -76.75594738 248.78630746 -66.73046875 267.5546875 C-59.3555724 279.40377885 -49.52151387 288.03153192 -38.234375 296.07421875 C-22.60000781 307.25733338 -8.96905195 318.90475261 0.375 335.9375 C0.77332031 336.61554688 1.17164063 337.29359375 1.58203125 337.9921875 C4.86424421 344.73646071 3.78189948 353.66025924 3.375 360.9375 C3.045 361.5975 2.715 362.2575 2.375 362.9375 C-13.20212944 360.24090669 -26.48957986 351.80037489 -37.625 340.9375 C-38.23859375 340.36257813 -38.8521875 339.78765625 -39.484375 339.1953125 C-42.87768361 335.94209461 -45.86220673 332.47128664 -48.8125 328.8125 C-54.11919998 322.23290915 -59.84520144 316.09829031 -65.625 309.9375 C-66.80108723 308.67997359 -67.97686086 307.42215384 -69.15234375 306.1640625 C-69.74587646 305.52895752 -70.33940918 304.89385254 -70.95092773 304.23950195 C-72.7294724 302.33448729 -74.50547149 300.42712421 -76.28125 298.51953125 C-78.37168416 296.27422797 -80.47496918 294.04276601 -82.59375 291.82421875 C-83.4703125 290.89222656 -84.346875 289.96023438 -85.25 289 C-86.00539063 288.20722656 -86.76078125 287.41445313 -87.5390625 286.59765625 C-92.52192339 280.24310894 -94.31790388 274.05125989 -95.3125 266.125 C-95.42916016 265.29935547 -95.54582031 264.47371094 -95.66601562 263.62304688 C-96.0174046 261.0640616 -96.32891075 258.50344528 -96.625 255.9375 C-96.72216309 255.12168457 -96.81932617 254.30586914 -96.91943359 253.46533203 C-97.83527141 244.80844492 -97.86839177 236.13303625 -97.875 227.4375 C-97.87567474 226.6379187 -97.87634949 225.8383374 -97.87704468 225.01452637 C-97.85051265 205.21022771 -95.21976572 187.34693211 -87.625 168.9375 C-88.46417969 168.751875 -88.46417969 168.751875 -89.3203125 168.5625 C-113.56794131 162.32516783 -137.13862207 141.95692197 -155.2109375 125.1640625 C-157.32586538 123.21340086 -159.4800264 121.34410346 -161.6875 119.5 C-164.625 116.9375 -164.625 116.9375 -166.625 113.9375 C-166.4212271 111.22052802 -165.93710733 109.44033958 -164.5 107.125 C-161.52289702 105.23950145 -159.07522498 105.64603432 -155.625 105.9375 C-153.02734375 107.51953125 -153.02734375 107.51953125 -150.5625 109.75 C-149.13357422 110.99136719 -149.13357422 110.99136719 -147.67578125 112.2578125 C-147.17643066 112.69899414 -146.67708008 113.14017578 -146.16259766 113.59472656 C-130.64663 127.1447142 -113.23076777 138.50884962 -94.90820312 147.85522461 C-89.55259179 150.63920537 -85.65342242 153.42460503 -81.625 157.9375 C-81.24279297 157.35371582 -80.86058594 156.76993164 -80.46679688 156.16845703 C-65.83035519 133.86593683 -65.83035519 133.86593683 -59.625 126.9375 C-58.9340625 126.16535156 -58.243125 125.39320313 -57.53125 124.59765625 C-43.48810714 109.73862656 -21.50060779 99.86238306 -1.625 95.9375 C-2.285 94.9475 -2.945 93.9575 -3.625 92.9375 C-5.86505929 81.46144884 -6.03879455 69.7147798 -6.25 58.0625 C-6.28535283 56.32397364 -6.32075402 54.58544827 -6.35620117 52.84692383 C-6.44265102 48.41703814 -6.51413028 43.98702639 -6.58209229 39.55682373 C-6.62431552 36.97928462 -6.67487683 34.40204195 -6.72802734 31.82470703 C-6.80893326 27.83740998 -6.86841806 23.85038354 -6.91009521 19.86248779 C-6.92827454 18.37822071 -6.95298937 16.89401841 -6.98443604 15.40997314 C-7.02580125 13.36085317 -7.03901832 11.31122244 -7.05078125 9.26171875 C-7.07265503 7.5305481 -7.07265503 7.5305481 -7.0949707 5.7644043 C-6.625 2.9375 -6.625 2.9375 -4.76245117 1.03833008 C-2.625 -0.0625 -2.625 -0.0625 0 0 Z " fill="#FDD017" transform="translate(203.625,19.0625)"/>
<path d="M0 0 C9.09940073 9.09940073 10.09548514 30.76211029 10.375 43 C9.49432759 81.67300594 -7.64902804 116.81898389 -35.109375 143.4140625 C-53.60860305 160.80407024 -80.52547945 173.23285455 -106.08984375 174.10546875 C-106.72019531 174.07066406 -107.35054688 174.03585937 -108 174 C-108.495 174.99 -108.495 174.99 -109 176 C-108.92787719 153.5698056 -99.13167366 134.64204844 -83.9375 118.5625 C-75.35139499 110.19768635 -65.1659086 103.65157561 -55.06860352 97.2734375 C-45.28695812 91.0567016 -36.43343336 83.9305881 -28 76 C-27.00419922 75.11828125 -27.00419922 75.11828125 -25.98828125 74.21875 C-15.344532 64.37382169 -7.91118384 51.51858967 -3 38 C-2.46052734 36.53433594 -2.46052734 36.53433594 -1.91015625 35.0390625 C0.35989223 27.45924396 0.12041619 19.89900591 0.0625 12.0625 C0.05798828 10.90169922 0.05347656 9.74089844 0.04882812 8.54492188 C0.03710647 5.69656066 0.0206976 2.84830778 0 0 Z " fill="#FDD017" transform="translate(387,207)"/>
<path d="M0 0 C3.48818693 0.71187488 4.88557469 1.86624691 6.9609375 4.73828125 C11.66901306 12.80211279 12.3426729 21.70971831 10.3828125 30.765625 C9.85993958 32.6678865 9.30812318 34.56259262 8.71875 36.4453125 C7.96640255 38.56479162 7.96640255 38.56479162 8.0625 40.625 C8.7225 39.965 9.3825 39.305 10.0625 38.625 C13.89774097 36.06817269 16.57758352 35.8714614 21.0625 36.625 C23.93722735 37.87488145 25.50351438 38.87968584 27.375 41.375 C28.80714771 46.06202887 28.6732817 49.47130123 26.375 53.8125 C22.50803434 58.51556634 19.02166256 61.16561325 13.0625 62.625 C9.6875 62.75 9.6875 62.75 7.0625 62.625 C6.90974609 63.22763672 6.75699219 63.83027344 6.59960938 64.45117188 C4.12390168 73.8867564 0.95874013 83.06931607 -2.17626953 92.30029297 C-4.77004153 99.9504535 -7.32030845 107.56211837 -9.31591797 115.39599609 C-11.48428007 123.17178007 -11.48428007 123.17178007 -13.9375 125.625 C-15.93708364 125.66580783 -17.93795254 125.66754356 -19.9375 125.625 C-20.2675 124.635 -20.5975 123.645 -20.9375 122.625 C-21.5975 122.625 -22.2575 122.625 -22.9375 122.625 C-22.9375 123.285 -22.9375 123.945 -22.9375 124.625 C-24.60361905 124.667721 -26.27132885 124.66563832 -27.9375 124.625 C-28.4325 124.13 -28.4325 124.13 -28.9375 123.625 C-28.73627661 116.24164935 -27.18515161 108.88473052 -25.9375 101.625 C-24.21020716 91.28048639 -23.20516206 81.10396973 -22.9375 70.625 C-23.63875 70.67140625 -24.34 70.7178125 -25.0625 70.765625 C-31.63171282 71.01554071 -36.58201614 70.6474595 -41.9375 66.625 C-47.1705461 61.59761947 -49.0885672 57.78421853 -49.3125 50.4375 C-49.25704262 44.21240873 -48.24526524 40.17956429 -43.9375 35.625 C-38.66155934 31.50976628 -34.6386262 30.05710795 -27.9375 30.625 C-19.73055542 34.89261118 -16.21887512 41.37573293 -12.9375 49.625 C-11.07033954 46.46465803 -10.85092856 45.9651021 -11.8125 42.1875 C-12.01101562 41.49269531 -12.20953125 40.79789062 -12.4140625 40.08203125 C-14.68699442 29.41282095 -13.4208145 15.81614324 -8 6.25 C-5.66857236 2.68428714 -4.25204564 0.90469056 0 0 Z " fill="#090502" transform="translate(254.9375,244.375)"/>
<path d="M0 0 C6.76306336 -0.08675115 13.8867479 0.24855065 19.3527832 4.67700195 C22.92971866 8.67424877 24.12656105 11.80455611 24.66918945 17.12231445 C24.01440751 25.37256696 21.03427716 32.49046669 15.2668457 38.46606445 C10.20544832 42.68907086 4.4331603 43.70593972 -2.0534668 43.46606445 C-8.40154802 42.47028701 -13.94011668 39.67566578 -17.76831055 34.43481445 C-20.38036604 29.57989859 -20.43612144 24.43423775 -19.64331055 19.05981445 C-18.6159668 16.73168945 -18.6159668 16.73168945 -17.64331055 15.05981445 C-18.47733398 15.02243164 -19.31135742 14.98504883 -20.1706543 14.9465332 C-34.21446983 14.12610412 -34.21446983 14.12610412 -39.64331055 11.05981445 C-41.33081055 8.55981445 -41.33081055 8.55981445 -41.64331055 6.05981445 C-39.64331055 3.05981445 -39.64331055 3.05981445 -37.73730469 2.35131836 C-30.52378757 1.01303381 -23.40702904 0.6296391 -16.08081055 0.43481445 C-14.91356445 0.39614258 -13.74631836 0.3574707 -12.54370117 0.31762695 C-8.36287783 0.18572492 -4.18177556 0.09462778 0 0 Z M4.35668945 18.05981445 C2.37668945 19.37981445 0.39668945 20.69981445 -1.64331055 22.05981445 C0.19369734 22.83223714 0.19369734 22.83223714 2.35668945 23.05981445 C4.12859854 21.70537145 4.12859854 21.70537145 5.35668945 20.05981445 C5.02668945 19.39981445 4.69668945 18.73981445 4.35668945 18.05981445 Z " fill="#0C0C0C" transform="translate(236.643310546875,434.940185546875)"/>
<path d="M0 0 C2.59765625 1.58203125 2.59765625 1.58203125 5.0625 3.8125 C6.49142578 5.05386719 6.49142578 5.05386719 7.94921875 6.3203125 C8.44856934 6.76149414 8.94791992 7.20267578 9.46240234 7.65722656 C25.01514958 21.23933355 42.4745931 32.57410514 60.8046875 42.00561523 C65.61457571 44.51448218 69.5871293 46.72691803 73 51 C73.81484176 56.90760276 73.81484176 56.90760276 71.75 59.67578125 C68.86160993 61.8614157 66.29843292 61.59342925 62.77734375 61.45703125 C57.49073529 60.58708302 53.47364631 57.83048238 49 55 C47.54764192 54.11592636 46.09445216 53.2332182 44.640625 52.3515625 C29.07153437 42.81179613 14.73472589 32.01115245 1 20 C-0.46373047 18.72189453 -0.46373047 18.72189453 -1.95703125 17.41796875 C-8.70532596 11.44201106 -8.70532596 11.44201106 -11 8 C-10.7962271 5.28302802 -10.31210733 3.50283958 -8.875 1.1875 C-5.89789702 -0.69799855 -3.45022498 -0.29146568 0 0 Z " fill="#101010" transform="translate(48,125)"/>
<path d="M0 0 C1.07894531 0.10054687 1.07894531 0.10054687 2.1796875 0.203125 C4.61455947 0.88762716 5.59733897 1.74904521 7.125 3.75 C7.625 7.1875 7.625 7.1875 7.125 10.75 C2.74892865 15.70511766 -3.38878861 16.35279275 -9.5625 17.6875 C-11.83506928 18.21035739 -14.10720397 18.73510719 -16.37890625 19.26171875 C-17.49152832 19.51614746 -18.60415039 19.77057617 -19.75048828 20.03271484 C-38.05120643 24.233958 -55.06006886 30.8505809 -71.5859375 39.83203125 C-74.23629965 40.89488979 -76.04499399 41.1019908 -78.875 40.75 C-81.1875 38.25 -81.1875 38.25 -82.875 35.75 C-79.72483041 25.85676469 -67.01851728 20.9121532 -58.34008789 16.40283203 C-41.52184641 7.91242012 -19.3212897 -2.12321865 0 0 Z " fill="#101010" transform="translate(488.875,197.25)"/>
<path d="M0 0 C3.27155869 2.36665948 4.70646942 3.89926032 5.75 7.8125 C4.31110517 13.92780304 -0.63264623 17.70342679 -5.0546875 21.921875 C-18.65408156 34.99078226 -29.43630758 49.91484983 -39.23291016 65.99682617 C-39.68714355 66.7416626 -40.14137695 67.48649902 -40.609375 68.25390625 C-41.00092773 68.90689697 -41.39248047 69.5598877 -41.79589844 70.23266602 C-43.06455553 72.09475213 -44.25351832 73.57148887 -46 75 C-49.1050032 74.87062487 -51.24484734 74.43847574 -53.9375 72.875 C-55.67485832 69.80907356 -54.69352536 67.37880091 -54 64 C-52.97303164 61.3371559 -51.70339875 58.83636488 -50.375 56.3125 C-50.015271 55.61479492 -49.65554199 54.91708984 -49.28491211 54.19824219 C-42.06475575 40.32053905 -33.83112421 27.90803006 -23.1953125 16.3828125 C-21.02061396 14.02237458 -18.9162172 11.61117419 -16.8125 9.1875 C-7.3679497 -1.33962722 -7.3679497 -1.33962722 0 0 Z " fill="#0F0F0F" transform="translate(382,46)"/>
<path d="M0 0 C1.08796875 -0.03738281 2.1759375 -0.07476562 3.296875 -0.11328125 C6.25 0.3125 6.25 0.3125 8.640625 2.109375 C10.25 4.3125 10.25 4.3125 10.25 7.875 C9.10914313 11.79669549 8.67420741 12.3210385 5.25 14.3125 C2.66793305 15.08156411 0.19147225 15.70746754 -2.4375 16.25 C-3.21859131 16.41910889 -3.99968262 16.58821777 -4.80444336 16.76245117 C-10.40427626 17.93458505 -16.02404329 18.82889427 -21.68286133 19.66259766 C-38.1479618 22.09530694 -54.0766877 26.14149311 -69.75830078 31.74047852 C-73.2506729 32.74349738 -76.13294287 32.68667832 -79.75 32.3125 C-81.75 31.125 -81.75 31.125 -82.75 29.3125 C-83.25 26.875 -83.25 26.875 -82.75 24.3125 C-73.78822437 16.01721798 -59.94972567 12.90227907 -48.5 9.6875 C-47.13400657 9.29761934 -45.76804004 8.90764442 -44.40209961 8.51757812 C-29.85724464 4.39560971 -15.20499144 0.34556799 0 0 Z " fill="#101010" transform="translate(87.75,247.6875)"/>
<path d="M0 0 C4.49007704 0.42893012 7.56272242 1.95718901 11.34375 4.2421875 C12.04242188 4.65001465 12.74109375 5.0578418 13.4609375 5.47802734 C18.64074226 8.54126477 23.66237237 11.82205983 28.63256836 15.21240234 C34.61363121 19.2768432 40.75620898 23.06499024 46.90625 26.8671875 C71.82341357 42.32651464 71.82341357 42.32651464 73.84375 46.3671875 C74.12538537 49.60599431 74.15184145 51.73388841 72.71875 54.6796875 C70.10707522 57.0301948 68.3367269 57.16367279 64.84375 57.3671875 C61.72265625 56.1015625 61.72265625 56.1015625 58.40625 54.1171875 C57.79773193 53.75367188 57.18921387 53.39015625 56.56225586 53.015625 C51.53997541 49.94834779 46.79605552 46.53716803 42.09301758 43.00561523 C35.26826677 37.88248955 28.24956382 33.04766972 21.22680664 28.20117188 C2.27150738 15.09464413 2.27150738 15.09464413 -6.15625 7.3671875 C-5.42425366 2.73121068 -5.08527758 0.59160407 0 0 Z " fill="#111111" transform="translate(378.15625,342.6328125)"/>
<path d="M0 0 C2.375 0.9375 2.375 0.9375 3.47680664 2.59521484 C4.60845019 5.5462853 4.85657623 8.19996821 5.12109375 11.3515625 C5.23477295 12.65327393 5.34845215 13.95498535 5.46557617 15.29614258 C5.58151021 16.71823788 5.69714344 18.14035774 5.8125 19.5625 C5.93720422 21.03611107 6.06262307 22.50966181 6.1887207 23.9831543 C6.38533861 26.2845272 6.58106516 28.58595185 6.77348328 30.88768005 C7.22341041 36.25578941 7.71707219 41.61846779 8.234375 46.98046875 C12.0511518 86.9090446 12.0511518 86.9090446 9.375 94.9375 C6.67085415 97.01761219 5.21355664 96.92914948 1.75 96.75 C-1.625 95.9375 -1.625 95.9375 -3.625 92.9375 C-5.86505929 81.46144884 -6.03879455 69.7147798 -6.25 58.0625 C-6.28535283 56.32397364 -6.32075402 54.58544827 -6.35620117 52.84692383 C-6.44265102 48.41703814 -6.51413028 43.98702639 -6.58209229 39.55682373 C-6.62431552 36.97928462 -6.67487683 34.40204195 -6.72802734 31.82470703 C-6.80893326 27.83740998 -6.86841806 23.85038354 -6.91009521 19.86248779 C-6.92827454 18.37822071 -6.95298937 16.89401841 -6.98443604 15.40997314 C-7.02580125 13.36085317 -7.03901832 11.31122244 -7.05078125 9.26171875 C-7.06536377 8.10760498 -7.07994629 6.95349121 -7.0949707 5.7644043 C-6.625 2.9375 -6.625 2.9375 -4.76245117 1.03833008 C-2.625 -0.0625 -2.625 -0.0625 0 0 Z " fill="#121212" transform="translate(203.625,19.0625)"/>
<path d="M0 0 C2.84765625 0.93359375 2.84765625 0.93359375 4.84765625 3.93359375 C5.47620933 7.99936955 5.1309229 9.52590157 2.7578125 12.94140625 C1.82166776 13.99226311 0.87156196 15.03079699 -0.08984375 16.05859375 C-1.11450306 17.21260768 -2.13660069 18.36890077 -3.15625 19.52734375 C-3.66687988 20.10226562 -4.17750977 20.6771875 -4.70361328 21.26953125 C-16.32936237 34.62327337 -25.99993145 50.19031999 -35.25 65.24609375 C-37.06579811 67.81132805 -38.43249781 69.38785953 -41.15234375 70.93359375 C-45.01133522 70.86468319 -47.36611113 70.45774883 -50.58984375 68.30859375 C-52.81920329 64.91996725 -52.6007463 62.95698756 -52.15234375 58.93359375 C-50.70602159 55.99726732 -48.81515045 53.47258529 -46.83984375 50.87109375 C-46.29730957 50.1322998 -45.75477539 49.39350586 -45.19580078 48.63232422 C-43.53394152 46.38415367 -41.84739177 44.15681253 -40.15234375 41.93359375 C-39.66169434 41.28310059 -39.17104492 40.63260742 -38.66552734 39.96240234 C-33.23915034 32.78934554 -27.54267482 25.97983226 -21.421875 19.38671875 C-19.42764921 17.23117004 -17.49950972 15.0387324 -15.58984375 12.80859375 C-14.44807515 11.51333267 -13.30197233 10.22188367 -12.15234375 8.93359375 C-11.42015625 8.09957031 -10.68796875 7.26554687 -9.93359375 6.40625 C-9.16015625 5.56964844 -8.38671875 4.73304688 -7.58984375 3.87109375 C-6.53603516 2.70900391 -6.53603516 2.70900391 -5.4609375 1.5234375 C-3.15234375 -0.06640625 -3.15234375 -0.06640625 0 0 Z " fill="#101010" transform="translate(103.15234375,335.06640625)"/>
<path d="M0 0 C1.21558594 -0.01224609 2.43117187 -0.02449219 3.68359375 -0.03710938 C24.74703551 -0.07082887 24.74703551 -0.07082887 31.5 4.1875 C33.6678379 7.47663337 34.5302769 9.41543904 34.375 13.375 C33.43487134 16.39684213 33.03202263 17.36909544 30.5 19.1875 C27.48046875 19.55078125 27.48046875 19.55078125 23.6875 19.5 C22.98447754 19.490896 22.28145508 19.48179199 21.55712891 19.47241211 C14.89202475 19.32312878 8.28697199 18.65336497 1.65917969 17.9699707 C-8.04644889 17.02151899 -17.76540485 16.79039217 -27.51025391 16.61743164 C-28.73534668 16.5889917 -29.96043945 16.56055176 -31.22265625 16.53125 C-32.31328369 16.51255859 -33.40391113 16.49386719 -34.52758789 16.47460938 C-37.54070215 16.18356852 -39.76731313 15.45619095 -42.5 14.1875 C-42.83 11.8775 -43.16 9.5675 -43.5 7.1875 C-32.00692655 -1.88597904 -13.85176952 0.00734452 0 0 Z " fill="#0E0E0E" transform="translate(238.5,410.8125)"/>
<path d="M0 0 C5.13096461 0.72548475 9.73223557 2.75109811 14.5 4.6875 C15.82499512 5.22117188 15.82499512 5.22117188 17.17675781 5.765625 C24.22380722 8.62856899 31.14627821 11.69820702 38 15 C34.02505925 16.32498025 31.4950225 15.0252991 27.6875 13.75 C3.23095592 6.15274833 -22.23294371 7.01513568 -47.41650391 9.72998047 C-51.93969467 10.20273127 -56.46998963 10.5987844 -61 11 C-61 10.34 -61 9.68 -61 9 C-45.87534459 6.25862973 -31.10108903 5.47361457 -15.75 5.3125 C-13.52862712 5.27922161 -11.30727217 5.24472286 -9.0859375 5.20898438 C-3.7240826 5.12531231 1.63779316 5.05648052 7 5 C6.01 4.67 5.02 4.34 4 4 C4 3.34 4 2.68 4 2 C2.68 1.67 1.36 1.34 0 1 C0 0.67 0 0.34 0 0 Z " fill="#F5CD2F" transform="translate(292,131)"/>
<path d="M0 0 C0.33 0 0.66 0 1 0 C0.99476318 1.14662109 0.98952637 2.29324219 0.98413086 3.47460938 C-1.52704635 42.7233195 -1.52704635 42.7233195 5.06640625 80.61328125 C6 83 6 83 6 86 C7.98 85.01 7.98 85.01 10 84 C10.93423645 87.01031744 11.04449911 87.86650268 10 91 C10.66 91 11.32 91 12 91 C11.67 92.32 11.34 93.64 11 95 C10.05620115 93.79658011 9.12030298 92.58696299 8.1875 91.375 C7.66542969 90.70210938 7.14335938 90.02921875 6.60546875 89.3359375 C2.5813183 83.48084756 1.29354201 78.22766005 0.375 71.3125 C0.25382812 70.47783203 0.13265625 69.64316406 0.0078125 68.78320312 C-0.3581417 66.19169049 -0.68746509 63.59847679 -1 61 C-1.09933838 60.18490967 -1.19867676 59.36981934 -1.30102539 58.5300293 C-2.15229616 50.54908058 -2.18613156 42.57557508 -2.18530273 34.55834961 C-2.18748644 32.20212647 -2.20570132 29.84637506 -2.22460938 27.49023438 C-2.25808741 18.12925953 -1.64331815 9.24075506 0 0 Z " fill="#F8D84D" transform="translate(108,214)"/>
<path d="M0 0 C0.33 0.99 0.66 1.98 1 3 C0.01 3.495 0.01 3.495 -1 4 C-0.67 2.68 -0.34 1.36 0 0 Z M4 -3 C4.66 -2.67 5.32 -2.34 6 -2 C6.02690104 0.79173055 6.04679053 3.58320348 6.0625 6.375 C6.07087891 7.1690625 6.07925781 7.963125 6.08789062 8.78125 C6.11328125 14.7734375 6.11328125 14.7734375 5 17 C-5.19517323 15.24741015 -14.42327641 10.63392001 -23 5 C-21.68 4.67 -20.36 4.34 -19 4 C-19 4.66 -19 5.32 -19 6 C-18.21625 6 -17.4325 6 -16.625 6 C-13.94830012 6 -11.30130401 6.02587763 -8.625 6.125 C-5.29438493 6.0101512 -3.73919885 5.75308727 -1 4 C-0.01 5.485 -0.01 5.485 1 7 C0.34 7 -0.32 7 -1 7 C-1 7.66 -1 8.32 -1 9 C0.32 8.67 1.64 8.34 3 8 C3.33 4.37 3.66 0.74 4 -3 Z " fill="#F7CE1E" transform="translate(201,365)"/>
<path d="M0 0 C0.66 0.66 1.32 1.32 2 2 C0.61777212 5.93458973 -0.76989519 9.86720504 -2.16259766 13.7980957 C-2.63544644 15.13513317 -3.10681445 16.47269529 -3.57666016 17.81079102 C-4.25292979 19.73594336 -4.93453212 21.65913547 -5.6171875 23.58203125 C-6.22989502 25.31803589 -6.22989502 25.31803589 -6.85498047 27.08911133 C-8 30 -8 30 -10 33 C-10.09418536 28.99824879 -10.08704242 25.00264545 -10.0625 21 C-10.09021484 19.87464844 -10.11792969 18.74929688 -10.14648438 17.58984375 C-10.0250454 9.28341763 -10.0250454 9.28341763 -6.92529297 5.40234375 C-4.6997407 3.42407507 -2.47276501 1.65538661 0 0 Z " fill="#F4CC23" transform="translate(252,302)"/>
<path d="M0 0 C0.33 0.66 0.66 1.32 1 2 C-0.625 4 -0.625 4 -3 6 C-6.25 6.25 -6.25 6.25 -9 6 C-9.33 8.97 -9.66 11.94 -10 15 C-12.31 15 -14.62 15 -17 15 C-17.19335938 15.77085937 -17.38671875 16.54171875 -17.5859375 17.3359375 C-17.84632813 18.33882813 -18.10671875 19.34171875 -18.375 20.375 C-18.63023437 21.37273437 -18.88546875 22.37046875 -19.1484375 23.3984375 C-20 26 -20 26 -22 28 C-24.10371359 21.68885922 -19.99832503 13.74014798 -17.25390625 7.9453125 C-16 6 -16 6 -13 4.1875 C-9.8125 3.5 -9.8125 3.5 -6.76953125 3.28125 C-3.61416162 2.96081754 -2.32658355 2.08781722 0 0 Z " fill="#FDCF1B" transform="translate(278,301)"/>
<path d="M0 0 C2.6875 0.4375 2.6875 0.4375 4.9375 3.0625 C6.63317069 6.33272205 7.34083299 8.79749644 7.6875 12.4375 C0.47596154 12.91826923 0.47596154 12.91826923 -2.875 10.875 C-4.90732809 7.42887846 -4.24299733 5.23106604 -3.3125 1.4375 C-2.3125 0.4375 -2.3125 0.4375 0 0 Z " fill="#EEC726" transform="translate(223.3125,289.5625)"/>
<path d="M0 0 C1.2497375 3.33263332 0.75454552 6.08054679 0.265625 9.53515625 C-0.59731763 17.54275622 -0.34786081 25.21981166 1.85546875 32.9765625 C2 35 2 35 0.55078125 36.7734375 C0.03902344 37.17820312 -0.47273437 37.58296875 -1 38 C-1.56267578 36.80503906 -1.56267578 36.80503906 -2.13671875 35.5859375 C-4.93739908 29.78704774 -7.56807167 24.69262999 -12 20 C-9.1875 20.0625 -9.1875 20.0625 -6 21 C-4.30078125 24.55859375 -4.30078125 24.55859375 -3 28 C-2.98018066 27.25838623 -2.96036133 26.51677246 -2.93994141 25.75268555 C-2.84477072 22.39726166 -2.73505906 19.04246714 -2.625 15.6875 C-2.5940625 14.52025391 -2.563125 13.35300781 -2.53125 12.15039062 C-2.49257812 11.03212891 -2.45390625 9.91386719 -2.4140625 8.76171875 C-2.3826416 7.73006592 -2.3512207 6.69841309 -2.31884766 5.63549805 C-2 3 -2 3 0 0 Z " fill="#EDC834" transform="translate(243,257)"/>
<path d="M0 0 C0.33 0 0.66 0 1 0 C1 3.3 1 6.6 1 10 C-0.99954746 10.04254356 -3.00041636 10.04080783 -5 10 C-5.495 9.505 -5.495 9.505 -6 9 C-8.92721146 9.09335757 -11.82898464 9.24495138 -14.75 9.4375 C-26.80071572 10.13604331 -38.09830797 10.4017829 -50 8 C-49.67 7.34 -49.34 6.68 -49 6 C-48.12529053 6.0714624 -47.25058105 6.1429248 -46.34936523 6.21655273 C-36.23731455 6.97474133 -26.19931448 7.12004002 -16.0625 7.0625 C-14.49284 7.05746644 -12.9231784 7.05290687 -11.35351562 7.04882812 C-7.56896983 7.03798912 -3.78450344 7.02083095 0 7 C0 4.69 0 2.38 0 0 Z " fill="#E3CE7F" transform="translate(262,376)"/>
<path d="M0 0 C0 0.33 0 0.66 0 1 C-7.62377169 1.36303675 -13.43532135 0.1337396 -20.33984375 -3.09375 C-23.61898428 -4.21087276 -26.35689959 -4.19481011 -29.8125 -4.125 C-31.55466797 -4.09792969 -31.55466797 -4.09792969 -33.33203125 -4.0703125 C-34.21246094 -4.04710938 -35.09289062 -4.02390625 -36 -4 C-36 -4.99 -36 -5.98 -36 -7 C-37.6396875 -6.938125 -37.6396875 -6.938125 -39.3125 -6.875 C-43 -7 -43 -7 -46 -9 C-35.65866668 -14.17066666 -10.69113171 -3.13204985 0 0 Z " fill="#F7D74D" transform="translate(286,128)"/>
<path d="M0 0 C0.99 0.495 0.99 0.495 2 1 C2.36303711 2.91430664 2.36303711 2.91430664 2.52734375 5.41015625 C2.59759766 6.31830078 2.66785156 7.22644531 2.74023438 8.16210938 C2.8698757 10.06822191 2.99753962 11.97447017 3.12304688 13.88085938 C3.58681822 19.82632439 4.74439819 24.48698957 7 30 C7 30.99 7 31.98 7 33 C8.32 32.34 9.64 31.68 11 31 C11.93423645 34.01031744 12.04449911 34.86650268 11 38 C11.66 38 12.32 38 13 38 C12.67 39.32 12.34 40.64 12 42 C11.05620115 40.79658011 10.12030298 39.58696299 9.1875 38.375 C8.66542969 37.70210938 8.14335938 37.02921875 7.60546875 36.3359375 C3.54941197 30.43442422 2.26015473 25.09518175 1.3125 18.125 C1.18294922 17.26519531 1.05339844 16.40539062 0.91992188 15.51953125 C0.17036583 10.29246849 -0.12860185 5.27879957 0 0 Z " fill="#F6DC6C" transform="translate(107,267)"/>
<path d="M0 0 C1.32 0.33 2.64 0.66 4 1 C3.5875 1.42667969 3.175 1.85335938 2.75 2.29296875 C-2.01569561 7.45225975 -5.63852901 13.02983698 -9.203125 19.046875 C-10.69082827 21.49188297 -12.23328483 23.75343626 -14 26 C-14 24.35 -14 22.7 -14 21 C-13.34 21 -12.68 21 -12 21 C-12 19.68 -12 18.36 -12 17 C-11.34 17 -10.68 17 -10 17 C-10.33 15.68 -10.66 14.36 -11 13 C-10.01 13 -9.02 13 -8 13 C-8 12.34 -8 11.68 -8 11 C-7.34 11 -6.68 11 -6 11 C-5.7834375 9.824375 -5.7834375 9.824375 -5.5625 8.625 C-5 6 -5 6 -4 4 C-3.01 4 -2.02 4 -1 4 C-0.67 2.68 -0.34 1.36 0 0 Z " fill="#EBC62D" transform="translate(285,317)"/>
<path d="M0 0 C3.56909386 3.56909386 4.8247679 8.62542624 5.19140625 13.59375 C5.18802592 15.73011692 5.10161674 17.86604848 5 20 C4.34 20.33 3.68 20.66 3 21 C2.31527335 22.88764903 2.31527335 22.88764903 1.875 25.0625 C1.70742188 25.79597656 1.53984375 26.52945313 1.3671875 27.28515625 C1.24601562 27.85105469 1.12484375 28.41695312 1 29 C-0.01085428 25.65613602 -0.11543463 22.6251882 -0.09765625 19.140625 C-0.09443359 18.02558594 -0.09121094 16.91054687 -0.08789062 15.76171875 C-0.07951172 14.60285156 -0.07113281 13.44398438 -0.0625 12.25 C-0.05798828 11.07566406 -0.05347656 9.90132812 -0.04882812 8.69140625 C-0.03705094 5.79421928 -0.02060326 2.89713546 0 0 Z " fill="#E8C127" transform="translate(387,207)"/>
<path d="M0 0 C-2.64 0.99 -5.28 1.98 -8 3 C-8 4.65 -8 6.3 -8 8 C-11.32191478 9.10730493 -11.79453335 8.8904074 -15 8 C-17.33094534 7.6503582 -19.66404762 7.31445513 -22 7 C-18.62403049 4.13042592 -15.15055064 2.74490171 -11 1.25 C-9.783125 0.80140625 -8.56625 0.3528125 -7.3125 -0.109375 C-4 -1 -4 -1 0 0 Z " fill="#FAD53D" transform="translate(198,118)"/>
<path d="M0 0 C0.99 0 1.98 0 3 0 C3 0.66 3 1.32 3 2 C3.66 2 4.32 2 5 2 C5 3.32 5 4.64 5 6 C3.68 6 2.36 6 1 6 C1.99 6.33 2.98 6.66 4 7 C4.33 8.98 4.66 10.96 5 13 C0.47384007 9.32167983 -3.39424999 5.58913637 -7 1 C-5.5459375 1.0309375 -5.5459375 1.0309375 -4.0625 1.0625 C-1.12534105 1.35618499 -1.12534105 1.35618499 0 0 Z " fill="#FBD22F" transform="translate(129,310)"/>
<path d="M0 0 C0.99 0 1.98 0 3 0 C1.29837471 6.35273443 -1.36134896 11.79268885 -4.5625 17.5 C-4.96267334 18.21865234 -5.36284668 18.93730469 -5.77514648 19.67773438 C-8.74289333 24.87144666 -8.74289333 24.87144666 -11 26 C-11 24.35 -11 22.7 -11 21 C-10.01 20.67 -9.02 20.34 -8 20 C-7.67 18.02 -7.34 16.04 -7 14 C-6.01 14 -5.02 14 -4 14 C-4 12.35 -4 10.7 -4 9 C-3.34 9 -2.68 9 -2 9 C-2 7.68 -2 6.36 -2 5 C-1.34 5 -0.68 5 0 5 C0 3.35 0 1.7 0 0 Z " fill="#F7D84E" transform="translate(383,300)"/>
<path d="M0 0 C0.33 0.99 0.66 1.98 1 3 C-0.4375 5.6875 -0.4375 5.6875 -2 8 C-1.01 9.485 -1.01 9.485 0 11 C0.66 10.67 1.32 10.34 2 10 C1.67 11.32 1.34 12.64 1 14 C-0.98 13.34 -2.96 12.68 -5 12 C-5 12.66 -5 13.32 -5 14 C-5.66 14 -6.32 14 -7 14 C-7 15.98 -7 17.96 -7 20 C-8.98 20.99 -8.98 20.99 -11 22 C-8.87103313 14.48599929 -5.63288382 5.63288382 0 0 Z " fill="#F2CA27" transform="translate(294,336)"/>
<path d="M0 0 C0.81998065 2.35481623 1.13384316 3.60158317 0.328125 6 C-0.02765625 6.66 -0.3834375 7.32 -0.75 8 C-1.12253906 8.69738281 -1.49507812 9.39476562 -1.87890625 10.11328125 C-3 12 -3 12 -4.6875 14.1875 C-6.29437334 16.40651556 -6.62681318 18.31305488 -7 21 C-8.32 21 -9.64 21 -11 21 C-10.67 19.68 -10.34 18.36 -10 17 C-11.32 16.34 -12.64 15.68 -14 15 C-12.9275 14.855625 -11.855 14.71125 -10.75 14.5625 C-8.10760487 13.83264489 -7.22520658 13.35962676 -5.75 11.00390625 C-5.08230758 9.41552858 -4.44674422 7.81326793 -3.84375 6.19921875 C-2.91586977 3.78071611 -1.69741141 1.95202312 0 0 Z " fill="#EBCC47" transform="translate(126,171)"/>
<path d="M0 0 C1.2065625 0.0309375 1.2065625 0.0309375 2.4375 0.0625 C2.4375 0.7225 2.4375 1.3825 2.4375 2.0625 C1.1175 2.0625 -0.2025 2.0625 -1.5625 2.0625 C-1.5625 2.7225 -1.5625 3.3825 -1.5625 4.0625 C-0.9025 4.3925 -0.2425 4.7225 0.4375 5.0625 C0.1075 5.7225 -0.2225 6.3825 -0.5625 7.0625 C-1.5525 6.7325 -2.5425 6.4025 -3.5625 6.0625 C-8.62301747 5.55644825 -11.38228238 5.55478245 -15.5625 8.5625 C-16.5525 9.3875 -17.5425 10.2125 -18.5625 11.0625 C-17.5725 7.7625 -16.5825 4.4625 -15.5625 1.0625 C-15.2325 2.3825 -14.9025 3.7025 -14.5625 5.0625 C-14.046875 4.77375 -13.53125 4.485 -13 4.1875 C-9.94357885 2.77684409 -6.79711565 1.97795726 -3.5625 1.0625 C-2.5625 0.0625 -2.5625 0.0625 0 0 Z " fill="#F6CD26" transform="translate(279.5625,275.9375)"/>
<path d="M0 0 C1.32 0 2.64 0 4 0 C4 0.66 4 1.32 4 2 C4.78375 2 5.5675 2 6.375 2 C10.04914126 2 13.36957972 2.36862256 17 3 C16.67 4.98 16.34 6.96 16 9 C10.0942118 7.44584521 5.02261107 4.40465533 0 1 C0 0.67 0 0.34 0 0 Z " fill="#FCD332" transform="translate(178,369)"/>
<path d="M0 0 C1.45606519 4.52092968 0.27032841 7.51648796 -1 12 C-1.66 12 -2.32 12 -3 12 C-3 13.65 -3 15.3 -3 17 C-3.66 17 -4.32 17 -5 17 C-4.34 18.65 -3.68 20.3 -3 22 C-6 24 -6 24 -9 24 C-9.66 25.32 -10.32 26.64 -11 28 C-11 23.86814166 -9.06639889 20.94589161 -7.1875 17.375 C-4.25534695 11.68015283 -1.76578429 6.18024503 0 0 Z " fill="#E9C52E" transform="translate(386,239)"/>
<path d="M0 0 C-2.21289062 0.20117188 -2.21289062 0.20117188 -4.42578125 0.40234375 C-5.84020508 0.53092773 -5.84020508 0.53092773 -7.28320312 0.66210938 C-11.19873047 1.01806641 -15.11425781 1.37402344 -19.02978516 1.72998047 C-20.00995605 1.81908691 -20.99012695 1.90819336 -22 2 C-24.07682292 2.18880208 -26.15364583 2.37760417 -28.23046875 2.56640625 C-29.8203125 2.7109375 -31.41015625 2.85546875 -33 3 C-33 2.34 -33 1.68 -33 1 C-29.85591216 0.48860403 -26.70951427 -0.00696036 -23.5625 -0.5 C-22.68400391 -0.64308594 -21.80550781 -0.78617188 -20.90039062 -0.93359375 C-5.79219827 -3.27508482 -5.79219827 -3.27508482 0 0 Z " fill="#E9C332" transform="translate(264,139)"/>
<path d="M0 0 C4 0 4 0 7 2 C5.37744772 3.48185125 3.75188112 4.96040256 2.125 6.4375 C0.76761719 7.67306641 0.76761719 7.67306641 -0.6171875 8.93359375 C-3 11 -3 11 -5 12 C-5.8125 9.3125 -5.8125 9.3125 -6 6 C-3.625 3.1875 -3.625 3.1875 -1 1 C-0.67 0.67 -0.34 0.34 0 0 Z " fill="#F4CC1F" transform="translate(294,305)"/>
<path d="M0 0 C4.75 0.75 4.75 0.75 7 3 C9.57061311 3.64767793 9.57061311 3.64767793 12 4 C12 5.65 12 7.3 12 9 C12.5775 9.226875 13.155 9.45375 13.75 9.6875 C16.5663661 11.33038023 18.08077114 13.39533227 20 16 C17.04323652 14.63296942 14.63471343 13.04863619 12.109375 10.99609375 C11.40039062 10.42052734 10.69140625 9.84496094 9.9609375 9.25195312 C9.23132813 8.65318359 8.50171875 8.05441406 7.75 7.4375 C6.63238281 6.53354492 6.63238281 6.53354492 5.4921875 5.61132812 C1.42199241 2.29031729 1.42199241 2.29031729 0 1 C0 0.67 0 0.34 0 0 Z " fill="#E7C32B" transform="translate(162,294)"/>
<path d="M0 0 C0.66 0 1.32 0 2 0 C1.67773438 0.85722656 1.35546875 1.71445312 1.0234375 2.59765625 C-0.74817572 8.48725593 -1.30895667 15.46996302 0.86328125 21.328125 C2.01663891 23.4022143 2.01663891 23.4022143 4 26 C4.33 26.66 4.66 27.32 5 28 C1.17131081 26.54773858 -0.2538953 24.66681987 -2 21 C-2 19.68 -2 18.36 -2 17 C-2.66 17 -3.32 17 -4 17 C-3.38001532 11.11014558 -2.68282672 5.36565344 0 0 Z " fill="#EBC52F" transform="translate(207,282)"/>
<path d="M0 0 C1.15242188 0.54785156 2.30484375 1.09570312 3.4921875 1.66015625 C4.79542969 2.29244141 4.79542969 2.29244141 6.125 2.9375 C1.94118633 4.33210456 -1.14369603 2.85431843 -5.1875 1.5625 C-10.07257948 0.02827314 -14.78211028 -1.36617486 -19.875 -2.0625 C-19.875 -2.3925 -19.875 -2.7225 -19.875 -3.0625 C-12.08652515 -4.46442547 -7.10186072 -3.40599443 0 0 Z " fill="#DCC659" transform="translate(323.875,143.0625)"/>
<path d="M0 0 C1.03115279 3.26913624 0.9638984 5.86041348 0.5625 9.25 C0.46066406 10.14203125 0.35882813 11.0340625 0.25390625 11.953125 C0.17011719 12.62859375 0.08632812 13.3040625 0 14 C-0.66 14 -1.32 14 -2 14 C-2.33 20.93 -2.66 27.86 -3 35 C-3.33 35 -3.66 35 -4 35 C-4.45436542 22.56805725 -4.02163112 11.84944883 0 0 Z " fill="#E0BD37" transform="translate(147,223)"/>
<path d="M0 0 C2.42457025 3.63685537 2.29768407 6.36232779 2.25 10.5625 C2.25773438 11.24763672 2.26546875 11.93277344 2.2734375 12.63867188 C2.2533867 17.7466133 2.2533867 17.7466133 0 20 C-1.670625 20.2165625 -1.670625 20.2165625 -3.375 20.4375 C-6.96338094 20.99431773 -8.38712365 21.59615375 -11 24 C-9.125 20.125 -9.125 20.125 -8 19 C-5.69 19 -3.38 19 -1 19 C-0.67 12.73 -0.34 6.46 0 0 Z " fill="#463B20" transform="translate(207,363)"/>
<path d="M0 0 C4.68803656 0.73048301 8.90885555 2.36636885 13.3125 4.0625 C14.42334961 4.48499023 14.42334961 4.48499023 15.55664062 4.91601562 C17.37242655 5.60718575 19.18639899 6.30311689 21 7 C19 9 19 9 15.375 9.125 C14.26125 9.08375 13.1475 9.0425 12 9 C12.33 8.01 12.66 7.02 13 6 C11.35 6 9.7 6 8 6 C8 5.34 8 4.68 8 4 C6.68 4 5.36 4 4 4 C4 3.34 4 2.68 4 2 C2.68 1.67 1.36 1.34 0 1 C0 0.67 0 0.34 0 0 Z " fill="#F9D954" transform="translate(292,131)"/>
<path d="M0 0 C-2.56207058 1.12598637 -5.12463699 2.25081988 -7.6875 3.375 C-8.40873047 3.69210937 -9.12996094 4.00921875 -9.87304688 4.3359375 C-11.91277514 5.23006496 -13.95556856 6.11668798 -16 7 C-16.93457031 7.40476562 -17.86914062 7.80953125 -18.83203125 8.2265625 C-21 9 -21 9 -24 9 C-24 8.34 -24 7.68 -24 7 C-20.02806853 3.87059945 -16.95769796 3.70837071 -12 4 C-12 3.34 -12 2.68 -12 2 C-10.68 2 -9.36 2 -8 2 C-8 1.34 -8 0.68 -8 0 C-4.71303767 -0.79953138 -3.28976808 -1.09658936 0 0 Z " fill="#F6DB5A" transform="translate(329,367)"/>
<path d="M0 0 C0.66 0.33 1.32 0.66 2 1 C-0.09415076 4.14122613 -0.47580705 4.44601574 -3.8125 5.5625 C-4.52277344 5.81257812 -5.23304688 6.06265625 -5.96484375 6.3203125 C-7.59930589 6.86617893 -9.23669726 7.40327085 -10.875 7.9375 C-13.1738777 8.80838755 -13.1738777 8.80838755 -13.9375 11.0625 C-14.288125 11.701875 -14.63875 12.34125 -15 13 C-18.125 13.75 -18.125 13.75 -21 14 C-17.07307435 9.66418033 -12.91876336 6.93460011 -7.8125 4.125 C-6.72678711 3.50238281 -6.72678711 3.50238281 -5.61914062 2.8671875 C-3.78298984 1.84235916 -1.89446445 0.91253892 0 0 Z " fill="#E8C52E" transform="translate(197,170)"/>
<path d="M0 0 C6.08867157 3.69379408 10.61251614 7.3750207 15 13 C12.69 13 10.38 13 8 13 C7 10 7 10 8 7 C6.68 7 5.36 7 4 7 C4 6.01 4 5.02 4 4 C3.01 4 2.02 4 1 4 C0.67 2.68 0.34 1.36 0 0 Z " fill="#EDCA2A" transform="translate(171,320)"/>
<path d="M0 0 C0.66 0.33 1.32 0.66 2 1 C-3.94 6.94 -9.88 12.88 -16 19 C-16.66 18.67 -17.32 18.34 -18 18 C-16.12973998 15.93302978 -14.25404816 13.87145703 -12.375 11.8125 C-11.59189453 10.9452832 -11.59189453 10.9452832 -10.79296875 10.06054688 C-7.41255947 6.36713674 -3.91565929 3.12194457 0 0 Z " fill="#434343" transform="translate(375,46)"/>
<path d="M0 0 C8.54730344 1.32570421 16.72241148 3.51068141 25 6 C25 6.33 25 6.66 25 7 C15.56377882 7.44934387 8.50634874 4.80070901 0 1 C0 0.67 0 0.34 0 0 Z " fill="#F7DC63" transform="translate(261,122)"/>
<path d="M0 0 C0.66 0 1.32 0 2 0 C2.33 8.91 2.66 17.82 3 27 C1.68 27 0.36 27 -1 27 C-0.83628906 25.88625 -0.67257813 24.7725 -0.50390625 23.625 C0.10669314 18.74020485 0.11158497 13.91604855 0.0625 9 C0.05798828 8.12988281 0.05347656 7.25976562 0.04882812 6.36328125 C0.0371736 4.24215707 0.01924357 2.1210689 0 0 Z " fill="#E7C335" transform="translate(213,355)"/>
<path d="M0 0 C0.33 0 0.66 0 1 0 C1 3.63 1 7.26 1 11 C1.99 10.67 2.98 10.34 4 10 C2.9318153 15.11365014 1.76892524 20.07227969 0 25 C-0.93714922 21.88248002 -1.05686895 19.25850091 -0.87890625 16.015625 C-0.83056641 15.08105469 -0.78222656 14.14648438 -0.73242188 13.18359375 C-0.67634766 12.21550781 -0.62027344 11.24742187 -0.5625 10.25 C-0.51029297 9.26644531 -0.45808594 8.28289062 -0.40429688 7.26953125 C-0.27488563 4.84601151 -0.13993095 2.42293136 0 0 Z " fill="#B89C36" transform="translate(243,310)"/>
<path d="M0 0 C0.99 0.495 0.99 0.495 2 1 C3.081345 4.43031713 3.92813185 7.89891118 4.8046875 11.38671875 C6.08672385 15.26215544 7.6058124 17.7392968 10 21 C9.34 22.32 8.68 23.64 8 25 C4.20166645 17.37330656 0 8.70862173 0 0 Z " fill="#261701" transform="translate(128,262)"/>
<path d="M0 0 C1.32 0.33 2.64 0.66 4 1 C2.39612733 2.1254191 0.79189084 3.25031972 -0.8125 4.375 C-1.70582031 5.00148437 -2.59914062 5.62796875 -3.51953125 6.2734375 C-5.33267878 7.53550239 -7.16188211 8.77458808 -9 10 C-9.3125 7.75 -9.3125 7.75 -9 5 C-6.75 2.625 -6.75 2.625 -4 1 C-1.6875 1.25 -1.6875 1.25 0 2 C0 1.34 0 0.68 0 0 Z " fill="#EDC628" transform="translate(173,163)"/>
<path d="M0 0 C0.33 0.66 0.66 1.32 1 2 C3.64 2 6.28 2 9 2 C5.58983503 4.86453858 2.09305456 6.34703566 -2 8 C-2.33 6.02 -2.66 4.04 -3 2 C-2.01 1.34 -1.02 0.68 0 0 Z " fill="#F1CC25" transform="translate(182,153)"/>
<path d="M0 0 C0.640625 1.83203125 0.640625 1.83203125 1 4 C-1.53816609 7.03169839 -3.22508911 8.74169637 -7 10 C-7 10.66 -7 11.32 -7 12 C-8.65 12.33 -10.3 12.66 -12 13 C-8.19524578 8.43969176 -4.25030379 4.14910608 0 0 Z " fill="#EDCA29" transform="translate(308,321)"/>
<path d="M0 0 C1.4606285 2.64738916 2 3.89448334 2 7 C3.32 6.34 4.64 5.68 6 5 C6.93423645 8.01031744 7.04449911 8.86650268 6 12 C6.66 12 7.32 12 8 12 C7.67 13.32 7.34 14.64 7 16 C6.01886757 14.70982586 5.04015801 13.41780894 4.0625 12.125 C3.51722656 11.40570313 2.97195312 10.68640625 2.41015625 9.9453125 C-0.09973245 6.48291757 -0.09225098 4.24354529 0 0 Z " fill="#F6D847" transform="translate(112,293)"/>
<path d="M0 0 C0 0.99 0 1.98 0 3 C-0.99 3.66 -1.98 4.32 -3 5 C-3.33 5.99 -3.66 6.98 -4 8 C-5.97946592 9.36363208 -7.9819245 10.69418644 -10 12 C-11.36886951 13.29682374 -12.7169291 14.61823134 -14 16 C-12.54755344 11.48586212 -10.19375837 8.65514172 -7 5.1875 C-6.113125 4.21167969 -5.22625 3.23585937 -4.3125 2.23046875 C-2 0 -2 0 0 0 Z " fill="#E2C02C" transform="translate(173,187)"/>
<path d="M0 0 C0.33 1.32 0.66 2.64 1 4 C0.34 4 -0.32 4 -1 4 C-0.67 4.99 -0.34 5.98 0 7 C-1.65 7.66 -3.3 8.32 -5 9 C-5 9.66 -5 10.32 -5 11 C-6.32 11.33 -7.64 11.66 -9 12 C-6.45335415 7.18966896 -4.00972202 3.67557852 0 0 Z " fill="#F6D94E" transform="translate(146,144)"/>
<path d="M0 0 C2.4375 0.375 2.4375 0.375 5 1 C5.33 1.66 5.66 2.32 6 3 C7.64142963 4.0409066 9.30712215 5.04504326 11 6 C10.67 7.65 10.34 9.3 10 11 C6.40365256 7.50640535 3.16548033 3.88901869 0 0 Z " fill="#F7D64B" transform="translate(138,328)"/>
<path d="M0 0 C1.45839897 3.95705456 0.67906093 7.69831388 0.0625 11.75 C-0.03740234 12.44738281 -0.13730469 13.14476562 -0.24023438 13.86328125 C-0.48665873 15.57651726 -0.74240955 17.28840725 -1 19 C-1.99 18.67 -2.98 18.34 -4 18 C-3.34 18 -2.68 18 -2 18 C-2.10699219 16.86820312 -2.21398437 15.73640625 -2.32421875 14.5703125 C-2.44613108 13.08860879 -2.56718016 11.60683388 -2.6875 10.125 C-2.76033203 9.37863281 -2.83316406 8.63226563 -2.90820312 7.86328125 C-3.07421875 5.6953125 -3.07421875 5.6953125 -3 2 C-2.01 1.34 -1.02 0.68 0 0 Z " fill="#F2CD33" transform="translate(263,364)"/>
<path d="M0 0 C1.27971677 4.20601393 0.43388549 6.90578694 -0.8125 11.125 C-1.34810547 12.98511719 -1.34810547 12.98511719 -1.89453125 14.8828125 C-3 18 -3 18 -5 20 C-6.10960573 16.67118282 -5.9412896 16.12635748 -4.78515625 12.98828125 C-4.51123047 12.23095703 -4.23730469 11.47363281 -3.95507812 10.69335938 C-3.66052734 9.90767578 -3.36597656 9.12199219 -3.0625 8.3125 C-2.77181641 7.51521484 -2.48113281 6.71792969 -2.18164062 5.89648438 C-1.46260698 3.92798243 -0.73236297 1.96358188 0 0 Z " fill="#E0BF2F" transform="translate(261,309)"/>
<path d="M0 0 C1.32 0 2.64 0 4 0 C3.59316505 2.35964273 3.10185661 3.85934088 1.6875 5.8125 C0 7 0 7 -2.1875 6.6875 C-2.785625 6.460625 -3.38375 6.23375 -4 6 C-2.25 3 -2.25 3 0 0 Z " fill="#E3C136" transform="translate(270,290)"/>
<path d="M0 0 C0.33 0 0.66 0 1 0 C1.04241723 2.33294775 1.04092937 4.66702567 1 7 C0.67 7.33 0.34 7.66 0 8 C-0.23363881 9.84891946 -0.41303635 11.70488031 -0.5625 13.5625 C-0.64628906 14.57441406 -0.73007812 15.58632813 -0.81640625 16.62890625 C-0.87699219 17.41136719 -0.93757813 18.19382812 -1 19 C-1.33 19 -1.66 19 -2 19 C-3.23852969 11.85234068 -2.85888741 6.68688919 0 0 Z " fill="#DFBC2D" transform="translate(282,360)"/>
<path d="M0 0 C0.66 0 1.32 0 2 0 C2 0.99 2 1.98 2 3 C2.66 3.33 3.32 3.66 4 4 C2.85760183 5.33627775 1.71098945 6.66895388 0.5625 8 C-0.39462891 9.11375 -0.39462891 9.11375 -1.37109375 10.25 C-1.90863281 10.8275 -2.44617188 11.405 -3 12 C-3.33 12 -3.66 12 -4 12 C-4.25 9.6875 -4.25 9.6875 -4 7 C-2.68662604 5.9739266 -1.35335895 4.97272675 0 4 C0 2.68 0 1.36 0 0 Z " fill="#F7D945" transform="translate(365,328)"/>
<path d="M0 0 C0.33 1.32 0.66 2.64 1 4 C0.01 4.33 -0.98 4.66 -2 5 C-2 7.64 -2 10.28 -2 13 C-2.66 13 -3.32 13 -4 13 C-4 12.34 -4 11.68 -4 11 C-4.99 11.33 -5.98 11.66 -7 12 C-5.44298069 7.32894208 -2.91552627 3.91294315 0 0 Z " fill="#F8D74D" transform="translate(134,159)"/>
<path d="M0 0 C6.6 0 13.2 0 20 0 C20 0.33 20 0.66 20 1 C18.41058594 1.09087891 18.41058594 1.09087891 16.7890625 1.18359375 C15.40102779 1.26800127 14.01300768 1.35264917 12.625 1.4375 C11.92632812 1.47681641 11.22765625 1.51613281 10.5078125 1.55664062 C6.62639508 1.74280134 6.62639508 1.74280134 3 3 C1.00039988 3.039992 -1.00047242 3.04346799 -3 3 C-2.01 2.67 -1.02 2.34 0 2 C0 1.34 0 0.68 0 0 Z " fill="#E1BE2C" transform="translate(264,154)"/>
<path d="M0 0 C0 3 0 3 -1.35546875 4.5 C-8.35083227 10.2275471 -8.35083227 10.2275471 -12 12 C-12.66 11.67 -13.32 11.34 -14 11 C-12.23055495 9.53998252 -10.45939429 8.08204407 -8.6875 6.625 C-7.70136719 5.81289063 -6.71523438 5.00078125 -5.69921875 4.1640625 C-3 2 -3 2 0 0 Z " fill="#211500" transform="translate(309,300)"/>
<path d="M0 0 C2.3125 0.0625 2.3125 0.0625 5 1 C6.6875 4.5 6.6875 4.5 8 8 C8.66 8.33 9.32 8.66 10 9 C9.67 10.32 9.34 11.64 9 13 C7.49710267 11.02297434 5.99758658 9.0435417 4.5 7.0625 C4.07074219 6.49853516 3.64148438 5.93457031 3.19921875 5.35351562 C0 1.11328125 0 1.11328125 0 0 Z " fill="#EBC631" transform="translate(195,322)"/>
<path d="M0 0 C0.99 0.33 1.98 0.66 3 1 C4.09506492 4.28519475 4.09960608 6.73663415 4.0625 10.1875 C4.05347656 11.27417969 4.04445313 12.36085938 4.03515625 13.48046875 C4.02355469 14.31191406 4.01195312 15.14335937 4 16 C2.35 16.66 0.7 17.32 -1 18 C-0.505 17.154375 -0.01 16.30875 0.5 15.4375 C2.58739345 10.65389 2.68070722 6.99957745 1 2.0625 C0.67 1.381875 0.34 0.70125 0 0 Z " fill="#E1C233" transform="translate(280,283)"/>
<path d="M0 0 C0.33 0.66 0.66 1.32 1 2 C-2.24891857 5.9566038 -4.7332203 6.64798644 -9.75 7.25 C-10.92046875 7.39953125 -12.0909375 7.5490625 -13.296875 7.703125 C-14.18890625 7.80109375 -15.0809375 7.8990625 -16 8 C-16 7.34 -16 6.68 -16 6 C-15.18015625 5.81824219 -14.3603125 5.63648438 -13.515625 5.44921875 C-12.43796875 5.19785156 -11.3603125 4.94648438 -10.25 4.6875 C-9.18265625 4.44386719 -8.1153125 4.20023437 -7.015625 3.94921875 C-4.07789099 3.0245175 -2.30705738 1.99907642 0 0 Z " fill="#E4C036" transform="translate(278,301)"/>
<path d="M0 0 C2.64752004 2.57784846 4.94432065 4.91648098 7 8 C6.4225 7.62875 5.845 7.2575 5.25 6.875 C3 5.70833333 3 5.70833333 0.75 6.875 C-0.11625 7.431875 -0.11625 7.431875 -1 8 C-1.66 7.34 -2.32 6.68 -3 6 C-2.34 5.34 -1.68 4.68 -1 4 C-0.3574765 1.93125966 -0.3574765 1.93125966 0 0 Z " fill="#EEC628" transform="translate(138,290)"/>
<path d="M0 0 C1.8871875 0.0309375 1.8871875 0.0309375 3.8125 0.0625 C3.4825 1.3825 3.1525 2.7025 2.8125 4.0625 C2.4825 3.7325 2.1525 3.4025 1.8125 3.0625 C-2.21910191 2.79956944 -3.74642734 2.76845156 -7.1875 5.0625 C-7.1875 3.7425 -7.1875 2.4225 -7.1875 1.0625 C-4.43671116 0.14557039 -2.82801087 -0.04636083 0 0 Z " fill="#E4C529" transform="translate(256.1875,242.9375)"/>
<path d="M0 0 C1.32 0 2.64 0 4 0 C4 0.66 4 1.32 4 2 C4.763125 1.938125 5.52625 1.87625 6.3125 1.8125 C9 2 9 2 10.8125 3.375 C12 5 12 5 12 7 C7.39104317 5.68315519 3.85859765 3.84801255 0 1 C0 0.67 0 0.34 0 0 Z " fill="#F7DA5B" transform="translate(178,369)"/>
<path d="M0 0 C1.98 0 3.96 0 6 0 C1.375 5.875 1.375 5.875 -2 7 C-2 5.68 -2 4.36 -2 3 C-1.34 2.67 -0.68 2.34 0 2 C0 1.34 0 0.68 0 0 Z " fill="#F7D848" transform="translate(347,348)"/>
<path d="M0 0 C0.66 0.66 1.32 1.32 2 2 C1.34 3.98 0.68 5.96 0 8 C-0.66 8 -1.32 8 -2 8 C-2 7.34 -2 6.68 -2 6 C-3.32 6.33 -4.64 6.66 -6 7 C-4.02 4.69 -2.04 2.38 0 0 Z " fill="#DFC036" transform="translate(252,302)"/>
<path d="M0 0 C0.33 1.32 0.66 2.64 1 4 C1.66 3.67 2.32 3.34 3 3 C5.3329866 2.95977609 7.66706666 2.95679753 10 3 C10 3.33 10 3.66 10 4 C8.783125 4.2475 7.56625 4.495 6.3125 4.75 C2.41640742 5.7049925 -0.04299824 7.22781085 -3 10 C-2.01 6.7 -1.02 3.4 0 0 Z " fill="#D8B83E" transform="translate(264,277)"/>
<path d="M0 0 C0 3.9919694 -1.11957103 6.49851158 -3 10 C-5.61328125 10.7109375 -5.61328125 10.7109375 -8 11 C-7.04454634 9.53977837 -6.08553322 8.08188532 -5.125 6.625 C-4.59132813 5.81289063 -4.05765625 5.00078125 -3.5078125 4.1640625 C-2 2 -2 2 0 0 Z " fill="#E8C231" transform="translate(373,267)"/>
<path d="M0 0 C0.33 0.99 0.66 1.98 1 3 C0.236875 3.7425 -0.52625 4.485 -1.3125 5.25 C-3.4393702 7.4263323 -5.2559956 9.52167796 -7 12 C-7.99 11.67 -8.98 11.34 -10 11 C-9.52949219 10.54109375 -9.05898438 10.0821875 -8.57421875 9.609375 C-3.96631602 5.08450705 -3.96631602 5.08450705 0 0 Z " fill="#140600" transform="translate(356,263)"/>
<path d="M0 0 C0 3 0 3 -1.75 4.82421875 C-2.4925 5.43910156 -3.235 6.05398437 -4 6.6875 C-4.7425 7.31011719 -5.485 7.93273437 -6.25 8.57421875 C-6.8275 9.04472656 -7.405 9.51523438 -8 10 C-8.66 9.67 -9.32 9.34 -10 9 C-8.71142987 7.68445979 -7.41904109 6.37265903 -6.125 5.0625 C-5.04605469 3.96615234 -5.04605469 3.96615234 -3.9453125 2.84765625 C-2 1 -2 1 0 0 Z " fill="#170900" transform="translate(165,172)"/>
<path d="M0 0 C0.99 0 1.98 0 3 0 C0.10933941 9.59453303 0.10933941 9.59453303 -3 13 C-2.67 10.36 -2.34 7.72 -2 5 C-1.34 5 -0.68 5 0 5 C0 3.35 0 1.7 0 0 Z " fill="#F8DB60" transform="translate(383,300)"/>
<path d="M0 0 C2.79651501 1.46817038 3.43411431 2.40553901 4.5 5.3125 C-1.03846154 4.82019231 -1.03846154 4.82019231 -3.375 2.25 C-3.931875 1.2909375 -3.931875 1.2909375 -4.5 0.3125 C-2.5 -0.6875 -2.5 -0.6875 0 0 Z " fill="#F3CC22" transform="translate(162.5,289.6875)"/>
<path d="M0 0 C2.46301423 2.46301423 2.76766521 4.27360036 3.625 7.625 C3.88539063 8.62789062 4.14578125 9.63078125 4.4140625 10.6640625 C4.60742188 11.43492187 4.80078125 12.20578125 5 13 C3.046875 12.3515625 3.046875 12.3515625 1 11 C0.390625 8.3984375 0.390625 8.3984375 0.25 5.375 C0.19328125 4.37210938 0.1365625 3.36921875 0.078125 2.3359375 C0.05234375 1.56507813 0.0265625 0.79421875 0 0 Z " fill="#F0D666" transform="translate(387,207)"/>
<path d="M0 0 C2.8125 0 2.8125 0 6 1 C7.46581614 3.53967412 8.26532365 6.17085161 9 9 C8.01 9.495 8.01 9.495 7 10 C6.401875 9.0925 5.80375 8.185 5.1875 7.25 C3.51893234 4.77098519 1.82063145 2.36682089 0 0 Z " fill="#DEBA28" transform="translate(231,277)"/>
<path d="M0 0 C0.66 0.99 1.32 1.98 2 3 C2.66 3 3.32 3 4 3 C3.34 4.32 2.68 5.64 2 7 C-0.31 6.67 -2.62 6.34 -5 6 C-4.360625 5.566875 -3.72125 5.13375 -3.0625 4.6875 C-0.73253997 3.08760823 -0.73253997 3.08760823 0 0 Z " fill="#E2BE1F" transform="translate(243,365)"/>
<path d="M0 0 C-0.33 2.31 -0.66 4.62 -1 7 C-1.99 7.33 -2.98 7.66 -4 8 C-4.33 7.01 -4.66 6.02 -5 5 C-5.33 4.67 -5.66 4.34 -6 4 C-2.25 0 -2.25 0 0 0 Z " fill="#F0C622" transform="translate(325,310)"/>
<path d="M0 0 C0.33 0.66 0.66 1.32 1 2 C1.66 2 2.32 2 3 2 C3 1.34 3 0.68 3 0 C3.99 0.33 4.98 0.66 6 1 C4.35 2.98 2.7 4.96 1 7 C-0.0625 5.1875 -0.0625 5.1875 -1 3 C-0.67 2.01 -0.34 1.02 0 0 Z " fill="#E8BE24" transform="translate(289,310)"/>
<path d="M0 0 C0.66 0.33 1.32 0.66 2 1 C1.773125 2.0725 1.54625 3.145 1.3125 4.25 C0.64224175 7.92978576 0.64224175 7.92978576 2.4375 10.4375 C2.953125 10.953125 3.46875 11.46875 4 12 C2.125 11.75 2.125 11.75 0 11 C-2.08858407 8.07598231 -2.37223878 5.53626841 -2 2 C-1.34 1.34 -0.68 0.68 0 0 Z " fill="#1D0F00" transform="translate(219,290)"/>
<path d="M0 0 C0.33 1.32 0.66 2.64 1 4 C0.34 4 -0.32 4 -1 4 C-1 5.65 -1 7.3 -1 9 C-1.99 9.33 -2.98 9.66 -4 10 C-4 10.99 -4 11.98 -4 13 C-4.66 12.67 -5.32 12.34 -6 12 C-4.02 8.04 -2.04 4.08 0 0 Z " fill="#DFBB33" transform="translate(154,209)"/>
<path d="M0 0 C0.33 0 0.66 0 1 0 C1 1.98 1 3.96 1 6 C-2.8063457 5.32829194 -6.35206816 4.27253436 -10 3 C-6.42355152 1.7619986 -3.66305234 2.25073929 0 3 C0 2.01 0 1.02 0 0 Z " fill="#F7DB65" transform="translate(205,376)"/>
<path d="M0 0 C0.66 0 1.32 0 2 0 C2 0.66 2 1.32 2 2 C3.32 2 4.64 2 6 2 C6.12375 2.5775 6.2475 3.155 6.375 3.75 C7.00725613 6.02612206 7.91863468 7.90760206 9 10 C7.86800647 9.0919838 6.74467637 8.17316174 5.625 7.25 C4.99851563 6.73953125 4.37203125 6.2290625 3.7265625 5.703125 C1.91687682 3.91800519 0.99882545 2.32050356 0 0 Z " fill="#F7D956" transform="translate(158,350)"/>
<path d="M0 0 C0.66 0.33 1.32 0.66 2 1 C0.4422692 4.82352106 -1.91595258 7.29205593 -5 10 C-5.99 10 -6.98 10 -8 10 C-5.36 6.7 -2.72 3.4 0 0 Z " fill="#201400" transform="translate(287,319)"/>
<path d="M0 0 C5.41342681 1.14514798 7.9342948 2.34012809 11 7 C10.67 7.66 10.34 8.32 10 9 C8.33043913 7.69118353 6.66441696 6.37785174 5 5.0625 C4.071875 4.33160156 3.14375 3.60070312 2.1875 2.84765625 C1.465625 2.23792969 0.74375 1.62820313 0 1 C0 0.67 0 0.34 0 0 Z " fill="#201100" transform="translate(172,320)"/>
<path d="M0 0 C0.66 0 1.32 0 2 0 C1.5359375 1.175625 1.5359375 1.175625 1.0625 2.375 C-0.26335807 6.89851578 -0.64811085 11.31431814 -1 16 C-1.33 16 -1.66 16 -2 16 C-2.05402274 13.89611431 -2.09280256 11.79183286 -2.125 9.6875 C-2.14820313 8.51574219 -2.17140625 7.34398437 -2.1953125 6.13671875 C-2 3 -2 3 0 0 Z " fill="#D1AF27" transform="translate(207,282)"/>
<path d="M0 0 C0.66 0.99 1.32 1.98 2 3 C0.60667426 6.36720387 -0.9789286 7.9859524 -4 10 C-3.67 8.35 -3.34 6.7 -3 5 C-2.34 5 -1.68 5 -1 5 C-0.67 3.35 -0.34 1.7 0 0 Z " fill="#E0BF27" transform="translate(352,262)"/>
<path d="M0 0 C0 0.66 0 1.32 0 2 C-0.66 2 -1.32 2 -2 2 C-2 2.66 -2 3.32 -2 4 C-4.8125 5.5625 -4.8125 5.5625 -8 7 C-8.99 6.67 -9.98 6.34 -11 6 C-9.54550599 4.9944239 -8.08627557 3.99569565 -6.625 3 C-5.40683594 2.1646875 -5.40683594 2.1646875 -4.1640625 1.3125 C-2 0 -2 0 0 0 Z " fill="#E2C22E" transform="translate(336,303)"/>
<path d="M0 0 C1.32 0.66 2.64 1.32 4 2 C-0.455 4.97 -0.455 4.97 -5 8 C-5 7.01 -5 6.02 -5 5 C-4.01 4.67 -3.02 4.34 -2 4 C-0.79117904 1.99983534 -0.79117904 1.99983534 0 0 Z " fill="#ECCA30" transform="translate(306,298)"/>
<path d="M0 0 C0.66 0.33 1.32 0.66 2 1 C1.1654738 3.50357861 0.20628008 5.66785852 -1 8 C-2.32 6.02 -3.64 4.04 -5 2 C-4.01 2.33 -3.02 2.66 -2 3 C-1.34 2.01 -0.68 1.02 0 0 Z " fill="#F3CD28" transform="translate(157,280)"/>
<path d="M0 0 C0.33 0 0.66 0 1 0 C1.49230769 7.38461538 1.49230769 7.38461538 -1 10.5 C-1.66 10.995 -2.32 11.49 -3 12 C-2.40075776 7.80530429 -1.42500059 3.99000166 0 0 Z " fill="#F6DA57" transform="translate(114,193)"/>
<path d="M0 0 C3.62613199 0.56959153 5.25517741 1.92374534 7.75 4.5625 C8.36359375 5.20316406 8.9771875 5.84382812 9.609375 6.50390625 C10.06828125 6.99761719 10.5271875 7.49132812 11 8 C10.67 8.66 10.34 9.32 10 10 C8.33037631 8.52417192 6.6643694 7.04425109 5 5.5625 C4.071875 4.73878906 3.14375 3.91507813 2.1875 3.06640625 C1.465625 2.38449219 0.74375 1.70257813 0 1 C0 0.67 0 0.34 0 0 Z " fill="#1E0D00" transform="translate(345,173)"/>
<path d="M0 0 C1.27450447 0.59638333 2.54446877 1.20247416 3.8125 1.8125 C4.52019531 2.14894531 5.22789062 2.48539063 5.95703125 2.83203125 C8.01129035 4.00645471 9.41616278 5.25628016 11 7 C8.03 6.505 8.03 6.505 5 6 C5 5.34 5 4.68 5 4 C4.360625 3.896875 3.72125 3.79375 3.0625 3.6875 C2.381875 3.460625 1.70125 3.23375 1 3 C0.67 2.01 0.34 1.02 0 0 Z " fill="#E3C12F" transform="translate(331,165)"/>
<path d="M0 0 C0 3 0 3 -1.1875 4.6875 C-3.55741722 6.40364695 -5.14025666 6.23187108 -8 6 C-5.51047079 3.33264727 -3.36591866 1.44253657 0 0 Z " fill="#211401" transform="translate(185,158)"/>
<path d="M0 0 C1.18429132 3.55287397 0.99184231 5.41410857 0 9 C-2.05078125 10.18359375 -2.05078125 10.18359375 -4 11 C-3.52269162 9.5410574 -3.04308958 8.08286504 -2.5625 6.625 C-2.29566406 5.81289063 -2.02882813 5.00078125 -1.75390625 4.1640625 C-1 2 -1 2 0 0 Z " fill="#E5BF30" transform="translate(287,347)"/>
<path d="M0 0 C0.66 0 1.32 0 2 0 C0.515 5.445 0.515 5.445 -1 11 C-1.33 11 -1.66 11 -2 11 C-2.05399736 9.54207116 -2.09279177 8.08357288 -2.125 6.625 C-2.15980469 5.40683594 -2.15980469 5.40683594 -2.1953125 4.1640625 C-2 2 -2 2 0 0 Z " fill="#F1C930" transform="translate(267,348)"/>
<path d="M0 0 C0.66 0.33 1.32 0.66 2 1 C1.67 3.31 1.34 5.62 1 8 C-3.875 4.375 -3.875 4.375 -5 1 C-4.34 1 -3.68 1 -3 1 C-3 1.66 -3 2.32 -3 3 C-2.01 3 -1.02 3 0 3 C0 2.01 0 1.02 0 0 Z " fill="#F9D749" transform="translate(157,342)"/>
<path d="M0 0 C0.66 0 1.32 0 2 0 C1.44894091 3.9492568 0.61064629 7.34920174 -1 11 C-1.33 11 -1.66 11 -2 11 C-1.85957123 9.35369672 -1.71250671 7.70795821 -1.5625 6.0625 C-1.48128906 5.14597656 -1.40007812 4.22945313 -1.31640625 3.28515625 C-1 1 -1 1 0 0 Z " fill="#F8DA5F" transform="translate(388,288)"/>
<path d="M0 0 C0 2.62113708 -0.31292445 4.50935112 -1 7 C-2.98 7.33 -4.96 7.66 -7 8 C-6.02133662 6.85373678 -5.04205413 5.70800212 -4.0625 4.5625 C-3.51722656 3.92441406 -2.97195313 3.28632813 -2.41015625 2.62890625 C-1.63204305 1.73008851 -0.84063472 0.84063472 0 0 Z " fill="#DBBC29" transform="translate(364,278)"/>
<path d="M0 0 C0 0.66 0 1.32 0 2 C0.99 2 1.98 2 3 2 C3 2.66 3 3.32 3 4 C-0.3 3.34 -3.6 2.68 -7 2 C-7 1.34 -7 0.68 -7 0 C-2.25 -1.125 -2.25 -1.125 0 0 Z " fill="#F1CE29" transform="translate(228,273)"/>
<path d="M0 0 C1.32 0.33 2.64 0.66 4 1 C1.525 5.455 1.525 5.455 -1 10 C-1.33 10 -1.66 10 -2 10 C-2 8.35 -2 6.7 -2 5 C-1.34 5 -0.68 5 0 5 C-0.2784375 4.0409375 -0.2784375 4.0409375 -0.5625 3.0625 C-0.7790625 2.0415625 -0.7790625 2.0415625 -1 1 C-0.67 0.67 -0.34 0.34 0 0 Z " fill="#E6C42C" transform="translate(139,196)"/>
<path d="M0 0 C1.99954746 -0.04254356 4.00041636 -0.04080783 6 0 C7 1 7 1 7.0625 3.5625 C7.041875 4.366875 7.02125 5.17125 7 6 C5.68 6 4.36 6 3 6 C3.33 4.68 3.66 3.36 4 2 C2.68 1.34 1.36 0.68 0 0 Z " fill="#E5D066" transform="translate(112,186)"/>
<path d="M0 0 C1.65 1.65 3.3 3.3 5 5 C2.69 5.33 0.38 5.66 -2 6 C-2 5.34 -2 4.68 -2 4 C-1.34 4 -0.68 4 0 4 C0 2.68 0 1.36 0 0 Z " fill="#F3CD2B" transform="translate(188,335)"/>
<path d="M0 0 C0.66 0.33 1.32 0.66 2 1 C0.38731308 3.71224618 -1.24901874 6.37352812 -3 9 C-3.66 8.67 -4.32 8.34 -5 8 C-3.35 5.36 -1.7 2.72 0 0 Z " fill="#1C1200" transform="translate(143,196)"/>
<path d="M0 0 C0 0.66 0 1.32 0 2 C-0.99 2 -1.98 2 -3 2 C-3.66 3.32 -4.32 4.64 -5 6 C-6.32 5.67 -7.64 5.34 -9 5 C-7.87926138 4.16094435 -6.75325453 3.32892169 -5.625 2.5 C-4.99851563 2.0359375 -4.37203125 1.571875 -3.7265625 1.09375 C-2 0 -2 0 0 0 Z " fill="#F7DB5D" transform="translate(164,131)"/>
<path d="M0 0 C0.33 0.99 0.66 1.98 1 3 C-0.98 4.98 -2.96 6.96 -5 9 C-5.66 8.67 -6.32 8.34 -7 8 C-4.69 5.36 -2.38 2.72 0 0 Z " fill="#525252" transform="translate(80,356)"/>
<path d="M0 0 C1.32 0.66 2.64 1.32 4 2 C1.69 3.65 -0.62 5.3 -3 7 C-3.66 6.01 -4.32 5.02 -5 4 C-3.68 4 -2.36 4 -1 4 C-0.67 2.68 -0.34 1.36 0 0 Z " fill="#E8C72D" transform="translate(342,273)"/>
<path d="M0 0 C0.33 0 0.66 0 1 0 C1.28571429 8.57142857 1.28571429 8.57142857 -1 12 C-1.66 10.35 -2.32 8.7 -3 7 C-2.01 6.67 -1.02 6.34 0 6 C0 4.02 0 2.04 0 0 Z " fill="#3E3421" transform="translate(253,264)"/>
<path d="M0 0 C1.65 0 3.3 0 5 0 C5.33 1.98 5.66 3.96 6 6 C3.97945196 4.35830472 1.97956942 2.69088222 0 1 C0 0.67 0 0.34 0 0 Z " fill="#F5D642" transform="translate(128,317)"/>
<path d="M0 0 C0.66 0 1.32 0 2 0 C2.33 0.99 2.66 1.98 3 3 C-1.455 3.495 -1.455 3.495 -6 4 C-6.33 3.01 -6.66 2.02 -7 1 C-4.69 1.33 -2.38 1.66 0 2 C0 1.34 0 0.68 0 0 Z " fill="#CBAF2D" transform="translate(232,367)"/>
<path d="M0 0 C1.65 0 3.3 0 5 0 C2.31158141 2.25245881 0.35358125 3.88213958 -3 5 C-3 4.01 -3 3.02 -3 2 C-2.01 2 -1.02 2 0 2 C0 1.34 0 0.68 0 0 Z " fill="#F6DA5E" transform="translate(332,361)"/>
<path d="M0 0 C0.33 0.66 0.66 1.32 1 2 C0.22265625 3.7265625 0.22265625 3.7265625 -0.9375 5.625 C-1.618125 6.73875 -2.29875 7.8525 -3 9 C-3.66 9 -4.32 9 -5 9 C-3.90931332 5.22454612 -3.0916909 2.52956528 0 0 Z " fill="#2A1900" transform="translate(212,279)"/>
<path d="M0 0 C0.33 0.99 0.66 1.98 1 3 C-0.65 4.65 -2.3 6.3 -4 8 C-4 4.09161134 -2.49432124 2.88405893 0 0 Z " fill="#281402" transform="translate(251,246)"/>
<path d="M0 0 C-0.33 0.99 -0.66 1.98 -1 3 C-3.31 3.33 -5.62 3.66 -8 4 C-8 3.34 -8 2.68 -8 2 C-2.25 0 -2.25 0 0 0 Z " fill="#E6C22C" transform="translate(219,162)"/>
<path d="M0 0 C0.66 0.33 1.32 0.66 2 1 C1 4 1 4 -1.4375 5.75 C-2.7059375 6.36875 -2.7059375 6.36875 -4 7 C-4.66 6.67 -5.32 6.34 -6 6 C-4.02 4.02 -2.04 2.04 0 0 Z " fill="#FADA60" transform="translate(153,137)"/>
</svg>
