<?xml version="1.0" encoding="UTF-8"?>
<svg version="1.1" xmlns="http://www.w3.org/2000/svg" width="500" height="500">
<path d="M0 0 C165 0 330 0 500 0 C500 165 500 330 500 500 C335 500 170 500 0 500 C0 335 0 170 0 0 Z " fill="#FEFEFE" transform="translate(0,0)"/>
<path d="M0 0 C6.88481892 6.88481892 4.97307433 25.3187707 5.5625 34.625 C5.75087267 37.52579397 5.94107423 40.42645372 6.13328552 43.32699585 C6.25162207 45.11998039 6.36756332 46.91312534 6.48060608 48.70645142 C6.740768 52.71452585 7.06127604 56.69610726 7.53222656 60.68530273 C8.25538445 66.92755819 8.18426591 73.16013188 8.1875 79.4375 C8.19974609 80.71560547 8.21199219 81.99371094 8.22460938 83.31054688 C8.22654297 84.52677734 8.22847656 85.74300781 8.23046875 86.99609375 C8.23457764 88.10138428 8.23868652 89.2066748 8.24291992 90.34545898 C8 93 8 93 6 95 C7.72669922 95.05607422 7.72669922 95.05607422 9.48828125 95.11328125 C28.51811122 95.84846042 46.59192626 99.21021921 65 104 C65.70769531 104.18256348 66.41539062 104.36512695 67.14453125 104.55322266 C86.67463963 109.68698658 105.95012132 116.96469907 124 126 C125.33100013 126.63238316 126.66307904 127.26249955 127.99609375 127.890625 C153.07436195 139.84819964 171.83043806 157.72343575 181.5 184.1875 C186.66564509 202.9821462 182.47885396 223.44644959 173.25 240.2265625 C160.23054482 262.63504786 139.70904111 276.98818047 118.515625 290.92285156 C112.72199501 294.76038483 107.29653258 298.7524543 102.05859375 303.328125 C100 305 100 305 97.84765625 305.984375 C95.47195102 307.29025948 95.09380329 308.55928191 94 311 C92.98017885 312.26788575 91.93595614 313.51633007 90.875 314.75 C80.65411985 327.72347627 74.17362269 344.64397744 73.859375 361.13671875 C73.84003906 362.04357422 73.82070313 362.95042969 73.80078125 363.88476562 C73.76671875 365.76475377 73.74868191 367.64509571 73.74609375 369.52539062 C73.56146103 376.33250767 73.56146103 376.33250767 70.828125 379.58203125 C53.18529105 388.42781678 20.52858432 381.31370715 2 378 C1.09475586 377.84370117 0.18951172 377.68740234 -0.74316406 377.52636719 C-2.85129315 377.12086087 -4.93123967 376.57347566 -7 376 C-9.5099972 372.23500419 -9.61476744 370.45706394 -9 366 C-7.17633295 363.87415556 -5.33931992 362.60828244 -3 361 C-3.77601563 360.731875 -4.55203125 360.46375 -5.3515625 360.1875 C-23.62952845 353.55682978 -36.70934098 344.08012489 -48.71484375 328.828125 C-51.67703643 325.16209509 -54.84991668 321.72487421 -58.05493164 318.27197266 C-60.59225182 315.5372806 -63.07901323 312.77549884 -65.5 309.9375 C-68.35241522 306.6393949 -71.40072683 303.56383503 -74.5 300.5 C-89.00168741 286.12597261 -95.90884348 274.8215065 -97.6875 254.25 C-97.74970734 253.55424866 -97.81191467 252.85849731 -97.87600708 252.1416626 C-100.35338165 223.97820498 -101.72368802 192.8106059 -88 167 C-89.14339844 166.92652344 -90.28679687 166.85304687 -91.46484375 166.77734375 C-96.48687686 166.14062366 -100.24120005 164.09647837 -104.5625 161.5625 C-105.34189941 161.11656494 -106.12129883 160.67062988 -106.92431641 160.21118164 C-127.68573432 148.17885226 -146.548591 133.4280239 -164 117 C-164.59941406 116.46117187 -165.19882813 115.92234375 -165.81640625 115.3671875 C-167 114 -167 114 -167.4375 111 C-167 108 -167 108 -165.4375 106.0625 C-162.79140425 104.90907365 -160.87147369 104.55070526 -158.01953125 105.12109375 C-154.38341584 106.70354243 -151.82417157 109.56272259 -148.984375 112.2734375 C-133.09607358 127.17008225 -113.00669827 139.07986245 -93.875 149.3125 C-84.94519329 154.10961343 -84.94519329 154.10961343 -83 158 C-82.40574219 157.00742188 -81.81148438 156.01484375 -81.19921875 154.9921875 C-75.39908697 145.43617447 -69.08743702 136.63604766 -62 128 C-61.47019531 127.30390625 -60.94039063 126.6078125 -60.39453125 125.890625 C-47.42137679 109.30324862 -22.12485558 98.95898798 -2 95 C-2.474375 94.443125 -2.94875 93.88625 -3.4375 93.3125 C-6.84558019 88.26854132 -6.19400428 82.0380127 -6.28125 76.16015625 C-6.29965942 75.2016124 -6.31806885 74.24306854 -6.33703613 73.25547791 C-6.39561779 70.19121274 -6.4484085 67.12689028 -6.5 64.0625 C-6.77973705 47.06772482 -6.77973705 47.06772482 -7.77734375 30.10473633 C-8.15474613 24.84220771 -8.22317596 19.5867768 -8.25 14.3125 C-8.2809375 12.72791992 -8.2809375 12.72791992 -8.3125 11.11132812 C-8.32023437 9.59635742 -8.32023437 9.59635742 -8.328125 8.05078125 C-8.3374707 7.15012939 -8.34681641 6.24947754 -8.35644531 5.3215332 C-7.59830981 0.38378627 -4.61804316 -0.59205682 0 0 Z " fill="#FDCF13" transform="translate(205,20)"/>
<path d="M0 0 C6.88481892 6.88481892 4.97307433 25.3187707 5.5625 34.625 C5.75087267 37.52579397 5.94107423 40.42645372 6.13328552 43.32699585 C6.25162207 45.11998039 6.36756332 46.91312534 6.48060608 48.70645142 C6.740768 52.71452585 7.06127604 56.69610726 7.53222656 60.68530273 C8.25538445 66.92755819 8.18426591 73.16013188 8.1875 79.4375 C8.19974609 80.71560547 8.21199219 81.99371094 8.22460938 83.31054688 C8.22654297 84.52677734 8.22847656 85.74300781 8.23046875 86.99609375 C8.23457764 88.10138428 8.23868652 89.2066748 8.24291992 90.34545898 C8 93 8 93 6 95 C7.72669922 95.05607422 7.72669922 95.05607422 9.48828125 95.11328125 C28.51811122 95.84846042 46.59192626 99.21021921 65 104 C65.70769531 104.18256348 66.41539062 104.36512695 67.14453125 104.55322266 C86.67463963 109.68698658 105.95012132 116.96469907 124 126 C125.33100013 126.63238316 126.66307904 127.26249955 127.99609375 127.890625 C153.07436195 139.84819964 171.83043806 157.72343575 181.5 184.1875 C186.66564509 202.9821462 182.47885396 223.44644959 173.25 240.2265625 C160.23054482 262.63504786 139.70904111 276.98818047 118.515625 290.92285156 C112.72199501 294.76038483 107.29653258 298.7524543 102.05859375 303.328125 C100 305 100 305 97.84765625 305.984375 C95.47195102 307.29025948 95.09380329 308.55928191 94 311 C92.98017885 312.26788575 91.93595614 313.51633007 90.875 314.75 C80.65411985 327.72347627 74.17362269 344.64397744 73.859375 361.13671875 C73.84003906 362.04357422 73.82070313 362.95042969 73.80078125 363.88476562 C73.76671875 365.76475377 73.74868191 367.64509571 73.74609375 369.52539062 C73.56146103 376.33250767 73.56146103 376.33250767 70.828125 379.58203125 C53.18529105 388.42781678 20.52858432 381.31370715 2 378 C1.09475586 377.84370117 0.18951172 377.68740234 -0.74316406 377.52636719 C-2.85129315 377.12086087 -4.93123967 376.57347566 -7 376 C-9.5099972 372.23500419 -9.61476744 370.45706394 -9 366 C-7.17633295 363.87415556 -5.33931992 362.60828244 -3 361 C-3.77601563 360.731875 -4.55203125 360.46375 -5.3515625 360.1875 C-23.62952845 353.55682978 -36.70934098 344.08012489 -48.71484375 328.828125 C-51.67703643 325.16209509 -54.84991668 321.72487421 -58.05493164 318.27197266 C-60.59225182 315.5372806 -63.07901323 312.77549884 -65.5 309.9375 C-68.35241522 306.6393949 -71.40072683 303.56383503 -74.5 300.5 C-89.00168741 286.12597261 -95.90884348 274.8215065 -97.6875 254.25 C-97.74970734 253.55424866 -97.81191467 252.85849731 -97.87600708 252.1416626 C-100.35338165 223.97820498 -101.72368802 192.8106059 -88 167 C-89.14339844 166.92652344 -90.28679687 166.85304687 -91.46484375 166.77734375 C-96.48687686 166.14062366 -100.24120005 164.09647837 -104.5625 161.5625 C-105.34189941 161.11656494 -106.12129883 160.67062988 -106.92431641 160.21118164 C-127.68573432 148.17885226 -146.548591 133.4280239 -164 117 C-164.59941406 116.46117187 -165.19882813 115.92234375 -165.81640625 115.3671875 C-167 114 -167 114 -167.4375 111 C-167 108 -167 108 -165.4375 106.0625 C-162.79140425 104.90907365 -160.87147369 104.55070526 -158.01953125 105.12109375 C-154.38341584 106.70354243 -151.82417157 109.56272259 -148.984375 112.2734375 C-133.09607358 127.17008225 -113.00669827 139.07986245 -93.875 149.3125 C-84.94519329 154.10961343 -84.94519329 154.10961343 -83 158 C-82.40574219 157.00742188 -81.81148438 156.01484375 -81.19921875 154.9921875 C-75.39908697 145.43617447 -69.08743702 136.63604766 -62 128 C-61.47019531 127.30390625 -60.94039063 126.6078125 -60.39453125 125.890625 C-47.42137679 109.30324862 -22.12485558 98.95898798 -2 95 C-2.474375 94.443125 -2.94875 93.88625 -3.4375 93.3125 C-6.84558019 88.26854132 -6.19400428 82.0380127 -6.28125 76.16015625 C-6.29965942 75.2016124 -6.31806885 74.24306854 -6.33703613 73.25547791 C-6.39561779 70.19121274 -6.4484085 67.12689028 -6.5 64.0625 C-6.77973705 47.06772482 -6.77973705 47.06772482 -7.77734375 30.10473633 C-8.15474613 24.84220771 -8.22317596 19.5867768 -8.25 14.3125 C-8.2809375 12.72791992 -8.2809375 12.72791992 -8.3125 11.11132812 C-8.32023437 9.59635742 -8.32023437 9.59635742 -8.328125 8.05078125 C-8.3374707 7.15012939 -8.34681641 6.24947754 -8.35644531 5.3215332 C-7.59830981 0.38378627 -4.61804316 -0.59205682 0 0 Z M-8 150 C-8.6590332 150.32838867 -9.31806641 150.65677734 -9.99707031 150.99511719 C-34.45289206 163.31074622 -51.12537119 183.04754929 -60 209 C-65.20772928 225.04881955 -62.50524786 243.57747224 -55.75390625 258.609375 C-49.58461909 270.53574751 -38.93782877 279.07275812 -28.44140625 287.109375 C-11.59719681 300.15353079 3.90368162 315.73172156 7.625 337.6875 C8.56284661 346.49655919 7.92270978 355.21974909 7 364 C17.72950837 366.4290643 28.32455819 366.2304157 39.25 366.125 C41.07421382 366.11494655 42.89843302 366.1058249 44.72265625 366.09765625 C49.14857279 366.07583828 53.57422547 366.04143984 58 366 C58.03440186 365.41734375 58.06880371 364.8346875 58.10424805 364.234375 C59.94016656 335.26955821 69.1637016 310.32997844 91.32617188 290.41064453 C98.97313388 283.96604907 107.54421591 278.61192731 115.87719727 273.11132812 C116.49522217 272.70333984 117.11324707 272.29535156 117.75 271.875 C118.66833618 271.26881836 118.66833618 271.26881836 119.60522461 270.65039062 C125.98440316 266.40498724 132.04165531 261.81490257 138 257 C138.88429688 256.29488281 139.76859375 255.58976562 140.6796875 254.86328125 C155.88950573 242.04628489 165.31524756 224.04769248 167.38671875 204.31640625 C167.88559407 188.88567664 161.96939923 175.08020822 151.6875 163.75 C147.1694299 158.9504065 142.46633716 154.69000649 137 151 C135.76830078 150.14341797 135.76830078 150.14341797 134.51171875 149.26953125 C122.51680607 141.58396485 107.15814685 136.4721009 93 135 C92.01257813 134.89171875 91.02515625 134.7834375 90.0078125 134.671875 C57.15416084 131.73437203 21.70172749 134.77111427 -8 150 Z " fill="#FECF14" transform="translate(205,20)"/>
<path d="M0 0 C0.60972656 0.46664062 1.21945312 0.93328125 1.84765625 1.4140625 C14.53935019 11.30144138 25.27460806 30.17569307 28 46 C30.20530098 68.56987717 24.22129114 89.42368958 10.12329102 107.20361328 C-3.23113364 123.32472147 -19.1281138 134.51110982 -36.484375 145.92285156 C-42.27800499 149.76038483 -47.70346742 153.7524543 -52.94140625 158.328125 C-55 160 -55 160 -57.15234375 160.984375 C-59.52804898 162.29025948 -59.90619671 163.55928191 -61 166 C-62.01982115 167.26788575 -63.06404386 168.51633007 -64.125 169.75 C-74.34588015 182.72347627 -80.82637731 199.64397744 -81.140625 216.13671875 C-81.15996094 217.04357422 -81.17929687 217.95042969 -81.19921875 218.88476562 C-81.23328125 220.76475377 -81.25131809 222.64509571 -81.25390625 224.52539062 C-81.43853897 231.33250767 -81.43853897 231.33250767 -84.171875 234.58203125 C-101.81470895 243.42781678 -134.47141568 236.31370715 -153 233 C-153.90524414 232.84370117 -154.81048828 232.68740234 -155.74316406 232.52636719 C-157.85129315 232.12086087 -159.93123967 231.57347566 -162 231 C-164.48038907 227.2794164 -164.46337203 225.40203429 -164 221 C-161.83811712 217.84032503 -160.62445865 217.11931344 -156.8515625 216.3984375 C-155.91054687 216.26695312 -154.96953125 216.13546875 -154 216 C-153.04270363 196.85407254 -157.8667725 185.19417019 -170.8046875 170.84765625 C-177.51176012 163.68370452 -184.94341338 157.88983688 -192.89526367 152.16943359 C-213.56126597 137.29157102 -227.95591081 121.75474187 -232.5859375 95.703125 C-234.1556943 81.66416792 -233.38219801 68.42138531 -229 55 C-228.66097656 53.906875 -228.32195312 52.81375 -227.97265625 51.6875 C-222.75295036 36.52991992 -213.31357961 24.12353319 -202 13 C-201.18917969 12.19046875 -200.37835938 11.3809375 -199.54296875 10.546875 C-174.82203976 -12.90316046 -142.78370185 -21.20420981 -110 -26 C-109.21077148 -26.11561279 -108.42154297 -26.23122559 -107.60839844 -26.3503418 C-71.06936975 -31.05790104 -28.49229705 -24.78045652 0 0 Z M-163 5 C-163.6590332 5.32838867 -164.31806641 5.65677734 -164.99707031 5.99511719 C-189.45289206 18.31074622 -206.12537119 38.04754929 -215 64 C-220.20772928 80.04881955 -217.50524786 98.57747224 -210.75390625 113.609375 C-204.58461909 125.53574751 -193.93782877 134.07275812 -183.44140625 142.109375 C-166.59719681 155.15353079 -151.09631838 170.73172156 -147.375 192.6875 C-146.43715339 201.49655919 -147.07729022 210.21974909 -148 219 C-137.27049163 221.4290643 -126.67544181 221.2304157 -115.75 221.125 C-113.92578618 221.11494655 -112.10156698 221.1058249 -110.27734375 221.09765625 C-105.85142721 221.07583828 -101.42577453 221.04143984 -97 221 C-96.96559814 220.41734375 -96.93119629 219.8346875 -96.89575195 219.234375 C-95.05983344 190.26955821 -85.8362984 165.32997844 -63.67382812 145.41064453 C-56.02686612 138.96604907 -47.45578409 133.61192731 -39.12280273 128.11132812 C-38.50477783 127.70333984 -37.88675293 127.29535156 -37.25 126.875 C-36.33166382 126.26881836 -36.33166382 126.26881836 -35.39477539 125.65039062 C-29.01559684 121.40498724 -22.95834469 116.81490257 -17 112 C-16.11570312 111.29488281 -15.23140625 110.58976562 -14.3203125 109.86328125 C0.88950573 97.04628489 10.31524756 79.04769248 12.38671875 59.31640625 C12.88559407 43.88567664 6.96939923 30.08020822 -3.3125 18.75 C-7.8305701 13.9504065 -12.53366284 9.69000649 -18 6 C-19.23169922 5.14341797 -19.23169922 5.14341797 -20.48828125 4.26953125 C-32.48319393 -3.41603515 -47.84185315 -8.5278991 -62 -10 C-62.98742187 -10.10828125 -63.97484375 -10.2165625 -64.9921875 -10.328125 C-97.84583916 -13.26562797 -133.29827251 -10.22888573 -163 5 Z " fill="#040301" transform="translate(360,165)"/>
<path d="M0 0 C9.32292692 9.32292692 9.2023368 29.5921456 9.3125 41.6875 C9.12591064 77.86355588 -5.83533777 111.94397804 -30.75 138.0625 C-52.46788972 159.09229816 -79.22798552 170.02671077 -109 173 C-108.58242719 152.95650502 -99.90078088 133.37621475 -86 119 C-76.73535246 110.466772 -66.05408102 103.10038485 -55.375 96.4375 C-45.46504946 90.22377183 -36.5110513 83.00357806 -28 75 C-27.00419922 74.11828125 -27.00419922 74.11828125 -25.98828125 73.21875 C-11.59323662 59.90406369 -0.68278973 39.86807532 0.11572266 20.14111328 C0.2442944 13.4250688 0.16921118 6.71464689 0 0 Z " fill="#FDCF13" transform="translate(387,208)"/>
<path d="M0 0 C3.51573112 0.71749615 4.87906366 1.91411754 6.9609375 4.80859375 C11.62220168 12.49472086 12.48382902 20.77833327 10.65673828 29.57958984 C9.64227479 33.65440139 8.39943838 37.64402724 7.0625 41.625 C7.866875 40.8 8.67125 39.975 9.5 39.125 C12.87469107 36.32608561 15.6201678 35.89181344 19.94140625 36.125 C23.36780659 36.93269658 24.98537849 38.89877802 27.0625 41.625 C28.71862091 44.93724182 28.80899741 48.0729165 28.0625 51.625 C24.95638735 56.95652873 20.89116853 60.43413556 14.99609375 62.23828125 C12.31524561 62.77445088 9.78225616 62.82898171 7.0625 62.625 C6.9082959 63.15472412 6.7540918 63.68444824 6.59521484 64.23022461 C4.99156508 69.66094465 3.29205895 75.05722549 1.5390625 80.44140625 C1.30950867 81.14671478 1.07995483 81.85202332 0.84344482 82.57870483 C-0.11104701 85.50821513 -1.06693419 88.4372628 -2.02539062 91.36547852 C-2.73526206 93.53591532 -3.4426171 95.70714881 -4.1484375 97.87890625 C-4.38020691 98.59092194 -4.61197632 99.30293762 -4.85076904 100.03652954 C-6.07109669 103.81967312 -7.23634929 107.61215589 -8.33300781 111.43310547 C-8.55703278 112.21330551 -8.78105774 112.99350555 -9.01187134 113.79734802 C-9.43756064 115.2936745 -9.85725596 116.79172292 -10.27011108 118.29164124 C-11.72033506 123.40783506 -11.72033506 123.40783506 -13.9375 125.625 C-17.0625 125.75 -17.0625 125.75 -19.9375 125.625 C-20.2675 124.635 -20.5975 123.645 -20.9375 122.625 C-21.5975 122.625 -22.2575 122.625 -22.9375 122.625 C-22.9375 123.285 -22.9375 123.945 -22.9375 124.625 C-24.60361905 124.667721 -26.27132885 124.66563832 -27.9375 124.625 C-28.4325 124.13 -28.4325 124.13 -28.9375 123.625 C-28.37802472 117.79247024 -27.3831889 112.01896121 -26.47753906 106.23168945 C-24.63475438 94.35106003 -23.25174832 82.64499833 -22.9375 70.625 C-23.63875 70.67140625 -24.34 70.7178125 -25.0625 70.765625 C-31.62564719 71.01530995 -36.5900281 70.65311748 -41.9375 66.625 C-47.06334812 61.59987815 -49.11029521 58.26381816 -49.3125 51 C-49.25968105 44.55608773 -48.46840566 40.3092957 -43.9375 35.625 C-38.66155934 31.50976628 -34.6386262 30.05710795 -27.9375 30.625 C-19.73055542 34.89261118 -16.21887512 41.37573293 -12.9375 49.625 C-12.2775 49.295 -11.6175 48.965 -10.9375 48.625 C-11.081875 47.87476563 -11.22625 47.12453125 -11.375 46.3515625 C-13.87418735 32.57132111 -14.67723212 16.91751571 -6.9375 4.625 C-4.67300514 1.60567351 -3.6965074 0.78649094 0 0 Z " fill="#050400" transform="translate(254.9375,244.375)"/>
<path d="M0 0 C1.22541504 -0.00855011 1.22541504 -0.00855011 2.47558594 -0.01727295 C4.19334641 -0.02666746 5.91112446 -0.03323468 7.62890625 -0.03710938 C10.24250741 -0.04684708 12.85533174 -0.07793538 15.46875 -0.109375 C17.14582871 -0.11590356 18.82291299 -0.12115461 20.5 -0.125 C21.27311523 -0.1373468 22.04623047 -0.1496936 22.84277344 -0.16241455 C29.44131054 -0.13556926 34.07904613 1.26814438 39.125 5.765625 C42.86129999 10.05138087 42.58986628 13.41804026 42.5234375 18.96484375 C41.87788028 26.61008567 38.85260373 32.65767408 33.16796875 37.796875 C28.42024537 41.27789418 23.25816822 42.81926746 17.328125 42.55078125 C11.87741879 41.63891499 6.98860241 39.44989451 3.3125 35.265625 C-0.25710661 29.96530004 -1.56864426 25.5596569 -0.75 19.203125 C-0.12810996 17.51923813 0.53050817 15.84767775 1.25 14.203125 C0.48816406 14.15414063 -0.27367187 14.10515625 -1.05859375 14.0546875 C-15.1642747 13.03330236 -15.1642747 13.03330236 -19.75 11.203125 C-21.9019437 7.97520945 -21.95086443 6.91911691 -21.75 3.203125 C-14.54822591 0.5683296 -7.58511879 0.04169602 0 0 Z " fill="#040404" transform="translate(217.75,435.796875)"/>
<path d="M0 0 C3.63611541 1.58244868 6.19535968 4.44162884 9.03515625 7.15234375 C24.92345767 22.0489885 45.01283298 33.9587687 64.14453125 44.19140625 C71.82343337 48.37989831 71.82343337 48.37989831 74.01953125 50.87890625 C74.51953125 54.44140625 74.51953125 54.44140625 74.01953125 57.87890625 C72.48190853 59.91706796 71.5662008 60.75419854 69.06103516 61.32568359 C62.79366206 61.36620841 58.70710877 59.71661574 53.39453125 56.50390625 C52.61964355 56.05345947 51.84475586 55.6030127 51.04638672 55.13891602 C30.36398694 42.96520556 11.47947799 28.31496723 -5.98046875 11.87890625 C-6.57988281 11.34007812 -7.17929687 10.80125 -7.796875 10.24609375 C-8.98046875 8.87890625 -8.98046875 8.87890625 -9.41796875 5.87890625 C-8.98046875 2.87890625 -8.98046875 2.87890625 -7.41796875 0.94140625 C-4.771873 -0.2120201 -2.85194244 -0.57038849 0 0 Z " fill="#040404" transform="translate(46.98046875,125.12109375)"/>
<path d="M0 0 C0.72396973 -0.01023193 1.44793945 -0.02046387 2.19384766 -0.03100586 C5.12163772 0.01899103 7.19083448 0.09579412 9.640625 1.78125 C11.32218251 4.44162457 11.12512355 6.37413516 10.6875 9.4375 C5.76247671 16.93210065 -7.27803282 17.58019965 -15.3125 19.25 C-44.90016504 25.512378 -44.90016504 25.512378 -70.3125 40.4375 C-73.08443929 40.72928308 -74.72659825 40.80116316 -77.125 39.3125 C-78.86393052 36.56682023 -78.64957942 34.63172878 -78.3125 31.4375 C-66.85815957 17.71469606 -41.92626201 9.65002591 -25.3125 4.4375 C-24.6210791 4.21594238 -23.9296582 3.99438477 -23.21728516 3.76611328 C-15.48418377 1.35240907 -8.09380123 0.08866853 0 0 Z " fill="#050505" transform="translate(485.3125,197.5625)"/>
<path d="M0 0 C2.62595777 2.42396102 3.79859706 3.99298529 4.5 7.5 C3.53652171 12.31739147 0.10055393 14.95453147 -3.5 18 C-18.94659421 31.33764962 -31.14255544 48.36921513 -41.23046875 65.99609375 C-44.21080366 71.05542609 -44.21080366 71.05542609 -46 73 C-49.5625 73.375 -49.5625 73.375 -53 73 C-55 71 -55 71 -55.33984375 67.87890625 C-54.93552958 63.26414796 -53.60321581 60.04167997 -51.5625 55.9375 C-51.20269043 55.19725586 -50.84288086 54.45701172 -50.47216797 53.69433594 C-43.12858408 38.9311673 -18.43634465 -4.45015216 0 0 Z " fill="#040404" transform="translate(383,47)"/>
<path d="M0 0 C2 2 2 2 2.3125 5.4375 C2 9 2 9 0.86328125 10.6015625 C-6.50003485 16.12790875 -19.29467752 16.59479513 -28.125 17.9375 C-43.86833442 20.33982672 -59.16569073 23.63143603 -74.14233398 29.12060547 C-78.24242275 30.58985627 -81.6422367 31.39908615 -86 31 C-88.375 29.8125 -88.375 29.8125 -90 28 C-90.75 25.625 -90.75 25.625 -90 23 C-77.65689246 13.17589399 -60.03539639 9.75660665 -45.11425781 5.82714844 C-42.22193063 5.05894489 -39.34173481 4.255439 -36.4609375 3.4453125 C-24.78745313 0.28061174 -12.10985935 -2.0369754 0 0 Z " fill="#050505" transform="translate(95,249)"/>
<path d="M0 0 C2.56419146 1.18759582 4.89366071 2.38543083 7.3125 3.8125 C8.00126221 4.20920898 8.69002441 4.60591797 9.3996582 5.01464844 C15.40045383 8.52698006 21.17235568 12.36149958 26.92163086 16.26806641 C32.80276921 20.25248895 38.80925626 23.99159302 44.875 27.6875 C65.00677819 40.01016728 65.00677819 40.01016728 69 46 C68.8096754 49.04519365 68.45228903 51.24618495 66.875 53.875 C63.93033398 55.64179961 61.27835688 55.65536655 58 55 C54.49403808 53.27366009 51.3736459 51.06524723 48.1875 48.8125 C47.2704126 48.18263184 46.3533252 47.55276367 45.40844727 46.90380859 C38.5965806 42.19960739 31.87351236 37.36625665 25.18945312 32.48242188 C21.08394999 29.48352336 16.94414691 26.59269215 12.6875 23.8125 C7.18170155 20.2033992 1.99392786 16.25243906 -3.1875 12.19921875 C-4.87586312 10.87901259 -6.58950542 9.58901369 -8.34765625 8.36328125 C-10 7 -10 7 -10.4375 4.5 C-10 2 -10 2 -8.9375 0.125 C-5.81892606 -1.68578487 -3.45568566 -0.72843883 0 0 Z " fill="#050505" transform="translate(383,344)"/>
<path d="M0 0 C6.88481892 6.88481892 4.97307433 25.3187707 5.5625 34.625 C5.75087267 37.52579397 5.94107423 40.42645372 6.13328552 43.32699585 C6.25162207 45.11998039 6.36756332 46.91312534 6.48060608 48.70645142 C6.74078129 52.71473067 7.06032138 56.69770036 7.52783203 60.6875 C8.24829914 66.90808522 8.26397361 73.11833114 8.3125 79.375 C8.34150391 80.64472656 8.37050781 81.91445312 8.40039062 83.22265625 C8.40876953 84.43566406 8.41714844 85.64867188 8.42578125 86.8984375 C8.44036377 87.99849121 8.45494629 89.09854492 8.4699707 90.23193359 C8 93 8 93 6.12963867 94.85009766 C3.42204711 96.31206673 2.03017831 96.60603566 -1 96 C-6.80311412 90.3580835 -6.1688206 83.73466983 -6.28125 76.16015625 C-6.29965942 75.2016124 -6.31806885 74.24306854 -6.33703613 73.25547791 C-6.39561779 70.19121274 -6.4484085 67.12689028 -6.5 64.0625 C-6.77973705 47.06772482 -6.77973705 47.06772482 -7.77734375 30.10473633 C-8.15474613 24.84220771 -8.22317596 19.5867768 -8.25 14.3125 C-8.270625 13.25611328 -8.29125 12.19972656 -8.3125 11.11132812 C-8.31765625 10.10134766 -8.3228125 9.09136719 -8.328125 8.05078125 C-8.3374707 7.15012939 -8.34681641 6.24947754 -8.35644531 5.3215332 C-7.59830981 0.38378627 -4.61804316 -0.59205682 0 0 Z " fill="#050505" transform="translate(205,20)"/>
<path d="M0 0 C2.86328125 0.328125 2.86328125 0.328125 4.80078125 1.390625 C6.54622316 4.57348965 5.68464171 6.87126879 4.86328125 10.328125 C3.15428484 12.69286537 1.53439504 14.66712652 -0.44921875 16.765625 C-1.55214594 17.99384339 -2.65097539 19.22575144 -3.74609375 20.4609375 C-4.31005859 21.09547852 -4.87402344 21.73001953 -5.45507812 22.38378906 C-15.69699053 34.22562855 -24.04601256 47.5569214 -32.30859375 60.80859375 C-32.9325 61.80503906 -33.55640625 62.80148437 -34.19921875 63.828125 C-34.72644531 64.6840625 -35.25367187 65.54 -35.796875 66.421875 C-37.13671875 68.328125 -37.13671875 68.328125 -39.13671875 69.328125 C-43.49149046 69.82111802 -45.47805898 69.78095359 -49.13671875 67.265625 C-51.13671875 64.328125 -51.13671875 64.328125 -51.12109375 61.171875 C-49.84329559 56.18237742 -47.47449227 52.94811984 -44.38671875 48.890625 C-43.80543213 48.10856689 -43.22414551 47.32650879 -42.62524414 46.52075195 C-33.95625166 34.95158745 -24.87128275 23.81938814 -14.92578125 13.32421875 C-13.07097745 11.36042133 -11.33807795 9.37589943 -9.59765625 7.30078125 C-8.82679687 6.38167969 -8.0559375 5.46257812 -7.26171875 4.515625 C-6.60429688 3.70480469 -5.946875 2.89398438 -5.26953125 2.05859375 C-3.13671875 0.328125 -3.13671875 0.328125 0 0 Z " fill="#050505" transform="translate(102.13671875,335.671875)"/>
<path d="M0 0 C1.03087234 -0.00428513 2.06174469 -0.00857025 3.12385559 -0.01298523 C5.28430451 -0.01868443 7.44477259 -0.0192617 9.60522461 -0.01489258 C12.89665377 -0.0117167 16.1871961 -0.03530256 19.47851562 -0.06054688 C21.58984263 -0.06281885 23.70117202 -0.06352384 25.8125 -0.0625 C26.78664352 -0.07170975 27.76078705 -0.08091949 28.76445007 -0.09040833 C35.35518522 -0.04602204 41.53086754 0.52163801 46.70703125 5.05078125 C48.16866384 8.33945457 48.15118657 10.74753872 47.70703125 14.30078125 C46.08203125 16.5 46.08203125 16.5 43.70703125 18.30078125 C40.6484375 18.7265625 40.6484375 18.7265625 37.26953125 18.61328125 C36.15707031 18.58878906 35.04460937 18.56429688 33.8984375 18.5390625 C30.70703125 18.30078125 30.70703125 18.30078125 28.55859375 17.81713867 C24.67716838 17.11429495 20.82688453 16.97273111 16.890625 16.80078125 C16.03831802 16.76017578 15.18601105 16.71957031 14.30787659 16.67773438 C11.58691518 16.54850871 8.86575881 16.42426512 6.14453125 16.30078125 C0.07966486 16.02176143 -5.98428462 15.73178661 -12.04718018 15.41259766 C-14.0774475 15.31151192 -16.10878744 15.23256418 -18.14013672 15.15625 C-19.21021973 15.10082031 -20.28030273 15.04539062 -21.3828125 14.98828125 C-22.27734131 14.95089844 -23.17187012 14.91351563 -24.09350586 14.875 C-26.29296875 14.30078125 -26.29296875 14.30078125 -28.09594727 12.41796875 C-29.29296875 10.30078125 -29.29296875 10.30078125 -29.35546875 7.73828125 C-28.29296875 5.30078125 -28.29296875 5.30078125 -25.91796875 3.61328125 C-17.48504428 0.55998101 -8.90101647 -0.00838002 0 0 Z " fill="#040404" transform="translate(224.29296875,411.69921875)"/>
<path d="M0 0 C0.66 0.66 1.32 1.32 2 2 C-1.3 10.91 -4.6 19.82 -8 29 C-8.33 29 -8.66 29 -9 29 C-10.47956693 10.34481076 -10.47956693 10.34481076 -6.99609375 4.82421875 C-4.74644318 2.89846153 -2.63046565 1.35176707 0 0 Z " fill="#E9BE11" transform="translate(252,302)"/>
<path d="M0 0 C2.6875 0.4375 2.6875 0.4375 4.9375 3.0625 C6.63317069 6.33272205 7.34083299 8.79749644 7.6875 12.4375 C0.47596154 12.91826923 0.47596154 12.91826923 -2.875 10.875 C-4.90732809 7.42887846 -4.24299733 5.23106604 -3.3125 1.4375 C-2.3125 0.4375 -2.3125 0.4375 0 0 Z " fill="#F6C912" transform="translate(223.3125,289.5625)"/>
<path d="M0 0 C0 0.99 0 1.98 0 3 C-9.9 3 -19.8 3 -30 3 C-30 2.67 -30 2.34 -30 2 C-26.12534889 1.66252749 -22.25022962 1.33075778 -18.375 1 C-17.28058594 0.90460938 -16.18617188 0.80921875 -15.05859375 0.7109375 C-13.99511719 0.62070312 -12.93164062 0.53046875 -11.8359375 0.4375 C-10.86188965 0.35371094 -9.8878418 0.26992188 -8.88427734 0.18359375 C-5.91484768 -0.00542023 -2.97460517 -0.0308649 0 0 Z " fill="#FBF6E2" transform="translate(262,383)"/>
<path d="M0 0 C1.32 0 2.64 0 4 0 C3.59316505 2.35964273 3.10185661 3.85934088 1.6875 5.8125 C0 7 0 7 -2.1875 6.6875 C-2.785625 6.460625 -3.38375 6.23375 -4 6 C-2.25 3 -2.25 3 0 0 Z " fill="#EBBF11" transform="translate(270,290)"/>
<path d="M0 0 C0.33 0.99 0.66 1.98 1 3 C-2.06117568 5.62386487 -2.73173127 6 -7 6 C-6 3 -6 3 -2.9375 1.3125 C-1.968125 0.879375 -0.99875 0.44625 0 0 Z " fill="#DCDCDC" transform="translate(241,453)"/>
<path d="M0 0 C1.3921875 0.0928125 1.3921875 0.0928125 2.8125 0.1875 C2.8125 1.1775 2.8125 2.1675 2.8125 3.1875 C-0.1575 3.1875 -3.1275 3.1875 -6.1875 3.1875 C-3.1875 0.1875 -3.1875 0.1875 0 0 Z " fill="#F5F0DB" transform="translate(259.1875,382.8125)"/>
<path d="M0 0 C1.41791408 0.45445964 2.83428046 0.91374944 4.25 1.375 C5.43335938 1.75785156 5.43335938 1.75785156 6.640625 2.1484375 C8.86627958 2.95173667 10.90931672 3.89711662 13 5 C10.22043508 6.38978246 8.87953614 5.61356169 5.9375 4.75 C5.03902344 4.49734375 4.14054687 4.2446875 3.21484375 3.984375 C2.48394531 3.65953125 1.75304687 3.3346875 1 3 C0.67 2.01 0.34 1.02 0 0 Z " fill="#E7C022" transform="translate(316,141)"/>
</svg>
